<?xml version="1.0" standalone="no"?>
<!DOCTYPE svg PUBLIC "-//W3C//DTD SVG 1.1//EN" "http://www.w3.org/Graphics/SVG/1.1/DTD/svg11.dtd">
<svg xmlns="http://www.w3.org/2000/svg">
<defs >
<font id="Vollkorn" horiz-adv-x="593" ><font-face
    font-family="Vollkorn Black"
    units-per-em="1000"
    panose-1="0 0 0 0 0 0 0 0 0 0"
    ascent="952"
    descent="-441"
    alphabetic="0" />
<glyph unicode=" " horiz-adv-x="200" />
<glyph unicode="!" horiz-adv-x="411" d="M298 635Q292 591 285 528T272 394T259 258Q234 250 208 248T156 245Q150 318 142 390T123 533T101 675Q128 677 159 683T219 699T270 717Q291 712 297 694T298 635ZM310 98Q310 55 283 24T206 -8Q158 -8 131 19T103 93Q103
140 134 166T212 192Q257 192 283 163T310 98Z" />
<glyph unicode="&quot;" horiz-adv-x="412" d="M164 717Q178 714 185 700T193 675Q193 669 193 662T191 650Q183 604 176 545T161 412Q145 412 121 415T89 425Q86 492 80 558T60 688Q91 692 114 698T164 717ZM321 717Q336 714 344 701T352 671Q352 669 352 665T350
649Q342 601 338 548T326 411Q301 411 284 413T251 422Q247 490 242 557T226 688Q252 692 276 699T321 717Z" />
<glyph unicode="#" horiz-adv-x="624" d="M404 -9Q379 -9 355 -3T320 14L449 717Q474 717 499 710T532 694L404 -9ZM20 180Q20 206 22 229T35 273H570Q570 251 567 229T555 184H461Q349 184 263 184T117 183T20 180ZM176 -9Q155 -9 131 -2T93 18L221 717Q247 717
271 710T304 692L176 -9ZM65 429Q65 456 68 476T81 522H604Q604 496 601 474T590 432H505Q392 432 310 432T168 432T65 429Z" />
<glyph unicode="$" horiz-adv-x="564" d="M274 -9Q207 -9 146 5T28 48Q37 89 39 132T42 217Q71 225 103 227T165 230Q170 167 179 133T210 86T269 73Q320 73 342 94T365 140Q365 166 342 184T282 219T204 255T127 303T67 374T43 478Q43 554 77 599T166 664T287
685Q325 685 365 679T439 664T493 641Q493 598 494 556T500 490Q479 477 445 472T385 467Q377 521 362 551T324 593T273 605Q242 605 220 591T197 547Q197 517 222 496T286 458T370 420T454 372T519 302T544 198Q544 134 513 88T422 16T274 -9ZM320 -83Q301 -83
274 -79T233 -67V349L318 322Q318 250 318 189T318 63T320 -83ZM330 340L245 356V753Q267 753 289 750T332 737Q331 684 331 640T330 553T330 459T330 340Z" />
<glyph unicode="%" horiz-adv-x="863" d="M201 -7Q173 -8 154 4T125 30L668 686Q689 686 713 679T750 657L201 -7ZM246 359Q192 359 156 381T102 439T84 512Q84 555 103 592T160 653T256 677Q307 677 341 655T392 597T409 526Q409 481 390 443T335 382T246 359ZM251
434Q265 434 278 454T292 514Q292 554 279 579T245 604Q227 604 215 582T202 524Q202 485 215 460T251 434ZM616 -8Q562 -8 526 14T472 72T454 145Q454 188 473 225T531 286T626 310Q677 310 711 288T762 230T779 159Q779 114 760 76T705 15T616 -8ZM621 67Q635
67 648 87T662 147Q662 187 649 212T615 237Q597 237 585 215T572 157Q572 118 585 93T621 67Z" />
<glyph unicode="&amp;" horiz-adv-x="804" d="M511 185Q540 232 555 263T577 323Q585 358 573 373T524 395Q518 413 516 428T514 461Q538 459 574 459T636 458Q661 458 688 458T740 461Q740 444 739 429T732 395Q706 388 693 379T673 356T657 320Q645 288 636
265T613 215T579 149L511 185ZM637 159Q659 136 676 125T710 109T750 103Q750 82 747 56T736 10Q709 10 675 8T606 1T540 -9Q473 80 408 158T287 307Q238 371 212 415T175 492T164 558Q164 605 185 641T261 697T410 717Q466 717 513 709T608 681Q600 652 599 612T600
527Q575 521 547 518T486 515Q482 574 463 607T404 640Q380 640 367 627T353 579Q353 556 361 531T390 473T447 391Q462 371 485 341T535 278T588 214T637 159ZM359 71Q391 71 416 87T468 140L530 90Q484 39 433 15T299 -10Q237 -10 191 3T114 43T68 107T53 193Q53
276 97 327T222 413L280 343Q264 330 254 305T244 233Q244 174 260 139T302 87T359 71Z" />
<glyph unicode="&apos;" horiz-adv-x="253" d="M161 717Q193 709 193 669Q193 665 193 661T191 651Q182 604 177 544T166 411Q146 411 126 415T89 426Q87 493 79 561T60 687Q92 690 118 698T161 717Z" />
<glyph unicode="(" horiz-adv-x="353" d="M235 741Q252 741 269 736T300 719Q261 656 236 592T198 450T185 266Q185 152 201 55T244 -119T306 -256Q293 -263 277 -267T240 -271Q188 -216 141 -137T65 38T35 240Q35 349 60 437T130 600T235 741Z" />
<glyph unicode=")" horiz-adv-x="353" d="M118 741Q178 675 223 602T293 447T318 270Q318 149 289 47T212 -136T113 -271Q93 -271 77 -267T47 -256Q91 -183 117 -111T156 46T168 244Q168 351 156 434T118 587T53 719Q67 730 84 735T118 741Z" />
<glyph unicode="*" horiz-adv-x="507" d="M361 752Q338 718 322 690T286 623Q314 632 335 639T379 656T429 678Q443 642 446 607T444 530Q397 544 365 551T290 565Q317 534 340 508T395 450Q367 427 331 410T256 390Q254 431 251 466T240 544Q218 512 199 483T157
415Q126 437 104 462T69 522Q107 538 138 552T204 586Q169 599 137 606T60 623Q70 655 87 687T130 741Q156 709 177 686T232 630Q232 669 230 705T223 782Q258 782 295 775T361 752Z" />
<glyph unicode="+" horiz-adv-x="550" d="M229 1Q230 38 230 74T231 152T231 250Q231 295 231 330T231 402T230 491Q250 499 269 501T321 504V14Q308 6 281 4T229 1ZM37 211Q37 237 38 256T50 300H512Q512 275 511 254T499 212Q449 213 412 213T340 213T260 213Q209
213 174 213T107 212T37 211Z" />
<glyph unicode="," horiz-adv-x="316" d="M202 160Q231 152 243 131T256 55Q256 -8 226 -73T144 -187Q119 -185 98 -178T64 -160Q131 -84 131 -35Q131 -16 113 -4T60 13Q60 47 63 70T76 128Q116 130 148 137T202 160Z" />
<glyph unicode="-" horiz-adv-x="419" d="M359 306Q359 287 357 261T346 209Q315 209 281 209T210 208T136 206T60 201Q60 222 64 251T77 306H359Z" />
<glyph unicode="." horiz-adv-x="327" d="M196 -10Q138 -10 105 23T72 112Q72 168 110 199T203 230Q257 230 288 196T320 118Q320 66 288 28T196 -10Z" />
<glyph unicode="/" horiz-adv-x="401" d="M116 -9Q57 -9 29 8L294 717Q317 717 338 711T377 695L116 -9Z" />
<glyph unicode="0" horiz-adv-x="629" d="M300 431Q276 431 257 410T228 356T217 285Q217 250 224 213T247 144T283 92T331 72Q357 72 374 93T400 149T409 224Q409 258 402 294T380 361T346 411T300 431ZM318 506Q403 506 466 477T564 392T599 255Q599 171 562
112T461 22T318 -9Q236 -9 171 22T68 112T30 255Q30 318 53 365T116 444T209 490T318 506Z" />
<glyph unicode="1" horiz-adv-x="414" d="M302 189Q302 140 307 116T327 84T371 75Q376 57 377 38T379 -3Q364 -2 340 -2T288 -1T239 0T207 0Q194 0 171 0T121 0T72 -1T35 -3Q35 19 37 40T43 75Q73 80 88 88T107 118T112 187V318Q112 364 107 386T86 416T43 425Q39
443 37 461T35 503Q47 502 70 502T121 501T171 500T207 500Q228 500 262 500T330 501T379 503Q379 481 378 462T371 425Q343 424 328 416T308 386T302 318V189Z" />
<glyph unicode="2" horiz-adv-x="504" d="M274 506Q341 506 383 492T445 451T465 388Q465 355 451 329T404 276T317 214Q283 193 256 175T204 138L173 160H291Q328 160 346 163T370 178T381 211Q404 211 429 209T468 202Q468 156 470 113T479 41Q472 20 456 9T417
-2Q387 -1 335 -1T230 0Q178 0 131 0T55 -2Q42 18 36 43T30 97Q57 124 89 151T168 217Q212 254 234 278T265 323T273 366Q273 393 258 410T212 428Q182 428 167 403T145 307Q112 307 90 311T47 322Q49 340 49 365T49 415T44 458Q88 481 140 493T274 506Z" />
<glyph unicode="3" horiz-adv-x="508" d="M197 -171Q140 -171 97 -159T25 -123Q27 -104 36 -86T60 -53Q83 -70 106 -79T163 -89Q203 -89 230 -76T271 -38T286 21Q286 59 268 81T209 103Q202 103 195 102T178 99Q165 113 159 133T154 173Q193 220 225 260T286 340H213Q185
340 168 335T140 313T117 263Q94 263 71 267T31 283Q40 339 41 389T43 504Q66 503 101 502T175 501T249 500Q283 500 320 500T390 502T442 504Q453 488 459 467T464 422Q427 374 383 316T302 208Q362 205 401 186T459 132T478 45Q478 -23 446 -71T351 -145T197
-171Z" />
<glyph unicode="4" horiz-adv-x="605" d="M261 0Q213 0 165 -1T60 -7Q44 24 35 58T25 128L339 506Q376 508 411 507T480 500V-142Q448 -142 421 -145T368 -154T316 -171Q303 -160 297 -147T290 -107V24L310 44V432L376 435L139 128L76 140L423 141L447 161H531Q552
161 565 155T590 130Q580 105 575 87T568 49T566 0H261Z" />
<glyph unicode="5" horiz-adv-x="481" d="M101 505Q135 503 162 502T222 501T308 500Q331 500 343 515T356 555Q374 561 398 562T442 563Q438 520 437 470T435 373Q429 357 416 350T384 343Q344 343 309 343T244 343T190 342T145 339L134 286Q259 268 329 236T427
157T456 45Q456 -12 432 -53T365 -120T272 -158T166 -171Q113 -171 82 -165T30 -148Q30 -127 34 -110T50 -78Q59 -82 77 -86T133 -90Q172 -90 201 -78T247 -42T264 13Q264 34 256 51T226 84T168 113T71 138Q57 154 50 170T39 206L101 505Z" />
<glyph unicode="6" horiz-adv-x="588" d="M451 638Q461 628 465 608T467 565Q373 546 321 502T247 392T225 241Q225 201 230 170T246 118T271 86T302 75Q323 75 337 88T359 126T367 185Q367 225 355 253T323 298T276 314Q255 314 225 304T174 276L164 333Q211
365 257 380T352 395Q450 395 504 345T558 212Q558 147 534 104T470 37T386 2T297 -9Q217 -9 158 15T67 93T35 240Q35 329 62 395T136 506T237 580T348 622T451 638Z" />
<glyph unicode="7" horiz-adv-x="472" d="M141 -176Q128 -174 118 -158T107 -97Q107 -20 135 50T209 191T311 340H233Q197 340 176 334T143 313T121 266Q89 265 65 269T20 283Q26 308 30 345T35 423T37 502Q72 501 116 501T225 500Q260 500 290 500T352 500T429
502Q441 488 446 465T452 421Q426 383 401 343T358 269T333 213Q325 188 319 164T307 106T300 22T297 -107Q257 -116 215 -134T141 -176Z" />
<glyph unicode="8" horiz-adv-x="579" d="M252 285Q243 277 237 264T228 233T225 192Q225 132 246 99T301 65Q327 65 340 83T354 131Q354 170 333 198T279 248T211 286Q179 302 144 324T84 381T60 466Q60 543 120 590T299 637Q396 637 457 602T519 498Q519 466
506 439T467 391T405 359L320 399Q334 416 341 439T349 488Q349 527 333 549T288 572Q265 572 252 557T238 515Q238 476 263 455T335 410Q395 379 440 349T509 278T534 176Q534 82 473 37T292 -9Q173 -9 109 34T45 160Q45 216 78 264T194 342L252 285Z" />
<glyph unicode="9" horiz-adv-x="583" d="M424 154Q378 122 332 107T236 92Q171 92 125 117T54 185T30 283Q30 350 54 393T118 461T202 496T291 506Q372 506 430 482T521 404T553 256Q553 166 523 97T443 -21T334 -103T214 -151T104 -169Q95 -158 91 -138T88 -96Q186
-75 246 -28T335 87T363 238Q363 333 342 377T286 422Q266 422 251 409T229 372T221 312Q221 282 228 257T247 213T276 184T312 173Q334 173 364 183T414 211L424 154Z" />
<glyph unicode=":" horiz-adv-x="327" d="M163 -8Q115 -8 88 19T60 93Q60 140 91 166T169 192Q214 192 240 163T267 98Q267 55 240 24T163 -8ZM163 267Q115 267 88 294T60 368Q60 415 91 441T169 467Q214 467 240 438T267 373Q267 330 240 299T163 267Z" />
<glyph unicode=";" horiz-adv-x="327" d="M163 267Q115 267 88 294T60 368Q60 415 91 441T169 467Q214 467 240 438T267 373Q267 330 240 299T163 267ZM209 160Q238 152 250 131T263 55Q263 -8 233 -73T151 -187Q126 -185 105 -178T71 -160Q138 -84 138 -35Q138
-16 120 -4T67 13Q67 47 70 70T83 128Q123 130 155 137T209 160Z" />
<glyph unicode="&lt;" horiz-adv-x="550" d="M450 -7Q341 59 243 113T54 213Q46 263 71 307L409 503Q458 493 496 448L161 260L464 102Q469 75 466 43T450 -7Z" />
<glyph unicode="=" horiz-adv-x="550" d="M45 117Q45 140 48 163T59 206H505Q505 183 502 161T491 118Q451 119 420 119T357 119T281 119Q237 119 201 119T128 119T45 117ZM46 303Q46 331 49 352T60 392H504Q504 367 502 347T490 304Q450 305 419 305T357 305T281
305Q237 305 201 305T129 305T46 303Z" />
<glyph unicode="&gt;" horiz-adv-x="550" d="M126 1Q107 18 98 40T89 91L414 278L413 241L76 446Q85 467 104 485T148 512L484 294Q496 247 470 206Q413 176 360 145T250 80T126 1Z" />
<glyph unicode="?" horiz-adv-x="537" d="M315 717Q411 717 456 684T502 595Q502 552 486 523T445 473T397 432T356 387T339 325Q339 303 343 284T354 242Q338 233 312 228T264 223Q239 238 222 274T204 351Q204 388 215 413T242 455T274 489T301 525T312 574Q312
610 299 625T267 640Q254 640 244 629T225 590T210 506Q177 506 154 511T108 529Q111 565 111 603T108 672Q143 689 195 703T315 717ZM303 -8Q255 -8 228 19T200 93Q200 140 231 166T309 192Q354 192 380 163T407 98Q407 55 380 24T303 -8Z" />
<glyph unicode="@" horiz-adv-x="1001" d="M718 467Q730 461 736 452T744 424T747 371V228Q747 174 750 148T759 113T776 104Q788 104 801 123T824 188T834 308Q834 383 804 446T706 548T524 586Q408 586 330 539T214 412T175 234Q175 163 195 99T258 -16T368
-95T532 -124Q614 -124 687 -99T812 -20Q829 -26 841 -39T861 -68Q830 -110 777 -140T658 -186T519 -202Q367 -202 270 -147T126 6T80 228Q80 318 110 396T200 533T344 626T540 660Q671 660 755 617T880 502T921 339Q921 260 903 196T851 86T767 16T657 -9Q617
-9 590 17T562 89Q562 116 562 162T563 263T565 368T569 455Q620 455 658 457T718 467ZM460 467Q492 467 520 465T582 454L576 360Q560 376 542 383T506 390Q482 390 468 380T447 338T440 243Q440 166 451 133T484 99Q506 99 522 125T550 202T568 328L621 343Q617
262 602 198T559 87T491 16T398 -9Q322 -9 286 46T250 205Q250 283 280 342T358 434T460 467Z" />
<glyph unicode="A" horiz-adv-x="717" d="M388 682L610 195Q634 144 648 119T673 85T699 75Q703 62 705 42T707 -3Q687 -1 656 -1T596 0T550 0Q538 0 515 0T464 0T413 -1T374 -3Q374 25 376 42T382 75Q415 83 421 100T413 151L340 316Q313 376 297 429T273 528H310Q298
481 282 428T241 316L177 152Q168 130 175 105T215 75Q219 59 221 40T223 -3Q212 -2 191 -2T146 -1T106 0Q81 0 53 0T10 -3Q10 20 12 38T20 75Q36 78 48 87T72 117T100 176L312 676Q332 681 348 681T388 682ZM406 231L427 166Q360 166 289 164T146 153L161 231H406Z"
/>
<glyph unicode="B" horiz-adv-x="713" d="M30 679Q49 678 81 677T138 676Q165 676 207 676T294 677T367 678Q475 678 536 661T622 609T647 523Q647 465 606 423T488 370Q559 366 602 344T664 283T683 194Q683 136 652 93T552 25T367 0Q323 0 279 0T193 0T110 -1T30
-3Q30 19 32 40T38 75Q65 77 79 85T99 117T104 187V491Q104 536 99 558T80 588T37 601Q33 616 32 639T30 679ZM304 638V178Q304 134 313 112T339 82T373 74Q410 74 436 102T463 183Q463 219 455 243T429 281T387 302T329 309H264V384H340Q373 384 397 396T434 434T447
496Q447 529 435 552T401 588T351 601Q332 601 319 597T290 585L304 638Z" />
<glyph unicode="C" horiz-adv-x="634" d="M379 -9Q276 -9 199 35T78 159T35 341Q35 426 63 490T139 598T250 663T379 685Q433 685 490 672T599 633Q593 599 591 559T588 478Q575 471 544 468T489 464Q489 516 476 547T439 593T383 608Q343 608 315 588T271 534T248
457T240 367Q240 287 260 223T324 122T438 85Q472 85 509 95T586 127Q597 117 604 103T614 72Q578 41 519 16T379 -9Z" />
<glyph unicode="D" horiz-adv-x="739" d="M30 -3Q30 19 32 40T38 75Q65 77 79 85T99 117T104 187V491Q104 536 99 558T80 588T37 601Q33 616 32 639T30 679Q54 678 89 678T163 677T239 676Q260 676 286 677T344 678Q402 678 456 671T555 643T633 587T685 494T704
355Q704 274 684 216T632 119T559 56T478 20T400 4T339 0Q313 0 269 0T176 -1T87 -2T30 -3ZM382 75Q393 75 413 82T453 115T488 193T502 337Q502 417 489 469T454 550T403 591T344 603Q327 603 312 598T289 585L304 629V192Q304 146 311 121T335 85T382 75Z" />
<glyph unicode="E" horiz-adv-x="646" d="M30 679Q54 678 89 678T163 677T239 676T304 676V192Q304 146 311 121T335 85T382 75L339 0Q313 0 269 0T176 -1T87 -2T30 -3Q30 19 32 40T38 75Q65 77 79 85T99 117T104 187V491Q104 536 99 558T80 588T37 601Q33 616
32 639T30 679ZM529 211Q562 208 590 199T631 177Q620 143 612 95T600 -2Q571 -1 526 -1T431 -1T339 0L382 75H399Q433 75 457 89T499 133T529 211ZM474 457Q473 433 472 406T470 340Q470 298 471 271T474 221Q446 221 426 223T388 231Q384 272 367 285T305 299H248V374H305Q354
374 369 390T386 445Q403 452 427 454T474 457ZM571 679Q572 654 574 621T581 557T592 501Q573 494 550 489T491 483Q485 519 472 545T431 586T353 601H260L294 676Q369 676 420 676T507 677T571 679Z" />
<glyph unicode="F" horiz-adv-x="617" d="M30 -3Q30 24 31 42T37 75Q64 77 78 85T98 117T104 187V491Q104 536 100 558T81 588T39 601Q35 616 33 635T30 679Q54 678 89 678T165 677T241 676T304 676V197Q304 154 314 129T347 91T413 75Q419 59 420 38T422 -3Q403
-2 370 -2T301 -1T232 0Q178 0 122 0T30 -3ZM504 186Q476 186 456 188T418 196Q414 237 397 250T335 264H278V339H335Q384 339 399 355T416 410Q433 417 457 419T504 422Q503 398 502 371T500 305Q500 263 501 236T504 186ZM501 483Q495 519 482 545T441 586T363
601H260L294 676Q374 676 427 676T516 677T581 679Q582 654 584 621T591 557T602 501Q583 494 560 489T501 483Z" />
<glyph unicode="G" horiz-adv-x="699" d="M389 -9Q279 -9 200 32T78 152T35 343Q35 424 59 487T130 595T243 662T393 685Q459 685 521 669T628 633Q622 599 620 559T617 478Q595 468 568 466T518 464Q515 517 499 548T455 593T388 607Q334 607 301 573T254 483T239
367Q239 281 259 214T315 109T402 71Q416 71 423 72T437 75Q451 80 460 94T469 147V181Q469 211 464 226T443 248T398 256Q394 272 393 291T391 333Q421 331 459 331T530 330Q561 330 602 330T674 332Q674 313 673 294T668 256Q651 255 643 250T632 232T630 197V173Q630
133 633 114T647 69Q601 35 534 13T389 -9Z" />
<glyph unicode="H" horiz-adv-x="802" d="M424 -3Q424 15 427 38T434 75Q461 77 475 85T493 117T498 187V491Q498 536 494 558T475 588T433 601Q429 616 427 638T424 679Q441 678 474 678T543 677T603 676Q627 676 659 676T721 677T772 679Q772 659 771 640T763
601Q736 598 722 590T703 559T698 491V187Q698 141 703 118T723 86T764 75Q768 62 770 40T772 -3Q750 -1 708 -1T613 0Q561 0 510 0T424 -3ZM30 -3Q30 15 33 38T40 75Q67 77 81 85T99 117T104 187V491Q104 536 100 558T81 588T39 601Q35 616 33 638T30 679Q47 678
80 678T149 677T209 676Q233 676 265 676T327 677T378 679Q378 659 377 640T369 601Q342 598 328 590T309 559T304 491V187Q304 141 309 118T328 86T370 75Q374 62 376 40T378 -3Q356 -1 314 -1T219 0Q167 0 116 0T30 -3ZM300 300V389H504V310Q479 310 452 310T398
308T346 305T300 300Z" />
<glyph unicode="I" horiz-adv-x="408" d="M104 491Q104 536 100 558T81 588T39 601Q35 616 33 638T30 679Q47 678 80 678T149 677T209 676Q233 676 265 676T327 677T378 679Q378 659 377 640T369 601Q342 598 328 590T309 559T304 491V187Q304 141 309 118T328
86T370 75Q374 62 376 40T378 -3Q356 -1 314 -1T219 0Q167 0 116 0T30 -3Q30 15 33 38T40 75Q67 77 81 85T99 117T104 187V491Z" />
<glyph unicode="J" horiz-adv-x="393" d="M289 135Q289 66 279 9T240 -95T160 -180T22 -249Q4 -235 -4 -216T-15 -175Q22 -150 44 -122T78 -51T89 62V488Q89 535 84 558T66 589T24 601Q20 616 18 638T15 679Q36 678 66 677T129 676T189 676Q230 676 279 676T363
679Q363 656 361 637T354 601Q324 599 310 588T293 554T289 488V135Z" />
<glyph unicode="K" horiz-adv-x="767" d="M492 -9Q470 37 446 82T395 171T337 257T269 340L439 509Q486 556 486 578T460 601Q455 618 453 639T451 679Q470 678 502 677T564 676Q584 676 615 676T676 677T717 679Q717 662 714 639T706 601Q681 600 658 591T612
566T565 526L409 364L445 431Q501 364 544 302T626 176Q648 141 668 120T710 88T757 75Q757 53 755 34T745 0Q726 0 692 0T619 -2T545 -4T492 -9ZM30 -3Q30 15 33 38T40 75Q67 77 81 85T99 117T104 187V491Q104 536 100 558T81 588T39 601Q35 616 33 638T30 679Q47
678 80 678T149 677T209 676Q233 676 265 676T327 677T378 679Q378 659 377 640T369 601Q342 598 328 590T309 559T304 491V187Q304 141 309 118T328 86T370 75Q374 62 376 40T378 -3Q356 -1 314 -1T219 0Q167 0 116 0T30 -3Z" />
<glyph unicode="L" horiz-adv-x="641" d="M399 75Q433 75 457 89T499 133T529 211Q562 208 590 199T631 177Q620 143 612 95T600 -2Q571 -1 526 -1T431 -1T339 0Q313 0 269 0T176 -1T87 -2T30 -3Q30 19 32 40T38 75Q65 77 79 85T99 117T104 187V491Q104 536 99
558T80 588T37 601Q33 616 32 639T30 679Q62 678 87 678T139 677T204 676Q228 676 261 676T326 677T378 679Q378 659 377 638T369 601Q342 598 328 590T309 559T304 491V192Q304 146 311 121T335 85T382 75H399Z" />
<glyph unicode="M" horiz-adv-x="998" d="M414 -9L181 522H208L179 246Q172 176 176 140T195 91T238 75Q243 58 244 39T246 -3Q231 -1 200 -1T136 0Q115 0 90 0T42 -1T10 -3Q10 19 12 38T18 75Q44 77 60 91T87 142T104 242L126 486Q131 534 127 559T108 592T64
601Q59 619 58 637T56 679Q71 678 98 678T152 677T196 676Q212 676 240 676T295 677T332 679L533 200H496L669 679Q687 678 715 678T770 677T813 676Q829 676 855 676T907 677T948 679Q948 658 947 637T940 601Q894 601 882 577T876 485L904 211Q910 152 917 124T939
88T981 76Q985 59 986 40T988 -3Q978 -2 954 -2T900 -1T840 0T793 0Q769 0 738 0T679 -1T639 -3Q639 22 641 39T648 75Q679 79 693 88T709 122T705 200L671 519H693L489 -1Q476 -5 454 -7T414 -9Z" />
<glyph unicode="N" horiz-adv-x="711" d="M520 -9L90 573Q82 587 69 592T23 601Q19 618 17 637T15 679Q28 678 53 678T105 677T148 676Q173 676 207 676T261 679L553 277L520 -9ZM15 -3Q15 21 16 40T23 75Q54 79 71 90T96 131T104 218V615L179 607V218Q179 161
185 132T208 91T258 75Q263 59 264 38T265 -3Q251 -2 229 -2T184 -1T144 0Q127 0 101 0T51 -1T15 -3ZM520 -9L536 180V458Q536 515 530 544T506 585T451 601Q447 618 446 640T444 679Q458 678 482 678T532 677T575 676Q601 676 632 677T681 679Q681 659 680 640T674
601Q648 598 635 587T616 546T611 458V0Q591 -6 570 -7T520 -9Z" />
<glyph unicode="O" horiz-adv-x="761" d="M380 -9Q272 -9 195 35T77 157T35 341Q35 421 60 484T132 593T241 661T380 685Q485 685 562 644T683 529T726 354Q726 273 702 207T633 92T523 18T380 -9ZM392 69Q434 69 462 101T506 193T521 333Q521 410 503 472T450
572T367 610Q327 610 299 582T255 499T240 365Q240 305 249 252T276 157T323 93T392 69Z" />
<glyph unicode="P" horiz-adv-x="693" d="M30 -3Q30 24 31 42T37 75Q64 77 78 85T98 117T104 187V491Q104 536 100 558T81 588T39 601Q35 616 33 635T30 679Q77 678 118 677T193 676Q225 676 265 676T339 677T390 678Q495 678 553 651T635 577T658 469Q658 393
629 336T543 247T405 215Q363 215 337 225Q333 247 336 265T346 297Q352 296 358 296T368 295Q389 295 408 309T440 355T453 439Q453 510 427 554T343 599Q331 599 319 597T295 588L304 605V197Q304 154 314 129T347 91T413 75Q419 59 420 38T422 -3Q403 -2 371
-2T301 -1T229 0Q195 0 158 0T87 -1T30 -3Z" />
<glyph unicode="Q" horiz-adv-x="761" d="M380 -9Q272 -9 195 35T77 157T35 341Q35 421 60 484T132 593T241 661T380 685Q485 685 562 644T683 529T726 354Q726 273 702 207T633 92T523 18T380 -9ZM392 69Q434 69 462 101T506 193T521 333Q521 410 503 472T450
572T367 610Q327 610 299 582T255 499T240 365Q240 305 249 252T276 157T323 93T392 69ZM591 -219Q560 -205 540 -182T506 -131T475 -77T438 -33T381 -9L488 29Q531 19 560 4T613 -28T659 -58T713 -80T786 -86Q787 -107 784 -130T776 -170Q727 -174 679 -187T591
-219Z" />
<glyph unicode="R" horiz-adv-x="718" d="M473 -9Q463 15 453 40T433 91T413 144Q399 181 388 204T363 241T329 267L381 261Q353 260 334 260T286 260L296 342Q312 339 319 338T334 337Q363 337 389 351T432 395T449 469Q449 534 421 569T346 605Q333 605 321
603T296 595L304 636V197Q304 143 309 117T324 84T353 75Q357 65 358 42T360 -3Q341 -2 309 -2T243 -1T185 0Q145 0 105 0T30 -3Q30 23 32 42T38 75Q65 77 79 85T99 117T104 187V493Q104 538 99 560T80 590T37 603Q33 618 32 644T30 680Q60 679 105 678T202 676Q231
676 288 678T409 681Q496 681 551 656T632 587T658 493Q658 426 634 380T569 308T477 278L501 291Q531 283 549 270T585 228T630 144Q643 119 653 105T676 86T708 78Q708 56 705 37T697 0Q618 0 561 -2T473 -9Z" />
<glyph unicode="S" horiz-adv-x="564" d="M274 -9Q207 -9 146 5T28 48Q37 89 39 132T42 217Q71 225 103 227T165 230Q170 167 179 133T210 86T269 73Q320 73 342 94T365 140Q365 166 342 184T282 219T204 255T127 303T67 374T43 478Q43 554 77 599T166 664T287
685Q325 685 365 679T439 664T493 641Q493 598 494 556T500 490Q479 477 445 472T385 467Q377 521 362 551T324 593T273 605Q242 605 220 591T197 547Q197 517 222 496T286 458T370 420T454 372T519 302T544 198Q544 134 513 88T422 16T274 -9Z" />
<glyph unicode="T" horiz-adv-x="719" d="M255 601Q219 601 195 587T155 545T128 473Q100 473 73 475T25 488Q36 529 43 583T50 679Q92 678 133 677T228 676T363 676Q435 676 488 676T585 677T670 679Q670 637 676 586T694 489Q674 481 648 477T590 473Q577 541
553 571T477 601H255ZM257 641H457V187Q457 141 464 118T493 86T555 75Q560 62 562 40T565 -3Q537 -1 486 -1T370 0Q328 0 283 0T199 -1T139 -3Q139 15 143 38T151 75Q193 77 216 85T248 117T257 187V641Z" />
<glyph unicode="U" horiz-adv-x="697" d="M596 277Q596 191 584 135T536 44Q505 16 461 4T359 -9Q259 -9 201 16T119 97T94 239V486Q94 533 89 556T69 588T28 601Q24 617 22 637T20 679Q40 678 78 677T156 676Q176 676 206 676T268 676T326 677T364 679Q364 655
363 637T358 601Q331 597 318 588T299 555T294 486V256Q294 194 306 153T344 92T406 72Q429 72 452 82T492 115Q501 128 507 148T516 202T520 287V467Q520 517 514 544T493 584T454 601Q451 621 450 641T448 679Q462 678 482 678T524 677T560 676Q589 676 618 677T667
679Q667 657 666 638T659 601Q633 598 620 586T601 548T596 476V277Z" />
<glyph unicode="V" horiz-adv-x="707" d="M307 -9Q275 77 242 160T174 324T105 482Q83 529 70 553T45 588T18 601Q14 614 12 634T10 679Q23 678 45 678T92 677T139 676T173 676Q197 676 246 676T343 679Q342 651 340 632T335 601Q310 597 300 587T293 557T312
502Q334 449 352 400T388 298T423 178H390Q419 244 441 297T484 404T528 525Q538 554 531 575T492 601Q488 614 486 632T484 679Q496 678 516 678T559 677T598 676Q623 676 652 677T697 679Q697 656 694 637T687 601Q661 596 644 576T605 500Q556 376 506 254T399
0Q382 -7 356 -8T307 -9Z" />
<glyph unicode="W" horiz-adv-x="985" d="M10 679Q22 678 45 678T94 677T143 676T178 676Q194 676 225 676T292 677T350 679Q350 658 349 639T342 601Q312 597 298 587T286 553T304 484Q317 446 329 405T356 315T386 208H339L505 676Q524 681 547 682T589 684Q624
598 653 522T712 370T772 208H732L807 458Q830 533 817 563T756 601Q749 618 748 639T746 679Q767 678 803 677T866 676Q889 676 922 677T975 679Q975 659 974 640T966 601Q948 595 935 581T911 539T883 458L748 0Q732 -4 699 -6T640 -9Q610 74 583 146T527 292T463
449H507L347 -2Q334 -5 315 -6T276 -8T243 -9Q203 125 165 249T96 467Q76 526 65 553T44 588T17 598Q12 616 11 636T10 679Z" />
<glyph unicode="X" horiz-adv-x="730" d="M710 -3Q696 -2 664 -2T593 -1T523 0Q492 0 457 0T391 -1T346 -2Q346 19 347 37T353 75Q376 77 383 86T377 124T326 217Q311 243 283 288T220 388T153 491Q130 526 115 546T88 577T65 592T40 600Q34 620 33 638T31 679Q49
678 86 678T166 677T238 676Q284 676 323 676T385 678Q385 659 384 640T378 601Q358 598 349 590T346 563T377 506Q411 456 445 402T506 305T544 241Q577 186 599 154T637 106T667 84T701 75Q707 58 708 39T710 -3ZM20 -3Q20 20 22 42T29 77Q73 88 107 114T183
199L278 334L341 295L274 197Q243 150 232 126T229 91T263 75Q268 56 269 37T271 -3Q246 -1 209 -1T144 0Q125 0 102 0T56 -1T20 -3ZM448 328L384 369L461 490Q498 548 498 572T464 601Q460 618 459 639T457 679Q474 678 497 678T543 677T581 676Q596 676 618 676T661
677T694 679Q694 657 693 638T687 601Q656 593 637 583T600 553T556 492L448 328Z" />
<glyph unicode="Y" horiz-adv-x="634" d="M423 261V198Q423 149 430 124T458 88T522 75Q529 54 530 38T532 -3Q489 -1 432 -1T318 0Q281 0 244 0T171 -1T105 -3Q106 19 108 39T117 75Q165 79 187 87T216 121T223 199V261H423ZM365 120L286 119L84 542Q68 574 52
586T18 601Q14 618 12 635T10 678Q34 677 66 677T128 676T178 676Q197 676 229 676T293 676T346 678Q346 652 344 635T339 601Q308 597 307 575T320 518Q334 485 353 435T392 331H387Q409 387 429 435T466 524Q480 557 473 578T437 601Q433 618 431 635T428 678Q455
677 478 677T531 676Q554 676 577 676T624 678Q624 653 622 634T615 601Q597 597 582 581T545 517L365 120Z" />
<glyph unicode="Z" horiz-adv-x="586" d="M68 678Q87 677 116 677T179 676T245 676T302 676Q335 676 375 676T454 676T524 678Q533 663 538 647T545 608Q495 504 449 414T354 234T245 42L203 75H300Q344 75 371 86T416 126T448 212Q513 207 556 183Q551 161 545
128T534 59T528 -3Q489 -1 444 -1T353 0T270 0Q211 0 154 0T50 -3Q41 10 36 28T30 68Q75 147 113 216T187 350T258 483T330 627L393 601H264Q233 601 213 590T178 547T149 456Q118 456 90 459T43 470Q57 518 62 575T68 678Z" />
<glyph unicode="[" horiz-adv-x="311" d="M35 742Q62 741 85 741T131 741Q161 741 189 741T252 742Q261 723 262 703T264 659Q221 656 199 649T170 625T162 575V-96Q162 -130 168 -148T194 -174T253 -184Q261 -207 262 -226T264 -269Q231 -268 205 -268T155 -267Q127
-267 99 -267T35 -269V742Z" />
<glyph unicode="\" horiz-adv-x="405" d="M24 709Q38 713 56 715T100 717Q102 717 105 717T110 717L376 0Q359 -5 334 -7T291 -9L24 709Z" />
<glyph unicode="]" horiz-adv-x="311" d="M276 -269Q240 -268 212 -268T156 -267Q133 -267 107 -267T47 -269Q47 -245 48 -226T58 -184Q97 -182 116 -175T142 -149T149 -96V575Q149 608 142 624T113 648T47 659Q47 682 48 702T59 742Q93 741 121 741T180 741Q202
741 225 741T276 742V-269Z" />
<glyph unicode="^" horiz-adv-x="550" d="M276 608Q221 545 176 488T86 368Q67 380 52 400T35 438L238 698Q251 703 268 705T310 708Q338 664 374 609T448 500T515 405Q499 392 478 388T434 384L276 608Z" />
<glyph unicode="_" horiz-adv-x="550" d="M16 -153Q16 -130 19 -110T30 -72H534Q534 -90 532 -112T520 -152Q462 -151 421 -151T344 -151T262 -151Q223 -151 187 -151T110 -152T16 -153Z" />
<glyph unicode="`" horiz-adv-x="300" d="M420 533Q392 572 363 608T289 685Q325 700 367 708T453 717Q464 680 483 635T522 551Q503 542 479 538T420 533Z" />
<glyph unicode="a" horiz-adv-x="589" d="M383 -9Q361 -1 353 13T345 48Q345 63 348 83T359 123L363 129Q352 93 337 69T303 30Q280 11 249 2T178 -7Q107 -7 66 22T25 110Q25 148 42 175T89 222T158 254T240 275T328 289Q328 308 326 324T320 353T305 377Q294
389 280 393T254 398Q231 398 217 385T194 347T182 289Q147 289 122 291T73 302Q75 331 75 362T66 431Q110 448 172 458T292 468Q368 468 410 453T472 417Q490 399 504 364T518 256V190Q518 154 522 136T538 111T574 104Q578 82 576 62T563 25Q517 24 471 16T383
-9ZM247 102Q266 102 284 114T315 150T328 208V225Q294 218 271 210T235 191T216 169T210 143Q210 121 221 112T247 102Z" />
<glyph unicode="b" horiz-adv-x="648" d="M251 108Q266 85 282 74T322 62Q339 62 357 69T392 94T417 147T427 236Q427 268 421 298T398 349T349 369Q327 369 307 355T273 307T259 217V79L251 108ZM325 -9Q269 -9 213 0T112 26T45 65Q58 80 63 103T69 161V539Q69
562 63 576T41 598T-5 609Q-5 628 -3 648T8 684Q58 684 101 689T176 701T224 717Q241 710 250 695T259 653V480Q259 446 257 427T250 384L236 322L211 318Q230 363 248 388T285 428Q298 438 317 446T361 461T413 467Q471 467 517 446T590 381T618 265Q618 182 582
121T480 25T325 -9Z" />
<glyph unicode="c" horiz-adv-x="484" d="M469 42Q443 18 397 5T295 -9Q213 -9 154 16T62 94T30 227Q30 287 58 342T142 432T283 467Q344 467 386 457T464 428Q457 400 454 370T451 296Q428 286 400 283T346 279Q346 337 330 366T288 395Q253 395 235 351T217
241Q217 203 229 167T270 107T346 83Q378 83 403 89T446 106Q457 95 463 79T469 42Z" />
<glyph unicode="d" horiz-adv-x="650" d="M325 467Q343 467 360 465T397 458V350Q382 373 366 384T326 396Q309 396 291 389T257 364T231 312T221 222Q221 190 227 160T251 109T299 89Q321 89 341 103T375 151T389 240L437 140Q418 95 400 70T363 30Q351 21 332
12T288 -3T235 -9Q178 -9 132 12T58 77T30 193Q30 276 67 337T170 433T325 467ZM579 196Q579 157 583 138T599 112T635 104Q639 82 637 62T624 25Q578 24 532 16T444 -9Q422 -1 414 13T406 48Q406 68 411 91T425 134L579 196ZM579 567V132H389V567H579ZM544 717Q561
710 570 695T579 653V536H389V539Q389 562 383 576T361 598T315 609Q315 628 317 648T328 684Q378 684 421 689T496 701T544 717Z" />
<glyph unicode="e" horiz-adv-x="545" d="M297 -9Q201 -9 143 21T57 104T30 224Q30 301 61 355T149 438T284 467Q362 467 412 440T488 364T514 248Q505 211 481 189Q448 189 410 189T332 188T252 185T175 180V259H349Q349 327 334 360T287 393Q264 393 249 376T226
328T218 255Q218 202 231 163T274 104T352 83Q388 83 424 94T482 121Q493 114 501 94T509 52Q468 24 417 8T297 -9Z" />
<glyph unicode="f" horiz-adv-x="440" d="M409 448Q409 424 407 401T399 365Q370 365 345 362T290 349V448H409ZM102 477Q102 559 134 612T223 691T353 717Q395 717 438 708T504 684Q499 655 498 615T499 546Q480 538 444 535T380 533Q380 584 367 612T332 641Q318
641 309 631T296 594T292 511V132H102V477ZM128 448V348Q97 360 71 364T27 369Q27 390 30 412T41 448H128ZM292 197Q292 154 302 129T335 91T401 75Q407 59 408 38T410 -3Q391 -2 361 -2T296 -1T230 0Q176 0 120 0T28 -3Q28 24 29 42T35 75Q62 77 76 85T96 117T102
187V227H292V197Z" />
<glyph unicode="g" horiz-adv-x="584" d="M227 -249Q145 -249 100 -233T38 -191T20 -136Q20 -98 43 -70T115 -31L196 -49Q175 -69 170 -79T164 -103Q164 -139 187 -155T265 -171Q327 -171 360 -154T394 -108Q394 -97 387 -92T362 -84T308 -81Q266 -80 221 -77T138
-62T76 -24T52 49Q52 98 76 126T126 173L222 152Q211 148 202 142T193 124Q193 107 217 101T279 95T361 94Q412 93 456 84T528 48T556 -35Q556 -84 534 -123T469 -191T365 -234T227 -249ZM269 141Q190 141 138 159T59 214T33 303Q33 358 59 394T136 448T257 467Q325
467 374 452T455 411T502 354T517 290Q517 247 490 214T409 161T269 141ZM283 211Q310 211 323 233T336 300Q336 353 320 379T273 406Q246 406 233 384T220 317Q220 265 236 238T283 211ZM569 368Q551 375 535 379T502 386T468 389L349 458H556Q564 441 566 418T569
368Z" />
<glyph unicode="h" horiz-adv-x="704" d="M620 162Q620 113 629 94T663 75Q670 59 672 41T674 -3Q652 -2 611 -1T535 0Q512 0 479 0T417 -1T372 -3Q372 18 373 37T382 75Q403 75 416 96T430 173V242Q430 299 415 322T368 345Q344 345 325 325T295 271T284 190V162Q284
110 296 93T331 75Q339 56 340 38T342 -3Q327 -2 300 -2T244 -1T189 0Q165 0 131 0T66 -1T20 -3Q20 20 22 41T30 75Q69 75 81 93T94 162V270L284 403Q284 391 281 375T272 342Q280 362 289 379T311 409Q335 433 369 447T446 462Q491 462 531 446T595 393T620 299V162ZM94
539Q94 562 88 576T66 598T20 609Q20 628 22 648T33 684Q83 684 126 689T201 701T249 717Q266 710 275 695T284 653V536H94V539ZM94 567H284V403L94 233V567Z" />
<glyph unicode="i" horiz-adv-x="400" d="M32 -3Q32 22 34 41T41 75Q81 77 93 94T106 162V289Q106 312 100 326T78 348T32 359Q32 378 34 398T45 434Q95 434 138 439T213 451T261 467Q278 460 287 445T296 403V162Q296 112 309 95T362 75Q367 61 368 42T370 -3Q358
-2 331 -2T270 -1T201 0Q167 0 133 0T71 -1T32 -3ZM185 515Q138 515 111 537T83 596Q83 640 114 662T192 685Q245 685 272 663T300 598Q300 561 270 538T185 515Z" />
<glyph unicode="j" horiz-adv-x="335" d="M62 -249Q43 -239 31 -219T15 -175Q48 -142 66 -112T93 -46T101 37V289Q101 312 95 326T73 348T27 359Q27 378 29 398T40 434Q90 434 133 439T208 451T256 467Q273 460 282 445T291 403V83Q291 17 269 -36T211 -131T137
-202T62 -249ZM180 515Q133 515 106 537T78 596Q78 640 109 662T187 685Q240 685 267 663T295 598Q295 561 265 538T180 515Z" />
<glyph unicode="k" horiz-adv-x="662" d="M20 -3Q20 22 22 41T29 75Q69 77 81 94T94 162V539Q94 562 88 576T66 598T20 609Q20 628 22 648T33 684Q83 684 126 689T201 701T249 717Q266 710 275 695T284 653V162Q284 114 293 96T329 75Q334 61 335 42T337 -3Q318
-1 274 -1T183 0Q152 0 119 0T59 -1T20 -3ZM444 -9Q425 20 391 66T317 162T238 256L229 216L350 322Q373 342 379 351T386 366Q386 374 381 378T360 383Q353 403 350 422T347 460Q359 460 386 460T449 459T517 458Q545 458 568 458T611 460Q611 438 609 420T599
383Q570 381 550 376T511 358T468 323L404 264L386 327Q445 281 492 230T579 120Q591 104 601 95T621 81T647 75Q647 57 644 37T633 0Q608 0 572 -1T501 -3T444 -9Z" />
<glyph unicode="l" horiz-adv-x="378" d="M20 -3Q20 22 22 41T29 75Q69 77 81 94T94 162V549Q94 568 87 580T64 599T20 609Q20 628 22 648T33 684Q83 684 126 689T201 701T249 717Q266 710 275 695T284 653V162Q284 112 297 95T350 75Q355 61 356 42T358 -3Q346
-2 319 -2T258 -1T189 0Q155 0 121 0T59 -1T20 -3Z" />
<glyph unicode="m" horiz-adv-x="1042" d="M32 -3Q32 18 34 38T42 74Q83 77 94 94T106 162V255Q106 296 102 317T83 347T34 359Q34 377 37 396T48 434Q90 434 131 438T207 449T262 467Q276 463 286 447T296 403Q296 384 290 364T270 296H265Q286 349 298 373T323
409Q348 434 383 449T458 465Q509 465 547 445T606 389Q623 362 623 337H617Q638 391 664 413Q687 435 717 447T785 459Q843 459 881 441T938 385T958 283V210Q958 150 960 122T972 86T1002 75Q1008 58 1010 38T1012 -3Q985 -1 948 -1T872 0Q846 0 816 0T757 -1T711
-3Q711 22 713 39T719 75Q736 76 747 85T763 122T768 200V245Q768 304 754 324T716 345Q687 345 667 326T637 272T627 190V168Q627 117 636 97T677 75Q682 61 684 40T687 -3Q664 -1 621 -1T535 0Q492 0 449 0T378 -3Q378 18 380 39T388 75Q409 77 420 85T435 122T439
210V256Q439 306 425 325T380 345Q355 345 336 324T307 268T296 190V168Q296 113 305 95T344 75Q350 59 352 39T354 -3Q339 -1 309 -1T247 0T189 0Q164 0 133 0T74 0T32 -3Z" />
<glyph unicode="n" horiz-adv-x="716" d="M106 204V270Q106 303 102 321T83 347T35 359Q35 378 37 398T48 434Q122 434 180 444T262 467Q279 460 287 445T296 403L106 204ZM632 162Q632 113 641 94T675 75Q682 59 684 41T686 -3Q664 -2 623 -1T547 0Q524 0 491
0T429 -1T384 -3Q384 18 385 37T394 75Q415 75 428 96T442 173V242Q442 299 427 322T380 345Q356 345 337 325T307 271T296 190V162Q296 110 308 93T343 75Q351 56 352 38T354 -3Q339 -2 312 -2T256 -1T201 0Q177 0 143 0T78 -1T32 -3Q32 20 34 41T42 75Q81 75
93 93T106 162V270L296 403Q296 391 293 375T284 342Q292 362 301 379T323 409Q347 433 381 447T458 462Q503 462 543 446T607 393T632 299V162Z" />
<glyph unicode="o" horiz-adv-x="608" d="M298 -9Q209 -9 149 19T60 98T30 220Q30 305 67 359T167 440T307 467Q399 467 459 437T548 356T578 237Q578 159 545 104T448 20T298 -9ZM317 68Q351 68 369 107T388 204Q388 269 374 311T339 374T292 395Q255 395 238
355T220 258Q220 207 230 164T263 94T317 68Z" />
<glyph unicode="p" horiz-adv-x="685" d="M32 -245Q32 -218 33 -200T39 -167Q66 -165 80 -157T100 -125T106 -55V270Q106 303 102 321T83 347T35 359Q35 378 37 398T48 434Q122 434 180 444T262 467Q279 460 287 445T296 403Q296 397 292 382T278 348L296 326V-45Q296
-88 306 -113T339 -151T405 -167Q411 -183 412 -204T414 -245Q395 -244 365 -244T300 -243T234 -242Q180 -242 124 -242T32 -245ZM360 -9Q342 -9 325 -7T288 0V108Q303 85 319 74T359 62Q376 62 394 69T429 94T454 146T464 236Q464 268 458 298T435 349T386 369Q364
369 344 355T310 307T296 218L248 318Q267 363 285 388T322 428Q335 438 354 446T398 461T450 467Q508 467 554 446T627 381T655 265Q655 182 618 121T515 25T360 -9Z" />
<glyph unicode="q" horiz-adv-x="647" d="M325 467Q413 467 484 448T600 393L388 360Q381 376 365 385T325 395Q283 395 252 356T221 219Q221 169 230 140T256 99T299 86Q321 86 341 100T374 148T388 237L407 101Q397 80 385 64T359 37Q337 18 302 8T226 -2Q166
-2 122 22T54 92T30 200Q30 283 67 343T171 435T325 467ZM275 -168Q321 -165 345 -154T379 -117T388 -41V-20Q388 16 391 44T404 104L388 119V393H600Q592 371 587 350T580 300T578 225V-35Q578 -90 582 -117T599 -154T639 -168Q644 -187 645 -205T647 -245Q615
-243 562 -243T462 -242Q425 -242 387 -242T316 -242T266 -245Q266 -223 267 -205T275 -168Z" />
<glyph unicode="r" horiz-adv-x="526" d="M296 197Q296 154 306 129T339 91T405 75Q411 59 412 38T414 -3Q395 -2 365 -2T300 -1T234 0Q180 0 124 0T32 -3Q32 24 33 42T39 75Q66 77 80 85T100 117T106 187V227H296V197ZM296 296V204H106V312L296 403Q296 387 291
364T276 298L296 296ZM274 295Q280 313 290 341T307 381Q329 416 363 439T437 462Q477 462 511 438Q507 415 504 385T500 324T501 268Q481 259 449 257T395 254Q394 287 385 302T356 318Q343 318 329 302T306 262T296 209L274 295ZM106 204V270Q106 303 102 321T83
347T35 359Q35 378 37 398T48 434Q122 434 180 444T262 467Q279 460 287 445T296 403L106 204Z" />
<glyph unicode="s" horiz-adv-x="493" d="M421 438Q420 411 421 384T426 330Q409 320 382 314T327 307Q324 331 315 349T289 379T245 390Q229 390 220 381T210 358Q210 347 216 337T243 313T310 281Q369 257 402 236T449 190T463 134Q463 87 436 55T357 7T230
-9Q166 -9 122 -1T36 24Q39 45 40 67T41 111T38 148Q56 159 85 164T139 170Q144 121 166 96T219 71Q239 71 253 80T267 107Q267 121 260 132T235 154T181 178Q141 193 109 212T59 260T40 334Q40 368 54 393T95 434T160 459T245 467Q305 467 345 460T421 438Z" />
<glyph unicode="t" horiz-adv-x="399" d="M241 -9Q162 -9 121 32T80 174V357Q64 364 46 366T5 369Q5 392 8 410T19 448H80V563Q125 568 169 584T238 620Q256 613 263 599T270 550V448H387Q387 422 385 404T377 368Q346 368 320 364T270 350V186Q270 140 274 117T289
86T317 78Q329 78 345 81T374 89Q389 67 389 25Q367 10 326 1T241 -9Z" />
<glyph unicode="u" horiz-adv-x="653" d="M235 -7Q159 -7 118 34T77 181V270Q77 319 67 337T15 359Q15 378 17 398T28 434Q102 434 155 444T233 467Q250 460 258 445T267 403V207Q267 140 278 118T310 96Q342 96 367 132T392 246V275Q392 324 379 342T321 364Q321
383 323 403T334 439Q408 439 466 447T548 467Q565 460 573 445T582 403V134L416 99Q409 77 400 62T378 36Q359 19 322 6T235 -7ZM447 -9Q425 -1 417 13T409 48Q409 68 414 90T424 124L582 196Q582 157 586 138T602 112T638 104Q642 82 640 62T627 25Q581 24 535
16T447 -9Z" />
<glyph unicode="v" horiz-adv-x="583" d="M240 -9Q225 26 209 62T176 134T143 204T111 268T82 325Q71 346 62 357T44 374T21 383Q17 397 14 419T10 461Q33 460 76 459T166 458Q197 458 229 458T290 459T334 461Q334 442 331 420T323 383Q290 379 285 366T297 318Q308
293 317 271T336 225T353 176T371 121H330Q350 180 368 224T409 318Q424 353 417 366T378 383Q374 397 371 419T367 461Q387 460 412 459T468 458Q499 458 525 459T573 461Q573 442 570 419T560 383Q543 379 531 373T510 354T492 319L353 6Q334 -4 302 -8T240 -9Z"
/>
<glyph unicode="w" horiz-adv-x="797" d="M192 -9Q179 35 162 87T128 189T99 276T82 325Q71 354 57 368T22 383Q18 397 14 418T10 461Q48 460 84 459T156 458Q197 458 242 459T325 461Q325 439 322 419T313 384Q294 383 287 378T281 358T291 312Q302 273 311 226T326
112H276L417 455Q434 461 456 462T499 464Q537 376 570 286T632 110L580 107L636 312Q643 337 641 351T630 373T602 384Q596 402 594 421T591 461Q611 460 633 459T687 458Q718 458 741 459T787 461Q787 445 784 422T775 384Q758 381 748 374T730 353T716 319L614
0Q603 -4 581 -6T537 -8T502 -9Q475 51 456 96T423 181T401 267L451 305L307 0Q296 -4 274 -6T229 -8T192 -9Z" />
<glyph unicode="x" horiz-adv-x="607" d="M288 237L236 158Q206 112 202 96T212 75Q218 58 219 41T220 -2Q200 0 172 0T118 0Q93 0 67 0T25 -2Q25 21 28 40T37 75Q52 76 63 83T92 111T140 179L208 281L288 237ZM259 149Q249 166 245 174T226 200L195 206Q174 245
149 283T101 350Q93 361 85 367T65 378T38 383Q33 400 30 420T27 460Q58 459 99 459T184 458Q228 458 273 458T351 460Q351 441 349 418T343 383Q322 382 322 370T344 321Q355 304 363 291T382 259L422 248Q437 226 450 207T475 167Q497 132 511 113T539 87T571
77Q577 61 579 42T582 0Q559 2 537 1T474 0Q453 0 422 0T358 0T298 0T256 -2Q256 24 258 42T265 75Q282 79 283 93T259 149ZM341 249L390 323Q412 356 413 367T396 383Q391 397 388 417T385 460Q411 459 434 459T487 458Q517 458 534 458T575 460Q575 438 573 419T564
383Q549 382 540 378T520 362T495 327L412 203L341 249Z" />
<glyph unicode="y" horiz-adv-x="579" d="M404 298Q424 345 418 362T384 383Q379 397 376 418T373 461Q396 460 423 459T474 458Q499 458 523 459T569 462Q569 444 566 422T556 383Q541 379 530 372T510 351T490 313L343 -37Q315 -105 291 -147T244 -211T198 -241T148
-249Q115 -249 83 -234T34 -195Q31 -175 34 -144T47 -87Q64 -94 95 -100T163 -106Q198 -106 217 -97T252 -63Q258 -54 281 -5T335 124L404 298ZM259 -59Q234 2 204 68T144 200T87 319Q75 345 65 357T44 375T20 383Q15 398 13 420T10 461Q39 460 80 459T163 458Q207
458 255 459T334 461Q334 442 331 419T322 383Q285 377 281 363T299 307Q314 279 327 248T353 183T377 108L259 -59Z" />
<glyph unicode="z" horiz-adv-x="518" d="M61 -2Q52 12 46 32T40 72Q66 105 92 141T145 213T197 286T244 356T284 420L324 383H223Q200 383 186 375T164 346T150 286Q122 285 93 288T43 302Q50 337 52 380T55 461Q76 460 106 460T177 459T268 458Q320 458 355
458T416 459T464 461Q472 450 476 433T480 398Q455 356 428 313T371 225T309 136T244 46L210 75H313Q344 75 360 86T382 123T392 191Q418 193 442 191T490 180Q490 155 491 125T493 68T498 22Q487 -2 451 -2Q429 -2 392 -2T317 -1T250 0Q184 0 136 0T61 -2Z" />
<glyph unicode="{" horiz-adv-x="423" d="M358 -283Q288 -272 244 -251T175 -200T142 -137T131 -69Q130 -33 133 3T136 73Q135 120 116 157T35 213Q35 222 35 244T40 275Q98 294 117 328T138 405Q139 440 134 478T130 555Q131 587 139 617T169 672T233 719T345
754Q358 744 362 724T366 685Q315 669 298 637T282 564Q283 520 294 471T305 378Q305 346 294 319T252 273T166 246Q222 238 252 218T294 170T306 109Q307 64 297 14T286 -80Q285 -122 302 -155T372 -203Q378 -222 375 -243T358 -283Z" />
<glyph unicode="|" horiz-adv-x="209" d="M60 -249V701Q71 708 98 712T149 716Q149 657 149 579T147 413T146 234Q146 147 147 60T148 -104T149 -238Q134 -244 108 -246T60 -249Z" />
<glyph unicode="}" horiz-adv-x="423" d="M65 -283Q51 -264 48 -243T51 -203Q104 -188 121 -155T137 -80Q136 -36 126 14T117 109Q118 142 129 170T171 218T257 246Q201 254 171 272T130 318T118 378Q118 422 129 471T141 564Q142 604 125 636T57 685Q57 703 61
723T78 754Q147 740 189 719T254 673T284 617T293 555Q294 517 289 479T285 405Q287 362 306 328T383 275Q387 266 387 244T388 213Q327 194 308 157T287 73Q286 39 289 3T292 -69Q291 -103 282 -136T248 -199T180 -250T65 -283Z" />
<glyph unicode="~" horiz-adv-x="550" d="M90 165Q73 172 60 182T38 211Q81 293 120 321T192 349Q218 349 241 338T288 313T333 287T379 276Q400 276 418 290T460 339Q474 334 489 321T512 295Q484 241 459 214T411 177T371 167Q344 167 321 178T275 205T232 232T186
244Q161 244 137 227T90 165Z" />
<glyph unicode="&#xa0;" horiz-adv-x="200" />
<glyph unicode="&#xa1;" horiz-adv-x="411" d="M113 -176Q119 -132 126 -69T139 65T152 201Q177 209 203 211T255 214Q261 141 269 69T288 -74T310 -216Q283 -218 252 -224T192 -240T141 -258Q120 -253 114 -235T113 -176ZM101 361Q101 404 128 435T205 467Q253
467 280 440T308 366Q308 319 277 293T199 267Q154 267 128 296T101 361Z" />
<glyph unicode="&#xa2;" horiz-adv-x="484" d="M469 42Q443 18 397 5T295 -9Q213 -9 154 16T62 94T30 227Q30 287 58 342T142 432T283 467Q344 467 386 457T464 428Q457 400 454 370T451 296Q428 286 400 283T346 279Q346 337 330 366T288 395Q253 395 235 351T217
241Q217 203 229 167T270 107T346 83Q378 83 403 89T446 106Q457 95 463 79T469 42ZM334 -139Q312 -139 286 -137T245 -128V606Q269 606 296 602T334 591L332 409V41L334 -139Z" />
<glyph unicode="&#xa3;" horiz-adv-x="598" d="M500 231Q525 227 549 213T583 185Q547 134 527 86T495 -9Q456 -9 427 -4T369 11Q338 23 312 30T263 40T221 43Q182 43 145 32T75 -8Q59 3 47 20T30 57Q89 95 110 139T132 238Q132 284 122 314T98 369T74 426T63
507Q63 561 94 601T187 663T339 685Q367 685 404 682T477 672T535 653Q531 622 529 584T529 507Q501 494 469 491T402 488Q395 553 378 579T323 606Q297 606 283 589T268 540Q268 509 279 487T306 445T332 398T344 333Q344 304 326 268T276 194T208 122T132 62L125
68Q176 108 224 141T314 194T389 214Q411 214 422 210T440 202T458 198Q472 198 481 205T500 231ZM258 292Q217 292 174 291T95 290T39 288Q39 310 42 332T55 373H448Q448 350 446 330T433 289Q400 290 350 291T258 292Z" />
<glyph unicode="&#xa4;" horiz-adv-x="580" d="M520 78Q510 65 495 57T456 46L350 150L399 195L520 78ZM292 80Q238 80 197 105T132 173T109 262Q109 315 135 354T202 414T292 436Q341 436 381 414T445 352T470 262Q470 215 453 181T409 124T351 91T292 80ZM364
379L447 464Q468 460 481 453T507 430L410 334L364 379ZM60 429Q73 443 87 450T122 460L208 376L161 328L60 429ZM284 374Q242 374 216 345T190 267Q190 238 204 210T242 164T296 145Q338 145 364 175T390 255Q390 284 376 311T339 356T284 374ZM229 139L135 43Q113
44 97 52T70 71L176 182L229 139Z" />
<glyph unicode="&#xa5;" horiz-adv-x="634" d="M423 261V198Q423 149 430 124T458 88T522 75Q529 54 530 38T532 -3Q489 -1 432 -1T318 0Q281 0 244 0T171 -1T105 -3Q106 19 108 39T117 75Q165 79 187 87T216 121T223 199V261H423ZM365 120L286 119L84 542Q68
574 52 586T18 601Q14 618 12 635T10 678Q34 677 66 677T128 676T178 676Q197 676 229 676T293 676T346 678Q346 652 344 635T339 601Q308 597 307 575T320 518Q334 485 353 435T392 331H387Q409 387 429 435T466 524Q480 557 473 578T437 601Q433 618 431 635T428
678Q455 677 478 677T531 676Q554 676 577 676T624 678Q624 653 622 634T615 601Q597 597 582 581T545 517L365 120ZM248 312L85 311Q85 334 87 353T96 388H222L248 312ZM230 176H88Q88 198 90 216T100 253H230V176ZM407 253H557Q557 230 554 212T545 176H407V253ZM441
388H559Q559 365 557 348T548 311L417 312L441 388Z" />
<glyph unicode="&#xa6;" horiz-adv-x="207" d="M60 -249V167Q81 177 100 180T147 183Q146 131 146 80T145 -22Q145 -74 145 -127T147 -233Q134 -241 107 -245T60 -249ZM60 304V701Q80 710 102 713T147 717Q146 666 146 616T145 514Q145 465 145 417T147 320Q128
311 105 308T60 304Z" />
<glyph unicode="&#xa7;" horiz-adv-x="609" d="M325 153Q277 180 250 198T209 229T192 255T188 281Q188 292 196 307T231 334T312 350L231 410Q197 402 162 389T96 355T48 301T30 220Q30 176 46 138T100 67T198 5Q271 -29 304 -51T348 -89T358 -121Q358 -143 341
-154T291 -165Q274 -165 257 -156T226 -126T206 -71Q184 -71 163 -74T125 -83Q128 -111 128 -149T125 -217Q154 -231 193 -236T290 -242Q351 -242 397 -222T469 -165T495 -83Q495 -32 480 7T427 81T325 153ZM355 62Q390 70 425 83T490 117T538 171T556 252Q556
297 540 334T487 405T389 467Q316 502 282 524T238 561T228 593Q228 615 245 626T295 637Q321 637 346 616T380 543Q402 543 423 546T461 555Q458 584 458 622T461 689Q432 703 393 708T297 714Q236 714 190 694T117 638T91 555Q91 505 106 465T159 391T261 319Q309
292 336 274T377 243T394 217T398 191Q398 180 390 165T355 138T274 122L355 62Z" />
<glyph unicode="&#xa8;" horiz-adv-x="300" d="M537 506Q487 506 462 531T436 596Q436 634 462 655T532 676Q574 676 601 653T629 596Q629 561 608 534T537 506ZM280 506Q237 506 210 529T183 586Q183 621 205 648T277 676Q328 676 351 651T374 588Q374 554 348
530T280 506Z" />
<glyph unicode="&#xa9;" horiz-adv-x="814" d="M407 577Q479 577 542 551T652 477T727 366T754 230Q754 157 727 94T653 -16T542 -90T407 -117Q333 -117 270 -91T160 -17T86 93T60 230Q60 303 86 366T160 476T271 550T407 577ZM422 453Q463 453 496 444T560 417Q556
390 555 357T553 297Q537 289 519 286T484 282Q481 315 473 338T450 372T413 384Q393 384 381 370T363 326T357 250Q357 206 365 168T393 107T447 84Q469 84 491 93T534 121Q545 114 553 99T562 65Q536 41 497 23T399 5Q347 5 302 30T230 106T203 228Q203 296 229
346T304 425T422 453ZM407 510Q348 510 297 489T208 429T149 340T127 230Q127 151 164 88T264 -12T407 -49Q466 -49 517 -28T606 32T665 120T687 230Q687 289 666 340T606 429T517 488T407 510Z" />
<glyph unicode="&#xaa;" horiz-adv-x="440" d="M261 359Q245 364 237 372T229 397Q229 407 231 417T237 436Q234 424 225 409T206 386Q193 374 175 367T133 360Q30 360 30 451Q30 496 56 522T127 562T223 586Q223 614 221 627T213 650Q202 667 181 667Q171 667
164 659T153 633T145 586Q121 586 101 587T62 595Q64 617 63 638T57 678Q82 694 118 706T196 718Q255 718 284 708T332 677Q348 659 354 634T361 562V507Q361 467 368 456T403 443Q406 427 405 413T395 386Q361 385 328 379T261 359ZM180 440Q195 440 209 461T223
524V538Q201 534 188 527T168 508T162 474Q162 455 167 448T180 440Z" />
<glyph unicode="&#xab;" horiz-adv-x="504" d="M209 416Q234 416 253 410T288 392Q269 370 253 350T222 311T194 268Q214 223 235 185T281 113Q270 97 251 81T212 55Q168 104 135 141T60 213Q60 238 64 257T77 295Q112 324 145 354T209 416ZM404 407Q429 404 451
397T487 378Q465 343 446 313T409 250Q427 217 447 186T487 131Q481 117 459 97T409 62Q375 106 346 137T278 205Q278 233 281 254T291 295Q326 324 351 349T404 407Z" />
<glyph unicode="&#xac;" horiz-adv-x="550" d="M502 367L491 283Q377 283 272 283T48 279Q48 298 51 322T59 367H502ZM427 347L502 367V135Q483 125 468 120T427 115V347Z" />
<glyph unicode="&#xad;" horiz-adv-x="419" d="M359 306Q359 287 357 261T346 209Q315 209 281 209T210 208T136 206T60 201Q60 222 64 251T77 306H359Z" />
<glyph unicode="&#xae;" horiz-adv-x="571" d="M287 359Q224 359 173 388T91 469T60 584Q60 648 90 699T171 780T286 810Q350 810 400 780T481 699T511 584Q511 520 482 469T401 389T287 359ZM286 417Q334 417 372 439T431 499T453 584Q453 632 431 670T372 730T286
752Q239 752 201 730T140 670T118 584Q118 537 140 499T200 439T286 417ZM320 483Q316 500 309 515T292 543H266V484Q237 478 210 484V682Q231 688 252 690T286 692Q331 692 352 676T374 624Q374 591 355 573T299 550L327 563Q345 553 359 533T385 489Q355 480
320 483ZM289 578Q302 578 308 587T314 616Q314 636 308 645T287 655Q283 655 278 654T266 651V583Q273 581 278 580T289 578Z" />
<glyph unicode="&#xaf;" horiz-adv-x="300" d="M214 563Q214 578 216 597T223 631H598Q598 621 596 605T589 573Q537 573 476 572T349 569T214 563Z" />
<glyph unicode="&#xb0;" horiz-adv-x="436" d="M216 699Q293 699 334 659T376 559Q376 498 333 457T216 415Q142 415 101 455T60 558Q60 598 80 630T135 680T216 699ZM211 641Q193 641 182 622T170 577Q170 531 187 503T228 475Q244 475 255 493T266 548Q266 592
252 616T211 641Z" />
<glyph unicode="&#xb1;" horiz-adv-x="550" d="M57 39Q57 57 59 83T66 120H493Q493 96 492 77T483 41Q444 41 420 41T376 42T336 42T284 42Q223 42 172 42T57 39ZM86 287Q86 307 88 333T95 371H464Q464 346 463 326T454 289Q421 290 399 290T351 289T281 289Q249
289 202 289T86 287ZM230 153Q230 183 230 203T231 242T232 287T233 353Q233 378 233 400T233 448T231 503Q250 510 272 511T320 513V163Q313 160 297 158T262 154T230 153Z" />
<glyph unicode="&#xb2;" horiz-adv-x="387" d="M49 408Q41 421 38 432T35 460Q50 477 70 495T108 529Q156 573 175 599T195 655Q195 675 188 688T163 702Q149 702 139 685T124 615Q104 615 82 617T45 625Q48 651 48 685T44 745Q78 758 115 762T183 767Q228 767
264 759T321 730T343 673Q343 639 325 615T286 577Q257 558 241 547T203 518H233Q268 518 276 525T286 556Q306 556 324 555T359 548Q359 522 359 489T365 428Q360 418 351 413T320 408Q308 408 272 409T184 410Q148 410 113 410T49 408Z" />
<glyph unicode="&#xb3;" horiz-adv-x="407" d="M142 288Q106 288 78 296T33 315Q35 331 43 349T61 378Q73 372 96 368T147 363Q171 363 190 370T220 394T231 438Q231 464 217 482T178 501Q171 501 166 501T156 498Q147 505 138 521T125 551Q148 577 165 600T198
648H158Q138 648 126 640T105 609Q89 609 72 612T48 620Q56 652 58 693T61 759Q78 758 118 758T204 758Q248 758 278 758T322 759Q328 749 331 738T334 711Q311 683 286 648T231 567Q270 567 300 555T347 515T364 443Q364 402 340 367T267 310T142 288Z" />
<glyph unicode="&#xb4;" horiz-adv-x="300" d="M389 530Q362 530 335 536T292 550Q315 594 329 630T353 706Q373 713 400 716T455 719Q472 719 489 718T519 715Q480 669 447 623T389 530Z" />
<glyph unicode="&#xb5;" horiz-adv-x="678" d="M262 107V-40Q262 -84 266 -125T278 -192Q233 -199 197 -212T121 -250Q105 -243 97 -232T83 -204Q89 -190 91 -176T93 -134T94 -53V200L262 107ZM470 -9Q450 5 442 24T433 66Q433 77 436 91T447 129T470 196H599Q599
157 603 138T621 111T665 101Q665 82 663 63T652 26Q612 25 581 21T524 9T470 -9ZM409 275Q409 324 396 342T338 364Q338 383 340 403T351 439Q425 439 483 447T565 467Q582 460 590 445T599 403V134L439 99Q424 60 394 36Q369 17 335 5T257 -7Q177 -7 136 33T94
181V270Q94 319 84 337T32 359Q32 378 34 398T45 434Q119 434 172 444T250 467Q267 460 275 445T284 403V204Q284 154 289 129T304 95T331 86Q349 86 367 103T397 155T409 246V275Z" />
<glyph unicode="&#xb6;" horiz-adv-x="630" d="M448 -248V643L467 594Q444 602 420 604T366 607Q317 607 288 596T246 559T233 491Q233 445 249 417T289 375T337 362H352L357 293Q338 289 326 288T298 287Q211 287 153 305T66 365T37 481Q37 540 66 585T163 656T341
682Q382 682 420 680T490 677Q516 677 548 677T603 681Q603 662 602 641T595 602Q566 601 552 591T533 558T528 491V-231Q509 -242 489 -245T448 -248ZM327 -248V649L406 656L407 -231Q389 -242 368 -245T327 -248Z" />
<glyph unicode="&#xb7;" horiz-adv-x="327" d="M163 160Q115 160 88 187T60 261Q60 308 91 334T169 360Q214 360 240 331T267 266Q267 223 240 192T163 160Z" />
<glyph unicode="&#xb8;" horiz-adv-x="300" d="M66 -242Q61 -231 59 -217T57 -191Q89 -191 112 -180T135 -147Q135 -130 119 -120T77 -110Q69 -100 64 -88T59 -63L124 16H198L153 -43Q197 -50 219 -77T242 -138Q242 -171 222 -194T162 -230T66 -242Z" />
<glyph unicode="&#xb9;" horiz-adv-x="353" d="M50 407Q50 429 51 447T57 481Q88 484 97 498T106 550V610Q106 648 96 665T56 686Q52 704 51 723T50 761Q61 760 86 760T139 759T179 758Q192 758 216 758T265 759T303 761Q303 742 302 724T297 686Q267 683 257
666T247 610V550Q247 512 256 498T296 481Q303 452 303 407Q288 408 265 408T218 409T179 410Q164 410 140 410T91 409T50 407Z" />
<glyph unicode="&#xba;" horiz-adv-x="453" d="M174 559Q174 522 180 490T200 437T234 417Q253 417 263 446T274 516Q274 591 256 625T216 660Q195 660 185 630T174 559ZM30 529Q30 594 56 635T128 697T227 717Q325 717 372 668T419 543Q419 453 367 405T220 357Q123
357 77 403T30 529Z" />
<glyph unicode="&#xbb;" horiz-adv-x="506" d="M97 62Q74 73 54 91T23 127Q46 157 61 181T92 237Q76 272 59 303T17 375Q28 384 52 393T102 407Q124 383 139 367T170 335T212 296Q222 273 224 252T226 207Q189 167 159 134T97 62ZM289 53Q270 63 253 78T226 113Q252
146 272 175T310 234Q296 261 283 285T255 335T221 388Q234 398 256 405T300 412Q325 388 343 371T381 336T429 295Q439 276 442 257T446 215Q404 175 364 134T289 53Z" />
<glyph unicode="&#xbc;" horiz-adv-x="939" d="M253 730Q269 726 275 716T282 680V423Q282 386 287 370T308 348T356 339Q359 326 360 311T362 279Q341 280 311 280T251 280T199 281Q167 281 123 281T47 279Q47 293 48 309T53 339Q88 343 105 347T129 368T135
423V561Q135 591 130 604T105 622T42 626Q42 644 43 661T49 694Q116 695 162 703T253 730ZM291 -9Q268 -9 241 -2T205 18L719 717Q742 717 766 709T803 688L291 -9ZM635 -2Q635 17 636 34T642 66Q679 67 695 73T711 102V376L755 384L592 158L584 206H874Q892 206
901 201T917 183Q910 173 906 150T899 110Q823 110 760 110T649 108T566 105Q537 142 538 197Q579 246 611 286T674 366T738 451Q753 453 773 453T814 450T846 443V102Q846 86 851 79T867 69T898 66Q903 48 903 32T904 -2Q885 -1 859 -1T807 0T765 0Q749 0 726
0T678 0T635 -2Z" />
<glyph unicode="&#xbd;" horiz-adv-x="1045" d="M253 730Q269 726 275 716T282 680V423Q282 386 287 370T308 348T356 339Q359 326 360 311T362 279Q341 280 311 280T251 280T199 281Q167 281 123 281T47 279Q47 293 48 309T53 339Q88 343 105 347T129 368T135
423V561Q135 591 130 604T105 622T42 626Q42 644 43 661T49 694Q116 695 162 703T253 730ZM291 -9Q268 -9 241 -2T205 18L719 717Q742 717 766 709T803 688L291 -9ZM674 -2Q649 36 649 96Q666 115 682 131T715 161T746 189Q788 225 807 253T826 322Q826 348 819
362T794 377Q784 377 774 368T758 336T751 266Q722 265 697 268T645 282Q652 311 654 350T656 423Q687 435 734 442T834 449Q882 449 919 441T979 410T1001 344Q1001 295 972 259T891 193Q869 180 853 170T823 150T792 123L786 145H852Q883 145 898 148T920 160T930
188Q951 189 975 187T1014 180Q1013 146 1015 103T1023 34Q1013 14 999 6T953 -2Q943 -2 920 -2T870 -1T817 0Q791 0 755 0T674 -2Z" />
<glyph unicode="&#xbe;" horiz-adv-x="900" d="M150 274Q105 274 74 283T25 308Q26 323 31 337T46 362Q60 352 78 346T122 339Q162 339 181 356T201 399Q201 418 190 433T151 448Q139 448 128 444Q117 456 112 472T107 503Q139 536 163 563T213 627L247 596H154Q130
596 117 588T92 550Q74 550 57 552T28 563Q34 598 36 642T39 727Q62 726 104 725T188 724Q229 724 266 725T322 727Q329 717 333 701T337 668Q304 628 270 585T207 504L176 531Q235 534 274 524T332 488T352 422Q352 353 299 314T150 274ZM252 -9Q229 -9 202 -2T166
18L680 717Q703 717 727 709T764 688L252 -9ZM596 -2Q596 17 597 34T603 66Q640 67 656 73T672 102V376L716 384L553 158L545 206H835Q853 206 862 201T878 183Q871 173 867 150T860 110Q784 110 721 110T610 108T527 105Q498 142 499 197Q540 246 572 286T635
366T699 451Q714 453 734 453T775 450T807 443V102Q807 86 812 79T828 69T859 66Q864 48 864 32T865 -2Q846 -1 820 -1T768 0T726 0Q710 0 687 0T639 0T596 -2Z" />
<glyph unicode="&#xbf;" horiz-adv-x="537" d="M222 -259Q126 -259 81 -226T35 -137Q35 -94 51 -65T92 -15T140 26T181 71T198 133Q198 155 194 174T183 216Q199 225 225 230T273 235Q298 220 315 184T333 107Q333 70 322 45T295 3T263 -31T236 -67T225 -116Q225
-152 238 -167T270 -182Q283 -182 293 -171T312 -132T327 -48Q360 -48 383 -53T429 -71Q426 -107 426 -145T429 -214Q394 -231 342 -245T222 -259ZM234 466Q282 466 309 439T337 365Q337 318 306 292T228 266Q183 266 157 295T130 360Q130 403 157 434T234 466Z"
/>
<glyph unicode="&#xc0;" horiz-adv-x="717" d="M388 682L610 195Q634 144 648 119T673 85T699 75Q703 62 705 42T707 -3Q687 -1 656 -1T596 0T550 0Q538 0 515 0T464 0T413 -1T374 -3Q374 25 376 42T382 75Q415 83 421 100T413 151L340 316Q313 376 297 429T273
528H310Q298 481 282 428T241 316L177 152Q168 130 175 105T215 75Q219 59 221 40T223 -3Q212 -2 191 -2T146 -1T106 0Q81 0 53 0T10 -3Q10 20 12 38T20 75Q36 78 48 87T72 117T100 176L312 676Q332 681 348 681T388 682ZM406 231L427 166Q360 166 289 164T146
153L161 231H406ZM313 735Q293 764 268 794T210 856Q239 870 278 876T354 882Q365 853 384 817T423 753Q401 745 373 740T313 735Z" />
<glyph unicode="&#xc1;" horiz-adv-x="717" d="M388 682L610 195Q634 144 648 119T673 85T699 75Q703 62 705 42T707 -3Q687 -1 656 -1T596 0T550 0Q538 0 515 0T464 0T413 -1T374 -3Q374 25 376 42T382 75Q415 83 421 100T413 151L340 316Q313 376 297 429T273
528H310Q298 481 282 428T241 316L177 152Q168 130 175 105T215 75Q219 59 221 40T223 -3Q212 -2 191 -2T146 -1T106 0Q81 0 53 0T10 -3Q10 20 12 38T20 75Q36 78 48 87T72 117T100 176L312 676Q332 681 348 681T388 682ZM406 231L427 166Q360 166 289 164T146
153L161 231H406ZM379 735Q348 735 324 740T277 753Q294 779 311 813T338 872Q361 877 385 879T432 882Q472 882 500 876Q465 839 435 805T379 735Z" />
<glyph unicode="&#xc2;" horiz-adv-x="717" d="M388 682L610 195Q634 144 648 119T673 85T699 75Q703 62 705 42T707 -3Q687 -1 656 -1T596 0T550 0Q538 0 515 0T464 0T413 -1T374 -3Q374 25 376 42T382 75Q415 83 421 100T413 151L340 316Q313 376 297 429T273
528H310Q298 481 282 428T241 316L177 152Q168 130 175 105T215 75Q219 59 221 40T223 -3Q212 -2 191 -2T146 -1T106 0Q81 0 53 0T10 -3Q10 20 12 38T20 75Q36 78 48 87T72 117T100 176L312 676Q332 681 348 681T388 682ZM406 231L427 166Q360 166 289 164T146
153L161 231H406ZM224 728Q199 731 181 747T157 781Q196 804 237 831T308 883Q329 890 351 892T398 894Q426 866 462 838T542 781Q526 761 505 747T448 725Q424 740 393 754T332 782Q316 774 297 766T258 748T224 728Z" />
<glyph unicode="&#xc3;" horiz-adv-x="717" d="M388 682L610 195Q634 144 648 119T673 85T699 75Q703 62 705 42T707 -3Q687 -1 656 -1T596 0T550 0Q538 0 515 0T464 0T413 -1T374 -3Q374 25 376 42T382 75Q415 83 421 100T413 151L340 316Q313 376 297 429T273
528H310Q298 481 282 428T241 316L177 152Q168 130 175 105T215 75Q219 59 221 40T223 -3Q212 -2 191 -2T146 -1T106 0Q81 0 53 0T10 -3Q10 20 12 38T20 75Q36 78 48 87T72 117T100 176L312 676Q332 681 348 681T388 682ZM406 231L427 166Q360 166 289 164T146
153L161 231H406ZM398 735Q370 735 352 742T319 759T291 776T257 784Q233 784 215 772T179 737Q161 754 153 771T142 813Q171 854 212 871T287 888Q321 888 344 877T388 854T432 842Q453 842 468 853T493 882Q513 878 529 870T558 848Q532 795 491 765T398 735Z"
/>
<glyph unicode="&#xc4;" horiz-adv-x="717" d="M388 682L610 195Q634 144 648 119T673 85T699 75Q703 62 705 42T707 -3Q687 -1 656 -1T596 0T550 0Q538 0 515 0T464 0T413 -1T374 -3Q374 25 376 42T382 75Q415 83 421 100T413 151L340 316Q313 376 297 429T273
528H310Q298 481 282 428T241 316L177 152Q168 130 175 105T215 75Q219 59 221 40T223 -3Q212 -2 191 -2T146 -1T106 0Q81 0 53 0T10 -3Q10 20 12 38T20 75Q36 78 48 87T72 117T100 176L312 676Q332 681 348 681T388 682ZM406 231L427 166Q360 166 289 164T146
153L161 231H406ZM481 719Q431 719 406 744T380 809Q380 847 406 868T476 889Q518 889 545 866T573 809Q573 774 552 747T481 719ZM224 719Q181 719 154 742T127 799Q127 834 149 861T221 889Q272 889 295 864T318 801Q318 767 292 743T224 719Z" />
<glyph unicode="&#xc5;" horiz-adv-x="717" d="M388 682L610 195Q634 144 648 119T673 85T699 75Q703 62 705 42T707 -3Q687 -1 656 -1T596 0T550 0Q538 0 515 0T464 0T413 -1T374 -3Q374 25 376 42T382 75Q415 83 421 100T413 151L340 316Q313 376 297 429T273
528H310Q298 481 282 428T241 316L177 152Q168 130 175 105T215 75Q219 59 221 40T223 -3Q212 -2 191 -2T146 -1T106 0Q81 0 53 0T10 -3Q10 20 12 38T20 75Q36 78 48 87T72 117T100 176L312 676Q332 681 348 681T388 682ZM406 231L427 166Q360 166 289 164T146
153L161 231H406ZM344 713Q291 713 255 736T219 802Q219 848 257 872T355 897Q409 897 445 876T481 809Q481 766 444 740T344 713ZM352 759Q366 759 376 770T387 802Q387 819 378 837T346 856Q332 856 323 844T314 808Q314 786 323 773T352 759Z" />
<glyph unicode="&#xc6;" horiz-adv-x="1001" d="M286 352H670Q699 352 714 357T735 378T742 428Q759 434 784 437T829 441Q828 425 828 410T827 374T826 322Q826 300 826 278T827 236T829 202Q809 202 784 203T743 211Q741 244 735 260T714 281T670 286Q577 286
496 284T354 277T260 266L286 352ZM459 540Q459 560 461 587T468 640T476 676H659V192Q659 145 666 120T690 85T737 75L728 0Q692 0 642 0T539 0T444 -1T385 -3Q385 20 387 39T393 75Q420 77 434 85T453 117T459 187V540ZM633 676Q746 676 812 677T926 679Q926
630 933 582T947 501Q940 495 921 491T881 485T846 483Q840 519 827 545T786 586T708 601H605L633 676ZM497 676Q488 651 480 633T462 595T436 546Q408 498 376 442T312 331T257 235T221 170Q206 141 205 122T215 91T250 75Q256 61 258 41T260 -3Q237 -1 202 -1T142
0Q126 0 99 0T46 -1T10 -3Q10 17 12 39T20 75Q44 78 59 85T88 108T118 152L331 519Q354 560 347 578T302 601Q298 610 294 636T289 678Q315 678 350 678T423 677T497 676ZM620 75H754Q787 75 809 86T848 127T886 211Q913 207 943 198T986 177Q975 143 967 95T955
-2Q933 -2 890 -2T797 -1T699 0T620 0V75Z" />
<glyph unicode="&#xc7;" horiz-adv-x="634" d="M379 -9Q276 -9 199 35T78 159T35 341Q35 426 63 490T139 598T250 663T379 685Q433 685 490 672T599 633Q593 599 591 559T588 478Q575 471 544 468T489 464Q489 516 476 547T439 593T383 608Q343 608 315 588T271
534T248 457T240 367Q240 287 260 223T324 122T438 85Q472 85 509 95T586 127Q597 117 604 103T614 72Q578 41 519 16T379 -9ZM296 -242Q291 -231 289 -217T287 -191Q319 -191 342 -180T365 -147Q365 -130 349 -120T307 -110Q299 -100 294 -88T289 -63L354 16H428L383
-43Q427 -50 449 -77T472 -138Q472 -171 452 -194T392 -230T296 -242Z" />
<glyph unicode="&#xc8;" horiz-adv-x="646" d="M30 679Q54 678 89 678T163 677T239 676T304 676V192Q304 146 311 121T335 85T382 75L339 0Q313 0 269 0T176 -1T87 -2T30 -3Q30 19 32 40T38 75Q65 77 79 85T99 117T104 187V491Q104 536 99 558T80 588T37 601Q33
616 32 639T30 679ZM529 211Q562 208 590 199T631 177Q620 143 612 95T600 -2Q571 -1 526 -1T431 -1T339 0L382 75H399Q433 75 457 89T499 133T529 211ZM474 457Q473 433 472 406T470 340Q470 298 471 271T474 221Q446 221 426 223T388 231Q384 272 367 285T305
299H248V374H305Q354 374 369 390T386 445Q403 452 427 454T474 457ZM571 679Q572 654 574 621T581 557T592 501Q573 494 550 489T491 483Q485 519 472 545T431 586T353 601H260L294 676Q369 676 420 676T507 677T571 679ZM277 735Q257 764 232 794T174 856Q203
870 242 876T318 882Q329 853 348 817T387 753Q365 745 337 740T277 735Z" />
<glyph unicode="&#xc9;" horiz-adv-x="646" d="M30 679Q54 678 89 678T163 677T239 676T304 676V192Q304 146 311 121T335 85T382 75L339 0Q313 0 269 0T176 -1T87 -2T30 -3Q30 19 32 40T38 75Q65 77 79 85T99 117T104 187V491Q104 536 99 558T80 588T37 601Q33
616 32 639T30 679ZM529 211Q562 208 590 199T631 177Q620 143 612 95T600 -2Q571 -1 526 -1T431 -1T339 0L382 75H399Q433 75 457 89T499 133T529 211ZM474 457Q473 433 472 406T470 340Q470 298 471 271T474 221Q446 221 426 223T388 231Q384 272 367 285T305
299H248V374H305Q354 374 369 390T386 445Q403 452 427 454T474 457ZM571 679Q572 654 574 621T581 557T592 501Q573 494 550 489T491 483Q485 519 472 545T431 586T353 601H260L294 676Q369 676 420 676T507 677T571 679ZM343 735Q312 735 288 740T241 753Q258
779 275 813T302 872Q325 877 349 879T396 882Q436 882 464 876Q429 839 399 805T343 735Z" />
<glyph unicode="&#xca;" horiz-adv-x="646" d="M30 679Q54 678 89 678T163 677T239 676T304 676V192Q304 146 311 121T335 85T382 75L339 0Q313 0 269 0T176 -1T87 -2T30 -3Q30 19 32 40T38 75Q65 77 79 85T99 117T104 187V491Q104 536 99 558T80 588T37 601Q33
616 32 639T30 679ZM529 211Q562 208 590 199T631 177Q620 143 612 95T600 -2Q571 -1 526 -1T431 -1T339 0L382 75H399Q433 75 457 89T499 133T529 211ZM474 457Q473 433 472 406T470 340Q470 298 471 271T474 221Q446 221 426 223T388 231Q384 272 367 285T305
299H248V374H305Q354 374 369 390T386 445Q403 452 427 454T474 457ZM571 679Q572 654 574 621T581 557T592 501Q573 494 550 489T491 483Q485 519 472 545T431 586T353 601H260L294 676Q369 676 420 676T507 677T571 679ZM188 728Q163 731 145 747T121 781Q160
804 201 831T272 883Q293 890 315 892T362 894Q390 866 426 838T506 781Q490 761 469 747T412 725Q388 740 357 754T296 782Q280 774 261 766T222 748T188 728Z" />
<glyph unicode="&#xcb;" horiz-adv-x="646" d="M30 679Q54 678 89 678T163 677T239 676T304 676V192Q304 146 311 121T335 85T382 75L339 0Q313 0 269 0T176 -1T87 -2T30 -3Q30 19 32 40T38 75Q65 77 79 85T99 117T104 187V491Q104 536 99 558T80 588T37 601Q33
616 32 639T30 679ZM529 211Q562 208 590 199T631 177Q620 143 612 95T600 -2Q571 -1 526 -1T431 -1T339 0L382 75H399Q433 75 457 89T499 133T529 211ZM474 457Q473 433 472 406T470 340Q470 298 471 271T474 221Q446 221 426 223T388 231Q384 272 367 285T305
299H248V374H305Q354 374 369 390T386 445Q403 452 427 454T474 457ZM571 679Q572 654 574 621T581 557T592 501Q573 494 550 489T491 483Q485 519 472 545T431 586T353 601H260L294 676Q369 676 420 676T507 677T571 679ZM445 719Q395 719 370 744T344 809Q344
847 370 868T440 889Q482 889 509 866T537 809Q537 774 516 747T445 719ZM188 719Q145 719 118 742T91 799Q91 834 113 861T185 889Q236 889 259 864T282 801Q282 767 256 743T188 719Z" />
<glyph unicode="&#xcc;" horiz-adv-x="408" d="M104 491Q104 536 100 558T81 588T39 601Q35 616 33 638T30 679Q47 678 80 678T149 677T209 676Q233 676 265 676T327 677T378 679Q378 659 377 640T369 601Q342 598 328 590T309 559T304 491V187Q304 141 309 118T328
86T370 75Q374 62 376 40T378 -3Q356 -1 314 -1T219 0Q167 0 116 0T30 -3Q30 15 33 38T40 75Q67 77 81 85T99 117T104 187V491ZM167 735Q147 764 122 794T64 856Q93 870 132 876T208 882Q219 853 238 817T277 753Q255 745 227 740T167 735Z" />
<glyph unicode="&#xcd;" horiz-adv-x="408" d="M104 491Q104 536 100 558T81 588T39 601Q35 616 33 638T30 679Q47 678 80 678T149 677T209 676Q233 676 265 676T327 677T378 679Q378 659 377 640T369 601Q342 598 328 590T309 559T304 491V187Q304 141 309 118T328
86T370 75Q374 62 376 40T378 -3Q356 -1 314 -1T219 0Q167 0 116 0T30 -3Q30 15 33 38T40 75Q67 77 81 85T99 117T104 187V491ZM233 735Q202 735 178 740T131 753Q148 779 165 813T192 872Q215 877 239 879T286 882Q326 882 354 876Q319 839 289 805T233 735Z"
/>
<glyph unicode="&#xce;" horiz-adv-x="408" d="M104 491Q104 536 100 558T81 588T39 601Q35 616 33 638T30 679Q47 678 80 678T149 677T209 676Q233 676 265 676T327 677T378 679Q378 659 377 640T369 601Q342 598 328 590T309 559T304 491V187Q304 141 309 118T328
86T370 75Q374 62 376 40T378 -3Q356 -1 314 -1T219 0Q167 0 116 0T30 -3Q30 15 33 38T40 75Q67 77 81 85T99 117T104 187V491ZM362 708Q337 715 319 727T287 760Q319 785 352 814T417 869Q437 875 463 879T508 883Q535 852 566 821T633 758Q614 737 585 724T529
707Q507 724 486 735T436 762Q417 752 398 739T362 708Z" />
<glyph unicode="&#xcf;" horiz-adv-x="408" d="M104 491Q104 536 100 558T81 588T39 601Q35 616 33 638T30 679Q47 678 80 678T149 677T209 676Q233 676 265 676T327 677T378 679Q378 659 377 640T369 601Q342 598 328 590T309 559T304 491V187Q304 141 309 118T328
86T370 75Q374 62 376 40T378 -3Q356 -1 314 -1T219 0Q167 0 116 0T30 -3Q30 15 33 38T40 75Q67 77 81 85T99 117T104 187V491ZM350 710Q307 710 281 732T255 786Q255 819 276 845T347 871Q397 871 419 847T442 787Q442 756 416 733T350 710ZM574 710Q525 710 500
734T475 795Q475 831 501 851T569 871Q610 871 637 849T664 795Q664 762 644 736T574 710Z" />
<glyph unicode="&#xd0;" horiz-adv-x="739" d="M30 -3Q30 19 32 40T38 75Q65 77 79 85T99 117T104 187V491Q104 536 99 558T80 588T37 601Q33 616 32 639T30 679Q54 678 89 678T163 677T239 676Q260 676 286 677T344 678Q402 678 456 671T555 643T633 587T685
494T704 355Q704 274 684 216T632 119T559 56T478 20T400 4T339 0Q313 0 269 0T176 -1T87 -2T30 -3ZM382 75Q393 75 413 82T453 115T488 193T502 337Q502 417 489 469T454 550T403 591T344 603Q327 603 312 598T289 585L304 629V192Q304 146 311 121T335 85T382
75ZM256 550Q256 579 259 602T268 641H385H489H620Q620 615 618 593T609 552Q583 553 565 553T529 553T483 553L381 552Q364 553 344 552T303 551T256 550Z" />
<glyph unicode="&#xd1;" horiz-adv-x="711" d="M520 -9L90 573Q82 587 69 592T23 601Q19 618 17 637T15 679Q28 678 53 678T105 677T148 676Q173 676 207 676T261 679L553 277L520 -9ZM15 -3Q15 21 16 40T23 75Q54 79 71 90T96 131T104 218V615L179 607V218Q179
161 185 132T208 91T258 75Q263 59 264 38T265 -3Q251 -2 229 -2T184 -1T144 0Q127 0 101 0T51 -1T15 -3ZM520 -9L536 180V458Q536 515 530 544T506 585T451 601Q447 618 446 640T444 679Q458 678 482 678T532 677T575 676Q601 676 632 677T681 679Q681 659 680
640T674 601Q648 598 635 587T616 546T611 458V0Q591 -6 570 -7T520 -9ZM408 735Q380 735 362 742T329 759T301 776T267 784Q243 784 225 772T189 737Q171 754 163 771T152 813Q181 854 222 871T297 888Q331 888 354 877T398 854T442 842Q463 842 478 853T503 882Q523
878 539 870T568 848Q542 795 501 765T408 735Z" />
<glyph unicode="&#xd2;" horiz-adv-x="761" d="M380 -9Q272 -9 195 35T77 157T35 341Q35 421 60 484T132 593T241 661T380 685Q485 685 562 644T683 529T726 354Q726 273 702 207T633 92T523 18T380 -9ZM392 69Q434 69 462 101T506 193T521 333Q521 410 503 472T450
572T367 610Q327 610 299 582T255 499T240 365Q240 305 249 252T276 157T323 93T392 69ZM344 735Q324 764 299 794T241 856Q270 870 309 876T385 882Q396 853 415 817T454 753Q432 745 404 740T344 735Z" />
<glyph unicode="&#xd3;" horiz-adv-x="761" d="M380 -9Q272 -9 195 35T77 157T35 341Q35 421 60 484T132 593T241 661T380 685Q485 685 562 644T683 529T726 354Q726 273 702 207T633 92T523 18T380 -9ZM392 69Q434 69 462 101T506 193T521 333Q521 410 503 472T450
572T367 610Q327 610 299 582T255 499T240 365Q240 305 249 252T276 157T323 93T392 69ZM410 735Q379 735 355 740T308 753Q325 779 342 813T369 872Q392 877 416 879T463 882Q503 882 531 876Q496 839 466 805T410 735Z" />
<glyph unicode="&#xd4;" horiz-adv-x="761" d="M380 -9Q272 -9 195 35T77 157T35 341Q35 421 60 484T132 593T241 661T380 685Q485 685 562 644T683 529T726 354Q726 273 702 207T633 92T523 18T380 -9ZM392 69Q434 69 462 101T506 193T521 333Q521 410 503 472T450
572T367 610Q327 610 299 582T255 499T240 365Q240 305 249 252T276 157T323 93T392 69ZM255 728Q230 731 212 747T188 781Q227 804 268 831T339 883Q360 890 382 892T429 894Q457 866 493 838T573 781Q557 761 536 747T479 725Q455 740 424 754T363 782Q347 774
328 766T289 748T255 728Z" />
<glyph unicode="&#xd5;" horiz-adv-x="761" d="M380 -9Q272 -9 195 35T77 157T35 341Q35 421 60 484T132 593T241 661T380 685Q485 685 562 644T683 529T726 354Q726 273 702 207T633 92T523 18T380 -9ZM392 69Q434 69 462 101T506 193T521 333Q521 410 503 472T450
572T367 610Q327 610 299 582T255 499T240 365Q240 305 249 252T276 157T323 93T392 69ZM429 735Q401 735 383 742T350 759T322 776T288 784Q264 784 246 772T210 737Q192 754 184 771T173 813Q202 854 243 871T318 888Q352 888 375 877T419 854T463 842Q484 842
499 853T524 882Q544 878 560 870T589 848Q563 795 522 765T429 735Z" />
<glyph unicode="&#xd6;" horiz-adv-x="761" d="M380 -9Q272 -9 195 35T77 157T35 341Q35 421 60 484T132 593T241 661T380 685Q485 685 562 644T683 529T726 354Q726 273 702 207T633 92T523 18T380 -9ZM392 69Q434 69 462 101T506 193T521 333Q521 410 503 472T450
572T367 610Q327 610 299 582T255 499T240 365Q240 305 249 252T276 157T323 93T392 69ZM512 719Q462 719 437 744T411 809Q411 847 437 868T507 889Q549 889 576 866T604 809Q604 774 583 747T512 719ZM255 719Q212 719 185 742T158 799Q158 834 180 861T252 889Q303
889 326 864T349 801Q349 767 323 743T255 719Z" />
<glyph unicode="&#xd7;" horiz-adv-x="550" d="M434 18Q398 60 347 116T239 235T129 354T33 456Q50 472 72 482T114 493L515 56Q502 40 479 29T434 18ZM119 18Q95 17 69 25T31 48L426 494Q451 494 480 487T518 468Q473 420 419 361T310 240T206 120T119 18Z" />
<glyph unicode="&#xd8;" horiz-adv-x="761" d="M380 -9Q272 -9 195 35T77 157T35 341Q35 421 60 484T132 593T241 661T380 685Q485 685 562 644T683 529T726 354Q726 273 702 207T633 92T523 18T380 -9ZM392 69Q434 69 462 101T506 193T521 333Q521 410 503 472T450
572T367 610Q327 610 299 582T255 499T240 365Q240 305 249 252T276 157T323 93T392 69ZM545 600L626 700Q655 700 684 694T730 676L642 567L545 600ZM239 69L160 -26Q127 -26 100 -20T56 -4L142 98L239 69ZM182 141L511 565L584 502L256 81L182 141Z" />
<glyph unicode="&#xd9;" horiz-adv-x="697" d="M596 277Q596 191 584 135T536 44Q505 16 461 4T359 -9Q259 -9 201 16T119 97T94 239V486Q94 533 89 556T69 588T28 601Q24 617 22 637T20 679Q40 678 78 677T156 676Q176 676 206 676T268 676T326 677T364 679Q364
655 363 637T358 601Q331 597 318 588T299 555T294 486V256Q294 194 306 153T344 92T406 72Q429 72 452 82T492 115Q501 128 507 148T516 202T520 287V467Q520 517 514 544T493 584T454 601Q451 621 450 641T448 679Q462 678 482 678T524 677T560 676Q589 676 618
677T667 679Q667 657 666 638T659 601Q633 598 620 586T601 548T596 476V277ZM369 735Q349 764 324 794T266 856Q295 870 334 876T410 882Q421 853 440 817T479 753Q457 745 429 740T369 735Z" />
<glyph unicode="&#xda;" horiz-adv-x="697" d="M596 277Q596 191 584 135T536 44Q505 16 461 4T359 -9Q259 -9 201 16T119 97T94 239V486Q94 533 89 556T69 588T28 601Q24 617 22 637T20 679Q40 678 78 677T156 676Q176 676 206 676T268 676T326 677T364 679Q364
655 363 637T358 601Q331 597 318 588T299 555T294 486V256Q294 194 306 153T344 92T406 72Q429 72 452 82T492 115Q501 128 507 148T516 202T520 287V467Q520 517 514 544T493 584T454 601Q451 621 450 641T448 679Q462 678 482 678T524 677T560 676Q589 676 618
677T667 679Q667 657 666 638T659 601Q633 598 620 586T601 548T596 476V277ZM435 735Q404 735 380 740T333 753Q350 779 367 813T394 872Q417 877 441 879T488 882Q528 882 556 876Q521 839 491 805T435 735Z" />
<glyph unicode="&#xdb;" horiz-adv-x="697" d="M596 277Q596 191 584 135T536 44Q505 16 461 4T359 -9Q259 -9 201 16T119 97T94 239V486Q94 533 89 556T69 588T28 601Q24 617 22 637T20 679Q40 678 78 677T156 676Q176 676 206 676T268 676T326 677T364 679Q364
655 363 637T358 601Q331 597 318 588T299 555T294 486V256Q294 194 306 153T344 92T406 72Q429 72 452 82T492 115Q501 128 507 148T516 202T520 287V467Q520 517 514 544T493 584T454 601Q451 621 450 641T448 679Q462 678 482 678T524 677T560 676Q589 676 618
677T667 679Q667 657 666 638T659 601Q633 598 620 586T601 548T596 476V277ZM280 728Q255 731 237 747T213 781Q252 804 293 831T364 883Q385 890 407 892T454 894Q482 866 518 838T598 781Q582 761 561 747T504 725Q480 740 449 754T388 782Q372 774 353 766T314
748T280 728Z" />
<glyph unicode="&#xdc;" horiz-adv-x="697" d="M596 277Q596 191 584 135T536 44Q505 16 461 4T359 -9Q259 -9 201 16T119 97T94 239V486Q94 533 89 556T69 588T28 601Q24 617 22 637T20 679Q40 678 78 677T156 676Q176 676 206 676T268 676T326 677T364 679Q364
655 363 637T358 601Q331 597 318 588T299 555T294 486V256Q294 194 306 153T344 92T406 72Q429 72 452 82T492 115Q501 128 507 148T516 202T520 287V467Q520 517 514 544T493 584T454 601Q451 621 450 641T448 679Q462 678 482 678T524 677T560 676Q589 676 618
677T667 679Q667 657 666 638T659 601Q633 598 620 586T601 548T596 476V277ZM537 719Q487 719 462 744T436 809Q436 847 462 868T532 889Q574 889 601 866T629 809Q629 774 608 747T537 719ZM280 719Q237 719 210 742T183 799Q183 834 205 861T277 889Q328 889
351 864T374 801Q374 767 348 743T280 719Z" />
<glyph unicode="&#xdd;" horiz-adv-x="634" d="M423 261V198Q423 149 430 124T458 88T522 75Q529 54 530 38T532 -3Q489 -1 432 -1T318 0Q281 0 244 0T171 -1T105 -3Q106 19 108 39T117 75Q165 79 187 87T216 121T223 199V261H423ZM365 120L286 119L84 542Q68
574 52 586T18 601Q14 618 12 635T10 678Q34 677 66 677T128 676T178 676Q197 676 229 676T293 676T346 678Q346 652 344 635T339 601Q308 597 307 575T320 518Q334 485 353 435T392 331H387Q409 387 429 435T466 524Q480 557 473 578T437 601Q433 618 431 635T428
678Q455 677 478 677T531 676Q554 676 577 676T624 678Q624 653 622 634T615 601Q597 597 582 581T545 517L365 120ZM409 735Q378 735 354 740T307 753Q324 779 341 813T368 872Q391 877 415 879T462 882Q502 882 530 876Q495 839 465 805T409 735Z" />
<glyph unicode="&#xde;" horiz-adv-x="685" d="M30 -3Q30 15 33 38T40 75Q67 77 81 85T99 117T104 187V491Q104 536 100 558T81 588T39 601Q35 616 33 638T30 679Q47 678 80 678T149 677T209 676Q233 676 265 676T327 677T378 679Q378 659 377 640T369 601Q342
598 328 590T309 559T304 491V197Q304 154 314 129T347 91T413 75Q419 59 420 38T422 -3Q403 -2 371 -2T301 -1T229 0Q174 0 121 0T30 -3ZM413 149Q391 149 375 151T344 157Q340 180 343 197T353 229Q359 228 365 228T375 229Q396 229 415 241T447 278T460 346Q460
397 434 431T354 466Q344 466 330 465T302 457L276 544Q299 544 320 544T367 545T427 545Q510 545 558 520T628 452T650 359Q650 297 621 250T539 176T413 149Z" />
<glyph unicode="&#xdf;" horiz-adv-x="764" d="M104 356Q92 361 69 364T27 368Q27 391 29 409T39 448H104V477Q104 538 122 583T176 658T263 702T382 717Q470 717 524 699T604 650T630 586Q630 556 618 536T587 502T551 478T521 458T508 435Q508 418 524 405T566
380T621 352T675 316T717 264T734 188Q734 137 713 100T654 39T573 3T481 -9Q433 -9 392 -3T326 17Q329 32 330 60T331 118T331 165Q349 172 379 175T427 178Q433 123 447 97T494 71Q511 71 524 82T537 113Q537 143 516 164T464 202T402 240T349 288T328 359Q328
394 341 414T375 447T415 472T448 504T462 558Q462 581 451 600T417 632T362 644Q339 644 324 636T301 601T294 519V-1Q265 0 233 0T184 0Q135 0 97 0T30 -3Q30 19 32 39T39 75Q66 77 80 85T99 115T104 178V356Z" />
<glyph unicode="&#xe0;" horiz-adv-x="589" d="M383 -9Q361 -1 353 13T345 48Q345 63 348 83T359 123L363 129Q352 93 337 69T303 30Q280 11 249 2T178 -7Q107 -7 66 22T25 110Q25 148 42 175T89 222T158 254T240 275T328 289Q328 308 326 324T320 353T305 377Q294
389 280 393T254 398Q231 398 217 385T194 347T182 289Q147 289 122 291T73 302Q75 331 75 362T66 431Q110 448 172 458T292 468Q368 468 410 453T472 417Q490 399 504 364T518 256V190Q518 154 522 136T538 111T574 104Q578 82 576 62T563 25Q517 24 471 16T383
-9ZM247 102Q266 102 284 114T315 150T328 208V225Q294 218 271 210T235 191T216 169T210 143Q210 121 221 112T247 102ZM244 533Q216 572 187 608T113 685Q149 700 191 708T277 717Q288 680 307 635T346 551Q327 542 303 538T244 533Z" />
<glyph unicode="&#xe1;" horiz-adv-x="589" d="M383 -9Q361 -1 353 13T345 48Q345 63 348 83T359 123L363 129Q352 93 337 69T303 30Q280 11 249 2T178 -7Q107 -7 66 22T25 110Q25 148 42 175T89 222T158 254T240 275T328 289Q328 308 326 324T320 353T305 377Q294
389 280 393T254 398Q231 398 217 385T194 347T182 289Q147 289 122 291T73 302Q75 331 75 362T66 431Q110 448 172 458T292 468Q368 468 410 453T472 417Q490 399 504 364T518 256V190Q518 154 522 136T538 111T574 104Q578 82 576 62T563 25Q517 24 471 16T383
-9ZM247 102Q266 102 284 114T315 150T328 208V225Q294 218 271 210T235 191T216 169T210 143Q210 121 221 112T247 102ZM314 530Q287 530 260 536T217 550Q240 594 254 630T278 706Q298 713 325 716T380 719Q397 719 414 718T444 715Q405 669 372 623T314 530Z"
/>
<glyph unicode="&#xe2;" horiz-adv-x="589" d="M383 -9Q361 -1 353 13T345 48Q345 63 348 83T359 123L363 129Q352 93 337 69T303 30Q280 11 249 2T178 -7Q107 -7 66 22T25 110Q25 148 42 175T89 222T158 254T240 275T328 289Q328 308 326 324T320 353T305 377Q294
389 280 393T254 398Q231 398 217 385T194 347T182 289Q147 289 122 291T73 302Q75 331 75 362T66 431Q110 448 172 458T292 468Q368 468 410 453T472 417Q490 399 504 364T518 256V190Q518 154 522 136T538 111T574 104Q578 82 576 62T563 25Q517 24 471 16T383
-9ZM247 102Q266 102 284 114T315 150T328 208V225Q294 218 271 210T235 191T216 169T210 143Q210 121 221 112T247 102ZM134 515Q110 520 94 538T72 572Q115 601 160 637T240 708Q258 715 281 719T327 723Q358 686 398 647T487 566Q471 548 450 535T397 515Q369
536 333 558T263 598Q250 591 233 581T197 560T163 537T134 515Z" />
<glyph unicode="&#xe3;" horiz-adv-x="589" d="M383 -9Q361 -1 353 13T345 48Q345 63 348 83T359 123L363 129Q352 93 337 69T303 30Q280 11 249 2T178 -7Q107 -7 66 22T25 110Q25 148 42 175T89 222T158 254T240 275T328 289Q328 308 326 324T320 353T305 377Q294
389 280 393T254 398Q231 398 217 385T194 347T182 289Q147 289 122 291T73 302Q75 331 75 362T66 431Q110 448 172 458T292 468Q368 468 410 453T472 417Q490 399 504 364T518 256V190Q518 154 522 136T538 111T574 104Q578 82 576 62T563 25Q517 24 471 16T383
-9ZM247 102Q266 102 284 114T315 150T328 208V225Q294 218 271 210T235 191T216 169T210 143Q210 121 221 112T247 102ZM333 537Q306 537 288 545T254 564T222 583T184 591Q159 591 137 578T94 540Q61 570 58 613Q102 664 140 680T207 697Q241 697 263 684T306
659T352 646Q375 646 393 658T424 689Q443 686 459 678T488 657Q454 599 417 568T333 537Z" />
<glyph unicode="&#xe4;" horiz-adv-x="589" d="M383 -9Q361 -1 353 13T345 48Q345 63 348 83T359 123L363 129Q352 93 337 69T303 30Q280 11 249 2T178 -7Q107 -7 66 22T25 110Q25 148 42 175T89 222T158 254T240 275T328 289Q328 308 326 324T320 353T305 377Q294
389 280 393T254 398Q231 398 217 385T194 347T182 289Q147 289 122 291T73 302Q75 331 75 362T66 431Q110 448 172 458T292 468Q368 468 410 453T472 417Q490 399 504 364T518 256V190Q518 154 522 136T538 111T574 104Q578 82 576 62T563 25Q517 24 471 16T383
-9ZM247 102Q266 102 284 114T315 150T328 208V225Q294 218 271 210T235 191T216 169T210 143Q210 121 221 112T247 102ZM404 506Q354 506 329 531T303 596Q303 634 329 655T399 676Q441 676 468 653T496 596Q496 561 475 534T404 506ZM147 506Q104 506 77 529T50
586Q50 621 72 648T144 676Q195 676 218 651T241 588Q241 554 215 530T147 506Z" />
<glyph unicode="&#xe5;" horiz-adv-x="589" d="M383 -9Q361 -1 353 13T345 48Q345 63 348 83T359 123L363 129Q352 93 337 69T303 30Q280 11 249 2T178 -7Q107 -7 66 22T25 110Q25 148 42 175T89 222T158 254T240 275T328 289Q328 308 326 324T320 353T305 377Q294
389 280 393T254 398Q231 398 217 385T194 347T182 289Q147 289 122 291T73 302Q75 331 75 362T66 431Q110 448 172 458T292 468Q368 468 410 453T472 417Q490 399 504 364T518 256V190Q518 154 522 136T538 111T574 104Q578 82 576 62T563 25Q517 24 471 16T383
-9ZM247 102Q266 102 284 114T315 150T328 208V225Q294 218 271 210T235 191T216 169T210 143Q210 121 221 112T247 102ZM267 516Q212 516 174 543T136 619Q136 670 176 699T278 729Q334 729 372 705T410 627Q410 578 371 547T267 516ZM276 576Q289 576 298 587T307
619Q307 637 299 655T270 674Q257 674 249 661T240 625Q240 604 249 590T276 576Z" />
<glyph unicode="&#xe6;" horiz-adv-x="752" d="M466 215Q466 188 472 165T491 125T524 97T573 87Q608 87 635 96T683 118Q694 108 702 88T710 46Q682 23 632 9T516 -6Q452 -6 408 14T336 66T296 135T283 207V300Q283 348 270 369T232 391Q215 391 204 381T187
348T176 288Q151 288 119 292T64 306Q66 331 65 367T59 436Q106 453 150 460T246 467Q309 467 347 447T410 380H353Q369 412 398 431T461 458T525 467Q586 467 624 445T684 390T713 320T721 256Q716 243 706 227T683 198Q625 198 554 197T420 191L424 262Q460 264
498 265T568 266Q568 305 563 333T547 376T516 391Q490 391 478 360T466 276V215ZM294 207Q231 202 207 186T182 138Q182 122 187 112T200 96T220 91Q233 91 248 101T274 137T284 207L340 116Q340 84 316 56T251 11T156 -6Q92 -6 59 24T25 110Q25 155 46 185T104
234T190 262T294 276V207Z" />
<glyph unicode="&#xe7;" horiz-adv-x="484" d="M469 42Q443 18 397 5T295 -9Q213 -9 154 16T62 94T30 227Q30 287 58 342T142 432T283 467Q344 467 386 457T464 428Q457 400 454 370T451 296Q428 286 400 283T346 279Q346 337 330 366T288 395Q253 395 235 351T217
241Q217 203 229 167T270 107T346 83Q378 83 403 89T446 106Q457 95 463 79T469 42ZM214 -242Q209 -231 207 -217T205 -191Q237 -191 260 -180T283 -147Q283 -130 267 -120T225 -110Q217 -100 212 -88T207 -63L272 16H346L301 -43Q345 -50 367 -77T390 -138Q390
-171 370 -194T310 -230T214 -242Z" />
<glyph unicode="&#xe8;" horiz-adv-x="545" d="M297 -9Q201 -9 143 21T57 104T30 224Q30 301 61 355T149 438T284 467Q362 467 412 440T488 364T514 248Q505 211 481 189Q448 189 410 189T332 188T252 185T175 180V259H349Q349 327 334 360T287 393Q264 393 249
376T226 328T218 255Q218 202 231 163T274 104T352 83Q388 83 424 94T482 121Q493 114 501 94T509 52Q468 24 417 8T297 -9ZM257 533Q229 572 200 608T126 685Q162 700 204 708T290 717Q301 680 320 635T359 551Q340 542 316 538T257 533Z" />
<glyph unicode="&#xe9;" horiz-adv-x="545" d="M297 -9Q201 -9 143 21T57 104T30 224Q30 301 61 355T149 438T284 467Q362 467 412 440T488 364T514 248Q505 211 481 189Q448 189 410 189T332 188T252 185T175 180V259H349Q349 327 334 360T287 393Q264 393 249
376T226 328T218 255Q218 202 231 163T274 104T352 83Q388 83 424 94T482 121Q493 114 501 94T509 52Q468 24 417 8T297 -9ZM327 530Q300 530 273 536T230 550Q253 594 267 630T291 706Q311 713 338 716T393 719Q410 719 427 718T457 715Q418 669 385 623T327 530Z"
/>
<glyph unicode="&#xea;" horiz-adv-x="545" d="M297 -9Q201 -9 143 21T57 104T30 224Q30 301 61 355T149 438T284 467Q362 467 412 440T488 364T514 248Q505 211 481 189Q448 189 410 189T332 188T252 185T175 180V259H349Q349 327 334 360T287 393Q264 393 249
376T226 328T218 255Q218 202 231 163T274 104T352 83Q388 83 424 94T482 121Q493 114 501 94T509 52Q468 24 417 8T297 -9ZM147 515Q123 520 107 538T85 572Q128 601 173 637T253 708Q271 715 294 719T340 723Q371 686 411 647T500 566Q484 548 463 535T410 515Q382
536 346 558T276 598Q263 591 246 581T210 560T176 537T147 515Z" />
<glyph unicode="&#xeb;" horiz-adv-x="545" d="M297 -9Q201 -9 143 21T57 104T30 224Q30 301 61 355T149 438T284 467Q362 467 412 440T488 364T514 248Q505 211 481 189Q448 189 410 189T332 188T252 185T175 180V259H349Q349 327 334 360T287 393Q264 393 249
376T226 328T218 255Q218 202 231 163T274 104T352 83Q388 83 424 94T482 121Q493 114 501 94T509 52Q468 24 417 8T297 -9ZM417 506Q367 506 342 531T316 596Q316 634 342 655T412 676Q454 676 481 653T509 596Q509 561 488 534T417 506ZM160 506Q117 506 90 529T63
586Q63 621 85 648T157 676Q208 676 231 651T254 588Q254 554 228 530T160 506Z" />
<glyph unicode="&#xec;" horiz-adv-x="400" d="M32 -3Q32 22 34 41T41 75Q81 77 93 94T106 162V289Q106 312 100 326T78 348T32 359Q32 378 34 398T45 434Q95 434 138 439T213 451T261 467Q278 460 287 445T296 403V162Q296 112 309 95T362 75Q367 61 368 42T370
-3Q358 -2 331 -2T270 -1T201 0Q167 0 133 0T71 -1T32 -3ZM675 533Q647 572 618 608T544 685Q580 700 622 708T708 717Q719 680 738 635T777 551Q758 542 734 538T675 533Z" />
<glyph unicode="&#xed;" horiz-adv-x="400" d="M32 -3Q32 22 34 41T41 75Q81 77 93 94T106 162V289Q106 312 100 326T78 348T32 359Q32 378 34 398T45 434Q95 434 138 439T213 451T261 467Q278 460 287 445T296 403V162Q296 112 309 95T362 75Q367 61 368 42T370
-3Q358 -2 331 -2T270 -1T201 0Q167 0 133 0T71 -1T32 -3ZM233 530Q206 530 179 536T136 550Q159 594 173 630T197 706Q217 713 244 716T299 719Q316 719 333 718T363 715Q324 669 291 623T233 530Z" />
<glyph unicode="&#xee;" horiz-adv-x="400" d="M32 -3Q32 22 34 41T41 75Q81 77 93 94T106 162V289Q106 312 100 326T78 348T32 359Q32 378 34 398T45 434Q95 434 138 439T213 451T261 467Q278 460 287 445T296 403V162Q296 112 309 95T362 75Q367 61 368 42T370
-3Q358 -2 331 -2T270 -1T201 0Q167 0 133 0T71 -1T32 -3ZM350 515Q299 530 275 570Q307 601 340 638T405 708Q425 714 451 717T496 721Q523 683 554 644T621 563Q602 544 573 532T517 516Q495 538 474 556T424 594Q405 578 386 558T350 515Z" />
<glyph unicode="&#xef;" horiz-adv-x="400" d="M32 -3Q32 22 34 41T41 75Q81 77 93 94T106 162V289Q106 312 100 326T78 348T32 359Q32 378 34 398T45 434Q95 434 138 439T213 451T261 467Q278 460 287 445T296 403V162Q296 112 309 95T362 75Q367 61 368 42T370
-3Q358 -2 331 -2T270 -1T201 0Q167 0 133 0T71 -1T32 -3ZM337 506Q294 506 267 529T240 586Q240 621 262 648T334 676Q385 676 408 651T431 588Q431 554 405 530T337 506ZM564 506Q514 506 489 531T463 596Q463 634 489 655T559 676Q601 676 628 653T656 596Q656
561 635 534T564 506Z" />
<glyph unicode="&#xf0;" horiz-adv-x="603" d="M287 -8Q160 -8 95 48T30 215Q30 293 60 347T144 429T272 458Q305 458 324 453T359 436L389 354Q368 371 343 377T300 384Q260 384 241 349T221 236Q221 151 242 111T303 71Q344 71 363 116T382 254Q382 359 358
429T279 542T135 609Q135 628 137 648T148 684Q186 684 229 694T304 717Q391 670 451 608T542 466T573 286Q573 138 502 65T287 -8ZM192 462Q182 478 177 501T172 543L504 687Q513 670 517 647T522 605Q483 592 441 576T356 541T272 502T192 462Z" />
<glyph unicode="&#xf1;" horiz-adv-x="716" d="M106 204V270Q106 303 102 321T83 347T35 359Q35 378 37 398T48 434Q122 434 180 444T262 467Q279 460 287 445T296 403L106 204ZM632 162Q632 113 641 94T675 75Q682 59 684 41T686 -3Q664 -2 623 -1T547 0Q524
0 491 0T429 -1T384 -3Q384 18 385 37T394 75Q415 75 428 96T442 173V242Q442 299 427 322T380 345Q356 345 337 325T307 271T296 190V162Q296 110 308 93T343 75Q351 56 352 38T354 -3Q339 -2 312 -2T256 -1T201 0Q177 0 143 0T78 -1T32 -3Q32 20 34 41T42 75Q81
75 93 93T106 162V270L296 403Q296 391 293 375T284 342Q292 362 301 379T323 409Q347 433 381 447T458 462Q503 462 543 446T607 393T632 299V162ZM423 537Q396 537 378 545T344 564T312 583T274 591Q249 591 227 578T184 540Q151 570 148 613Q192 664 230 680T297
697Q331 697 353 684T396 659T442 646Q465 646 483 658T514 689Q533 686 549 678T578 657Q544 599 507 568T423 537Z" />
<glyph unicode="&#xf2;" horiz-adv-x="608" d="M298 -9Q209 -9 149 19T60 98T30 220Q30 305 67 359T167 440T307 467Q399 467 459 437T548 356T578 237Q578 159 545 104T448 20T298 -9ZM317 68Q351 68 369 107T388 204Q388 269 374 311T339 374T292 395Q255 395
238 355T220 258Q220 207 230 164T263 94T317 68ZM271 533Q243 572 214 608T140 685Q176 700 218 708T304 717Q315 680 334 635T373 551Q354 542 330 538T271 533Z" />
<glyph unicode="&#xf3;" horiz-adv-x="608" d="M298 -9Q209 -9 149 19T60 98T30 220Q30 305 67 359T167 440T307 467Q399 467 459 437T548 356T578 237Q578 159 545 104T448 20T298 -9ZM317 68Q351 68 369 107T388 204Q388 269 374 311T339 374T292 395Q255 395
238 355T220 258Q220 207 230 164T263 94T317 68ZM341 530Q314 530 287 536T244 550Q267 594 281 630T305 706Q325 713 352 716T407 719Q424 719 441 718T471 715Q432 669 399 623T341 530Z" />
<glyph unicode="&#xf4;" horiz-adv-x="608" d="M298 -9Q209 -9 149 19T60 98T30 220Q30 305 67 359T167 440T307 467Q399 467 459 437T548 356T578 237Q578 159 545 104T448 20T298 -9ZM317 68Q351 68 369 107T388 204Q388 269 374 311T339 374T292 395Q255 395
238 355T220 258Q220 207 230 164T263 94T317 68ZM161 515Q137 520 121 538T99 572Q142 601 187 637T267 708Q285 715 308 719T354 723Q385 686 425 647T514 566Q498 548 477 535T424 515Q396 536 360 558T290 598Q277 591 260 581T224 560T190 537T161 515Z" />
<glyph unicode="&#xf5;" horiz-adv-x="608" d="M298 -9Q209 -9 149 19T60 98T30 220Q30 305 67 359T167 440T307 467Q399 467 459 437T548 356T578 237Q578 159 545 104T448 20T298 -9ZM317 68Q351 68 369 107T388 204Q388 269 374 311T339 374T292 395Q255 395
238 355T220 258Q220 207 230 164T263 94T317 68ZM360 537Q333 537 315 545T281 564T249 583T211 591Q186 591 164 578T121 540Q88 570 85 613Q129 664 167 680T234 697Q268 697 290 684T333 659T379 646Q402 646 420 658T451 689Q470 686 486 678T515 657Q481
599 444 568T360 537Z" />
<glyph unicode="&#xf6;" horiz-adv-x="608" d="M298 -9Q209 -9 149 19T60 98T30 220Q30 305 67 359T167 440T307 467Q399 467 459 437T548 356T578 237Q578 159 545 104T448 20T298 -9ZM317 68Q351 68 369 107T388 204Q388 269 374 311T339 374T292 395Q255 395
238 355T220 258Q220 207 230 164T263 94T317 68ZM431 506Q381 506 356 531T330 596Q330 634 356 655T426 676Q468 676 495 653T523 596Q523 561 502 534T431 506ZM174 506Q131 506 104 529T77 586Q77 621 99 648T171 676Q222 676 245 651T268 588Q268 554 242
530T174 506Z" />
<glyph unicode="&#xf7;" horiz-adv-x="550" d="M27 220Q27 239 30 263T39 307H523Q523 282 521 261T511 221Q469 222 440 222T389 223T342 224T285 224Q218 224 157 223T27 220ZM276 -2Q240 -2 216 22T192 80Q192 115 210 139T274 163Q319 163 339 141T359 80Q359
43 335 21T276 -2ZM281 359Q235 359 213 381T190 442Q190 485 217 505T277 526Q311 526 335 507T360 453Q360 413 339 386T281 359Z" />
<glyph unicode="&#xf8;" horiz-adv-x="608" d="M298 -9Q209 -9 149 19T60 98T30 220Q30 305 67 359T167 440T307 467Q399 467 459 437T548 356T578 237Q578 159 545 104T448 20T298 -9ZM317 68Q351 68 369 107T388 204Q388 269 374 311T339 374T292 395Q255 395
238 355T220 258Q220 207 230 164T263 94T317 68ZM410 412L480 490Q508 490 537 484T581 468L509 387L410 412ZM192 47L126 -31Q93 -31 66 -28T21 -16L115 91L192 47ZM141 119L374 383L449 326L216 64L141 119Z" />
<glyph unicode="&#xf9;" horiz-adv-x="653" d="M235 -7Q159 -7 118 34T77 181V270Q77 319 67 337T15 359Q15 378 17 398T28 434Q102 434 155 444T233 467Q250 460 258 445T267 403V207Q267 140 278 118T310 96Q342 96 367 132T392 246V275Q392 324 379 342T321
364Q321 383 323 403T334 439Q408 439 466 447T548 467Q565 460 573 445T582 403V134L416 99Q409 77 400 62T378 36Q359 19 322 6T235 -7ZM447 -9Q425 -1 417 13T409 48Q409 68 414 90T424 124L582 196Q582 157 586 138T602 112T638 104Q642 82 640 62T627 25Q581
24 535 16T447 -9ZM303 533Q275 572 246 608T172 685Q208 700 250 708T336 717Q347 680 366 635T405 551Q386 542 362 538T303 533Z" />
<glyph unicode="&#xfa;" horiz-adv-x="653" d="M235 -7Q159 -7 118 34T77 181V270Q77 319 67 337T15 359Q15 378 17 398T28 434Q102 434 155 444T233 467Q250 460 258 445T267 403V207Q267 140 278 118T310 96Q342 96 367 132T392 246V275Q392 324 379 342T321
364Q321 383 323 403T334 439Q408 439 466 447T548 467Q565 460 573 445T582 403V134L416 99Q409 77 400 62T378 36Q359 19 322 6T235 -7ZM447 -9Q425 -1 417 13T409 48Q409 68 414 90T424 124L582 196Q582 157 586 138T602 112T638 104Q642 82 640 62T627 25Q581
24 535 16T447 -9ZM373 530Q346 530 319 536T276 550Q299 594 313 630T337 706Q357 713 384 716T439 719Q456 719 473 718T503 715Q464 669 431 623T373 530Z" />
<glyph unicode="&#xfb;" horiz-adv-x="653" d="M235 -7Q159 -7 118 34T77 181V270Q77 319 67 337T15 359Q15 378 17 398T28 434Q102 434 155 444T233 467Q250 460 258 445T267 403V207Q267 140 278 118T310 96Q342 96 367 132T392 246V275Q392 324 379 342T321
364Q321 383 323 403T334 439Q408 439 466 447T548 467Q565 460 573 445T582 403V134L416 99Q409 77 400 62T378 36Q359 19 322 6T235 -7ZM447 -9Q425 -1 417 13T409 48Q409 68 414 90T424 124L582 196Q582 157 586 138T602 112T638 104Q642 82 640 62T627 25Q581
24 535 16T447 -9ZM193 515Q169 520 153 538T131 572Q174 601 219 637T299 708Q317 715 340 719T386 723Q417 686 457 647T546 566Q530 548 509 535T456 515Q428 536 392 558T322 598Q309 591 292 581T256 560T222 537T193 515Z" />
<glyph unicode="&#xfc;" horiz-adv-x="653" d="M235 -7Q159 -7 118 34T77 181V270Q77 319 67 337T15 359Q15 378 17 398T28 434Q102 434 155 444T233 467Q250 460 258 445T267 403V207Q267 140 278 118T310 96Q342 96 367 132T392 246V275Q392 324 379 342T321
364Q321 383 323 403T334 439Q408 439 466 447T548 467Q565 460 573 445T582 403V134L416 99Q409 77 400 62T378 36Q359 19 322 6T235 -7ZM447 -9Q425 -1 417 13T409 48Q409 68 414 90T424 124L582 196Q582 157 586 138T602 112T638 104Q642 82 640 62T627 25Q581
24 535 16T447 -9ZM463 506Q413 506 388 531T362 596Q362 634 388 655T458 676Q500 676 527 653T555 596Q555 561 534 534T463 506ZM206 506Q163 506 136 529T109 586Q109 621 131 648T203 676Q254 676 277 651T300 588Q300 554 274 530T206 506Z" />
<glyph unicode="&#xfd;" horiz-adv-x="579" d="M404 298Q424 345 418 362T384 383Q379 397 376 418T373 461Q396 460 423 459T474 458Q499 458 523 459T569 462Q569 444 566 422T556 383Q541 379 530 372T510 351T490 313L343 -37Q315 -105 291 -147T244 -211T198
-241T148 -249Q115 -249 83 -234T34 -195Q31 -175 34 -144T47 -87Q64 -94 95 -100T163 -106Q198 -106 217 -97T252 -63Q258 -54 281 -5T335 124L404 298ZM259 -59Q234 2 204 68T144 200T87 319Q75 345 65 357T44 375T20 383Q15 398 13 420T10 461Q39 460 80 459T163
458Q207 458 255 459T334 461Q334 442 331 419T322 383Q285 377 281 363T299 307Q314 279 327 248T353 183T377 108L259 -59ZM385 530Q358 530 331 536T288 550Q311 594 325 630T349 706Q369 713 396 716T451 719Q468 719 485 718T515 715Q476 669 443 623T385
530Z" />
<glyph unicode="&#xfe;" horiz-adv-x="673" d="M20 -245Q20 -218 21 -200T27 -167Q54 -165 68 -157T88 -125T94 -55V539Q94 562 88 576T66 598T20 609Q20 628 22 648T33 684Q83 684 126 689T201 701T249 717Q266 710 275 695T284 653V480Q284 446 282 427T275
384L284 306V-45Q284 -88 294 -113T327 -151T393 -167Q399 -183 400 -204T402 -245Q383 -244 353 -244T288 -243T222 -242Q168 -242 112 -242T20 -245ZM348 -9Q330 -9 313 -7T276 0V108Q291 85 307 74T347 62Q364 62 382 69T417 94T442 146T452 236Q452 268 446
298T423 349T374 369Q352 369 332 355T298 307T284 218L236 318Q255 363 273 388T310 428Q323 438 342 446T386 461T438 467Q496 467 542 446T615 381T643 265Q643 182 606 121T503 25T348 -9Z" />
<glyph unicode="&#xff;" horiz-adv-x="579" d="M404 298Q424 345 418 362T384 383Q379 397 376 418T373 461Q396 460 423 459T474 458Q499 458 523 459T569 462Q569 444 566 422T556 383Q541 379 530 372T510 351T490 313L343 -37Q315 -105 291 -147T244 -211T198
-241T148 -249Q115 -249 83 -234T34 -195Q31 -175 34 -144T47 -87Q64 -94 95 -100T163 -106Q198 -106 217 -97T252 -63Q258 -54 281 -5T335 124L404 298ZM259 -59Q234 2 204 68T144 200T87 319Q75 345 65 357T44 375T20 383Q15 398 13 420T10 461Q39 460 80 459T163
458Q207 458 255 459T334 461Q334 442 331 419T322 383Q285 377 281 363T299 307Q314 279 327 248T353 183T377 108L259 -59ZM475 506Q425 506 400 531T374 596Q374 634 400 655T470 676Q512 676 539 653T567 596Q567 561 546 534T475 506ZM218 506Q175 506 148
529T121 586Q121 621 143 648T215 676Q266 676 289 651T312 588Q312 554 286 530T218 506Z" />
<glyph unicode="&#x2013;" horiz-adv-x="596" d="M536 303Q536 278 532 255T520 217Q464 217 415 217T314 217T201 215T60 211Q60 235 64 261T76 303H536Z" />
<glyph unicode="&#x2014;" horiz-adv-x="1024" d="M964 303Q964 279 960 257T949 218Q738 218 522 218T60 213Q60 239 64 264T75 303H964Z" />
<glyph unicode="&#x2018;" horiz-adv-x="316" d="M114 410Q85 418 73 439T60 511Q60 568 87 627T164 730Q188 730 206 726T240 710Q208 678 197 654T185 603Q185 582 202 572T256 557Q256 523 254 500T240 442Q200 441 169 433T114 410Z" />
<glyph unicode="&#x2019;" horiz-adv-x="316" d="M202 731Q231 723 243 702T256 630Q256 573 229 514T152 411Q128 411 110 415T76 431Q108 463 119 487T131 538Q131 559 114 569T60 584Q60 618 62 641T76 699Q116 700 147 708T202 731Z" />
<glyph unicode="&#x201a;" horiz-adv-x="316" d="M202 159Q231 151 243 130T256 58Q256 1 229 -58T152 -161Q128 -161 110 -157T76 -141Q108 -109 119 -85T131 -34Q131 -13 114 -3T60 12Q60 46 62 69T76 127Q116 128 147 136T202 159Z" />
<glyph unicode="&#x201c;" horiz-adv-x="520" d="M114 410Q85 418 73 438T60 511Q60 568 87 627T164 730Q188 730 206 726T240 710Q208 678 197 653T185 603Q185 581 200 571T246 557Q246 523 243 497T230 444Q160 441 114 410ZM322 410Q293 418 282 439T271 511Q271
568 295 624T366 722Q390 722 408 718T442 702Q412 672 401 650T389 603Q389 581 406 571T460 557Q460 523 458 500T444 443Q404 441 375 433T322 410Z" />
<glyph unicode="&#x201d;" horiz-adv-x="520" d="M406 731Q435 723 447 703T460 630Q460 573 433 514T356 411Q332 411 314 415T280 431Q312 463 323 488T335 538Q335 560 320 570T274 584Q274 618 277 644T290 697Q360 700 406 731ZM198 731Q227 723 238 702T249
630Q249 573 225 517T154 419Q130 419 112 423T78 439Q108 469 119 491T131 538Q131 560 114 570T60 584Q60 618 62 641T76 698Q116 700 145 708T198 731Z" />
<glyph unicode="&#x201e;" horiz-adv-x="520" d="M406 156Q435 148 447 128T460 55Q460 -2 433 -61T356 -164Q332 -164 314 -160T280 -144Q312 -112 323 -87T335 -37Q335 -15 320 -5T274 9Q274 43 277 69T290 122Q360 125 406 156ZM198 156Q227 148 238 127T249
55Q249 -2 225 -58T154 -156Q130 -156 112 -152T78 -136Q108 -106 119 -84T131 -37Q131 -15 114 -5T60 9Q60 43 62 66T76 123Q116 125 145 133T198 156Z" />
<glyph unicode="&#x2022;" horiz-adv-x="440" d="M223 102Q167 102 131 125T78 184T60 262Q60 326 105 368T223 410Q275 410 309 389T362 334T380 260Q380 192 339 147T223 102Z" />
<glyph unicode="&#x2039;" horiz-adv-x="286" d="M186 407Q209 407 234 397T269 378Q253 355 241 336T216 296T191 250Q210 213 227 188T269 131Q259 112 235 92T191 62Q157 107 127 140T60 205Q60 227 63 254T73 295Q105 321 130 347T186 407Z" />
<glyph unicode="&#x203a;" horiz-adv-x="302" d="M85 53Q64 64 49 78T22 113Q48 146 68 175T106 234Q95 260 81 285T52 335T17 388Q30 398 50 405T96 412Q121 388 139 371T177 336T225 295Q234 274 238 255T242 215Q200 175 160 134T85 53Z" />
</font>
</defs>
</svg>
