<?xml version="1.0" standalone="no"?>
<!DOCTYPE svg PUBLIC "-//W3C//DTD SVG 1.1//EN" "http://www.w3.org/Graphics/SVG/1.1/DTD/svg11.dtd">
<svg xmlns="http://www.w3.org/2000/svg">
<defs >
<font id="Vollkorn" horiz-adv-x="549" ><font-face
    font-family="Vollkorn Black"
    units-per-em="1000"
    panose-1="0 0 0 0 0 0 0 0 0 0"
    ascent="952"
    descent="-441"
    alphabetic="0" />
<glyph unicode=" " horiz-adv-x="200" />
<glyph unicode="!" horiz-adv-x="427" d="M353 717Q376 710 382 690T374 623Q361 583 343 520T306 385T269 245Q242 243 215 245T168 258Q175 329 179 399T185 538T187 675Q228 680 273 690T353 717ZM189 -9Q134 -9 104 23T86 114Q94 154 122 175T201 197Q230
197 254 183T292 142T297 75Q290 36 264 14T189 -9Z" />
<glyph unicode="&quot;" horiz-adv-x="403" d="M246 717Q264 709 267 688T258 635Q243 599 226 541T192 411Q172 411 153 414T118 426Q129 493 134 561T140 687Q170 690 197 697T246 717ZM416 717Q434 709 437 688T428 635Q413 599 396 541T362 411Q342 411 323
414T288 426Q299 493 304 561T310 687Q340 690 367 697T416 717Z" />
<glyph unicode="#" horiz-adv-x="624" d="M414 -9Q389 -9 365 -3T330 14L459 717Q484 717 509 710T542 694L414 -9ZM30 180Q30 206 32 229T45 273H580Q580 251 577 229T565 184H471Q359 184 273 184T127 183T30 180ZM186 -9Q165 -9 141 -2T103 18L231 717Q257
717 281 710T314 692L186 -9ZM75 429Q75 456 78 476T91 522H614Q614 496 611 474T600 432H515Q402 432 320 432T178 432T75 429Z" />
<glyph unicode="$" horiz-adv-x="533" d="M213 -9Q159 -9 122 -2T56 21T-7 62Q7 98 16 137T31 218Q60 223 90 224T149 219Q142 145 164 109T240 73Q270 73 295 89T325 131Q331 163 312 185T262 227T195 269T130 324T86 403T85 520Q95 575 132 611T224 666T343
685Q408 685 454 671T526 636Q521 597 518 554T515 481Q465 465 404 471Q403 536 378 570T305 605Q277 605 259 594T235 558Q229 528 243 507T283 467T341 432T405 393T461 344T497 276T499 183Q489 124 449 81T348 15T213 -9ZM238 -85Q216 -85 193 -81T151 -66L234
361L314 328Q295 233 277 134T238 -85ZM324 328L244 361L321 758Q345 758 365 755T407 743Q382 625 362 525T324 328Z" />
<glyph unicode="%" horiz-adv-x="791" d="M198 -9Q177 -2 160 18T139 59L649 685Q697 666 707 617Q646 544 595 483T497 365T406 252T310 132T198 -9ZM584 -9Q502 -9 463 41T441 174Q455 235 503 272T616 309Q694 309 731 260T751 128Q737 67 691 29T584 -9ZM590
67Q610 67 625 83T646 125Q655 174 644 203T604 233Q583 233 567 217T546 175Q537 126 549 97T590 67ZM224 359Q142 359 103 409T81 542Q95 603 143 640T256 677Q334 677 371 628T391 496Q377 435 331 397T224 359ZM230 435Q250 435 265 451T286 493Q295 542 284
571T244 601Q223 601 207 585T186 543Q177 494 189 465T230 435Z" />
<glyph unicode="&amp;" horiz-adv-x="818" d="M408 717Q486 717 536 698T608 643T619 556Q610 509 585 479T526 429T453 395T374 367T301 332T243 281T210 201Q202 157 217 127T263 82T333 66Q385 66 436 78T531 115T605 174T644 254Q654 304 626 327T540 350Q540
393 552 426Q579 428 615 435T685 450T739 467Q773 457 788 420T791 315Q779 252 735 194T624 90T470 18T285 -9Q187 -9 120 13T23 85T7 211Q16 260 43 292T109 345T192 380T281 408T364 439T428 483T463 550Q471 588 454 615T398 642Q372 642 356 629T335 593Q331
572 336 549T358 493T409 415T493 304Q546 236 580 197T638 140T682 117T726 112Q743 112 758 116T790 130Q801 121 812 100T823 65Q811 50 784 33T720 3T645 -9Q608 -9 579 -6T524 10T468 48T403 115T317 222Q255 303 219 359T165 455T144 528T147 593Q153 626
178 654T259 699T408 717Z" />
<glyph unicode="&apos;" horiz-adv-x="233" d="M246 717Q264 709 267 688T258 635Q243 599 226 541T192 411Q172 411 153 414T118 426Q129 493 134 561T140 687Q170 690 197 697T246 717Z" />
<glyph unicode="(" horiz-adv-x="347" d="M317 741Q340 743 361 737T394 719Q342 660 306 597T244 459T202 286Q175 130 183 -10T232 -255Q217 -264 198 -267T159 -271Q111 -199 81 -110T42 77T49 270Q66 367 96 446T179 597T317 741Z" />
<glyph unicode=")" horiz-adv-x="335" d="M187 741Q267 623 293 502T297 245Q279 140 245 53T155 -112T17 -271Q-3 -271 -23 -267T-60 -252Q-3 -174 36 -101T101 52T143 224Q170 378 164 499T116 719Q131 730 150 735T187 741Z" />
<glyph unicode="*" horiz-adv-x="505" d="M410 652Q385 672 349 679T272 682Q277 641 279 605T281 530Q248 560 226 584T179 641Q148 622 131 591T109 523Q153 516 185 508T253 486Q219 467 188 452T118 422Q133 341 206 315Q228 354 247 383T289 444Q297 402
300 367T305 290Q349 289 384 305T444 350Q413 380 389 406T339 465Q380 459 415 451T493 430Q504 473 501 508T478 578Q445 562 410 549T335 523Q351 556 370 589T410 652Z" />
<glyph unicode="+" horiz-adv-x="550" d="M277 0Q252 -2 230 1T190 16L284 504Q307 508 328 507T371 496Q345 375 322 251T277 0ZM34 218Q35 242 40 264T59 305H529Q528 282 523 261T505 222Q449 222 394 222T282 222T164 221T34 218Z" />
<glyph unicode="," horiz-adv-x="270" d="M173 185Q192 177 203 151T203 65Q189 -14 147 -77T45 -184Q22 -181 7 -172T-17 -147Q19 -113 40 -82T66 -26T56 16T2 38Q2 69 9 96T33 148Q73 150 110 160T173 185Z" />
<glyph unicode="-" horiz-adv-x="367" d="M43 206Q47 241 52 264T68 306H333Q332 277 328 255T312 209Q263 209 196 209T43 206Z" />
<glyph unicode="." horiz-adv-x="289" d="M139 -11Q73 -11 37 27T16 137Q25 185 59 210T154 236Q188 236 217 220T262 171T269 90Q260 43 229 16T139 -11Z" />
<glyph unicode="/" horiz-adv-x="302" d="M301 717Q350 716 381 687Q338 601 304 533T241 404T184 282T123 151T51 -9Q26 -6 6 4T-28 31L301 717Z" />
<glyph unicode="0" horiz-adv-x="611" d="M286 -9Q192 -9 134 29T54 136T49 296Q62 364 100 411T200 484T343 509Q435 509 491 472T569 369T573 214Q560 143 522 93T424 17T286 -9ZM299 69Q325 69 346 97T377 172Q392 250 389 308T368 398T318 430Q292 430 271
401T241 322Q228 246 231 189T251 101T299 69Z" />
<glyph unicode="1" horiz-adv-x="448" d="M26 -3Q28 19 31 37T43 75Q68 79 81 86T101 114T117 177L144 325Q151 364 150 384T137 412T95 425Q92 442 92 462T94 503Q131 501 172 501T262 500Q301 500 345 500T434 503Q434 484 431 465T420 425Q393 422 380 414T359
381T341 305L317 180Q309 136 310 116T324 88T364 75Q367 56 367 37T366 -3Q323 -1 286 -1T199 0Q145 0 103 0T26 -3Z" />
<glyph unicode="2" horiz-adv-x="526" d="M298 506Q243 506 188 495T90 458Q89 426 85 390T71 323Q91 313 119 308T182 304Q188 356 195 383T214 420T242 430Q268 430 282 412T289 358Q282 321 254 294T173 226Q152 210 133 196T96 166T60 133T21 92Q19 68 23
41T38 -3Q89 -1 141 -1T240 0Q289 0 328 -1T381 -3Q405 -3 421 5T448 38Q445 71 449 115T463 198Q445 207 417 211T368 211Q361 179 352 168T325 156Q316 156 299 157T262 159Q247 159 233 159T200 156L191 140Q206 152 219 161T243 179T266 195T288 208T312 222T339
238Q387 266 417 286T463 327T484 376Q495 437 448 471T298 506Z" />
<glyph unicode="3" horiz-adv-x="513" d="M85 458Q84 427 79 390T65 323Q89 312 120 308T177 304Q185 376 198 403T238 430Q269 430 283 405T289 340Q279 288 240 262T132 219Q128 200 130 176T143 138Q207 143 236 107T253 11Q243 -38 211 -64T125 -91Q100 -91
79 -87T41 -75Q35 -78 27 -90T14 -117T7 -141Q47 -171 132 -171Q207 -171 271 -148T381 -80T443 28Q458 83 444 129T390 208T289 254L249 198Q335 224 381 249T447 301T475 357Q492 426 446 466T285 506Q227 506 178 495T85 458Z" />
<glyph unicode="4" horiz-adv-x="605" d="M250 -171Q216 -154 223 -116L254 44L283 123L294 177Q304 225 313 262T331 327T351 377H362Q340 345 318 317T271 262T220 211T164 160T100 104L118 139H316L405 149H504Q538 149 548 116Q538 94 529 64T513 0Q350 0
225 -1T32 -5Q20 18 15 46T11 102Q114 203 212 303T408 506Q441 506 471 503T532 489L409 -153Q320 -143 250 -171Z" />
<glyph unicode="5" horiz-adv-x="497" d="M36 206Q33 167 54 138Q117 131 157 115T214 71T221 1Q214 -30 196 -50T151 -80T88 -90Q71 -90 51 -88T11 -78Q-14 -105 -22 -148Q-5 -158 26 -164T100 -171Q174 -171 239 -149T350 -83T413 31Q430 100 404 154T308 243T119
290L132 265L165 379L144 340Q185 342 246 342T398 343Q438 343 450 373Q454 414 460 459T480 548Q459 556 431 557T380 555Q376 529 361 515T322 500Q276 500 229 500T125 503L36 206Z" />
<glyph unicode="6" horiz-adv-x="603" d="M53 291Q74 395 136 470T300 588T535 638Q551 614 537 565Q413 540 336 470T239 294Q226 224 226 175T239 101T276 75Q308 75 329 99T359 169Q372 234 353 274T290 314Q272 314 257 311T223 300L245 368Q287 382 320 388T389
395Q482 395 527 339T555 191Q543 127 505 83T407 15T266 -9Q135 -9 80 69T53 291Z" />
<glyph unicode="7" horiz-adv-x="491" d="M473 503Q484 484 489 463T493 421Q446 361 415 318T363 243T329 183T305 129Q296 105 289 74T278 -2T274 -107Q235 -115 195 -131T124 -170Q106 -163 95 -145T84 -101Q84 -82 88 -59T107 -1T155 87T245 217T392 402L401
341H250Q214 341 194 328T166 284Q132 283 107 288T61 303Q90 404 100 503Q143 501 191 501T290 500Q314 500 346 500T413 501T473 503Z" />
<glyph unicode="8" horiz-adv-x="585" d="M365 637Q441 637 489 620T557 570T567 492Q558 450 526 419T432 362L349 409Q369 426 380 445T396 491Q402 527 391 548T352 569Q333 569 319 558T299 526Q290 496 302 473T335 432T377 402Q406 385 438 362T495 306T531
234T528 142Q508 68 443 30T262 -9Q181 -9 125 11T44 71T35 174Q49 231 87 268T184 331L260 274Q250 261 241 243T227 196Q217 145 230 107T278 69Q300 69 315 85T336 130Q344 167 334 191T296 239T217 297Q175 326 149 358T113 426T115 501Q134 569 198 603T365
637Z" />
<glyph unicode="9" horiz-adv-x="599" d="M351 506Q428 506 480 474T554 377T556 216Q534 104 464 22T285 -110T33 -169Q26 -158 25 -139T31 -96Q121 -78 181 -45T280 34T339 131T371 238Q390 339 376 380T330 422Q299 422 279 396T250 331Q242 288 245 252T266
195T317 173Q332 173 344 176T371 187L353 122Q326 109 290 101T216 92Q156 92 116 118T60 193T57 313Q74 401 149 453T351 506Z" />
<glyph unicode=":" horiz-adv-x="288" d="M117 -1Q62 -1 32 31T14 122Q22 162 50 183T129 205Q158 205 182 191T220 150T225 83Q218 44 192 22T117 -1ZM168 261Q113 261 83 293T65 384Q73 424 101 445T180 467Q209 467 233 453T271 412T276 345Q269 306 243 284T168 261Z" />
<glyph unicode=";" horiz-adv-x="289" d="M181 185Q200 177 211 151T211 65Q197 -14 155 -77T53 -184Q30 -181 15 -172T-9 -147Q27 -113 48 -82T74 -26T64 16T10 38Q10 69 17 96T41 148Q81 150 118 160T181 185ZM168 261Q113 261 83 293T65 384Q73 424 101 445T180
467Q209 467 233 453T271 412T276 345Q269 306 243 284T168 261Z" />
<glyph unicode="&lt;" horiz-adv-x="550" d="M413 -7Q314 59 224 113T51 213Q52 237 59 261T83 307L452 503Q477 496 494 479T527 433L166 260L444 89Q445 65 437 36T413 -7Z" />
<glyph unicode="=" horiz-adv-x="550" d="M32 117Q32 140 35 163T46 206H492Q492 183 489 161T478 118Q438 119 407 119T344 119T268 119Q224 119 188 119T115 119T32 117ZM69 303Q69 331 72 352T83 392H527Q527 367 525 347T513 304Q473 305 442 305T380 305T304
305Q260 305 224 305T152 305T69 303Z" />
<glyph unicode="&gt;" horiz-adv-x="550" d="M90 1Q74 19 68 43T67 98L422 278L415 241L110 453Q123 472 145 488T193 512L494 294Q499 246 466 206Q404 176 346 145T227 80T90 1Z" />
<glyph unicode="?" horiz-adv-x="545" d="M194 672Q235 694 281 705T374 717Q484 717 537 679T576 570Q569 530 547 504T495 457T436 416T383 368T352 300Q350 285 350 272T352 242Q335 232 310 227T262 223Q240 238 230 274T227 351Q234 388 250 413T285 455T324
489T358 525T379 574Q386 610 375 625T346 640Q333 640 321 629T294 590T263 506Q230 506 208 511T166 529Q179 570 185 603T194 672ZM274 -10Q219 -10 189 22T171 113Q179 153 207 174T286 196Q315 196 339 182T377 141T382 74Q375 35 349 13T274 -10Z" />
<glyph unicode="@" horiz-adv-x="892" d="M529 660Q661 660 745 616T864 487T877 284Q867 224 841 171T778 78T695 14T601 -9Q564 -9 542 3T509 40T498 97T508 172H490L555 389L478 446Q545 446 601 450T709 467Q723 456 730 444T738 416T735 379L690 184Q682
150 682 133T685 110T696 104Q714 104 730 122T761 176T786 263Q804 367 777 439T681 548T503 586Q407 586 329 548T198 439T129 272Q107 146 137 58T248 -77T453 -124Q525 -124 594 -100T720 -35Q736 -41 745 -55T758 -83Q702 -136 620 -169T436 -202Q291 -202
191 -148T49 11T32 264Q53 383 122 472T296 610T529 660ZM610 447L542 381Q531 386 511 389T479 393Q440 393 420 357T387 264Q372 194 378 159T410 124Q427 124 448 142T491 207T528 336L547 416L576 409L533 187H518Q494 118 464 75T398 11T315 -9Q262 -9 232
14T188 75T175 154T182 232Q195 296 229 349T327 434T485 467Q524 467 554 462T610 447Z" />
<glyph unicode="A" horiz-adv-x="710" d="M-36 -3Q-35 20 -32 38T-21 75Q-4 78 9 87T40 117T81 176Q99 205 123 244T182 340T265 480T380 676Q400 681 417 681T457 682Q488 585 514 494T561 326T594 195Q606 144 615 119T634 85T658 75Q661 62 661 41T659 -3Q639
-1 608 -1T546 0T500 0Q488 0 465 0T414 0T363 -1T323 -3Q324 21 327 40T337 75Q379 83 388 100T389 151Q377 201 364 251T336 352Q326 385 320 433T315 528H352Q332 481 309 434T268 354Q241 303 212 253T153 152Q142 134 141 118T150 90T181 75Q183 57 183 38T179
-3Q168 -2 145 -2T98 -1T56 0Q31 0 6 0T-36 -3ZM123 153L151 231H396L406 166Q361 166 315 165T220 162T123 153Z" />
<glyph unicode="B" horiz-adv-x="712" d="M301 168Q293 124 298 104T316 79T345 74Q385 74 420 108T466 203Q477 265 449 285T354 306H285L299 389H371Q420 389 457 422T505 516Q512 557 491 579T431 601Q409 601 394 595T362 581L382 638L301 168ZM219 676Q259
676 320 677T445 679Q555 679 614 658T692 598T702 503Q694 453 649 417T520 368Q622 363 658 311T681 174Q672 121 635 82T527 22T342 0Q281 0 222 0T109 0T9 -3Q11 19 16 38T29 75Q55 77 68 85T89 118T106 197L159 501Q166 541 164 561T149 589T109 601Q105 618
105 639T108 679Q131 678 162 677T219 676Z" />
<glyph unicode="C" horiz-adv-x="613" d="M660 632Q648 597 640 559T627 477Q584 461 532 470Q539 526 529 555T497 596T444 608Q393 608 354 571T290 474T253 347Q240 272 249 213T295 120T400 85Q432 85 468 93T548 123Q560 110 566 93T573 54Q525 23 469 7T343
-9Q234 -9 162 38T61 169T51 362Q65 443 103 503T195 604T314 665T442 685Q503 685 557 674T660 632Z" />
<glyph unicode="D" horiz-adv-x="733" d="M421 678Q481 678 534 669T629 638T699 578T735 480T729 335Q712 241 674 180T586 82T484 28T385 5T309 0H164L178 75H358Q369 75 391 84T439 121T490 206T531 357Q544 433 540 481T520 556T478 593T424 603Q410 603 397
601T369 591L300 676Q324 676 354 677T421 678ZM109 679Q133 678 168 678T242 677T319 676T384 676L302 182Q294 136 296 113T313 83T359 75L309 0Q283 0 241 0T154 0T70 -1T11 -3Q12 17 16 36T29 75Q55 77 68 86T90 120T106 197L158 501Q165 541 163 561T148 590T109
601Q105 621 105 642T109 679Z" />
<glyph unicode="E" horiz-adv-x="638" d="M10 -3Q11 17 15 36T29 76Q55 78 68 87T90 121T107 197L160 501Q167 541 165 561T148 589T108 601Q105 620 105 638T108 679Q132 678 167 678T243 677T320 676T386 676L304 182Q296 136 298 113T317 83T363 75L310 0Q284
0 243 0T158 0T74 -1T10 -3ZM575 -3Q545 -1 499 -1T403 0T310 0L363 75H377Q411 75 437 88T484 133T521 218Q552 214 574 206T618 180Q606 145 594 96T575 -3ZM485 215Q461 216 440 219T399 230Q399 250 395 267T377 296T333 307H272L285 382H343Q388 382 405 394T428
449Q449 454 472 455T519 454Q512 426 506 395T495 325Q491 298 489 270T485 215ZM551 485Q549 520 540 546T505 586T430 601H332L376 676Q451 676 503 676T593 677T658 679Q651 638 648 590T649 497Q603 485 551 485Z" />
<glyph unicode="F" horiz-adv-x="606" d="M304 187Q297 144 299 123T321 92T386 75Q389 59 389 38T388 -3Q347 -1 298 -1T197 0Q148 0 98 0T6 -3Q11 42 25 75Q51 77 65 86T89 120T106 197L159 501Q166 541 164 561T149 589T109 601Q106 618 106 638T108 679Q154
678 205 677T303 676T385 676L304 187ZM657 679Q650 638 647 590T648 497Q602 485 550 485Q548 520 539 546T504 586T429 601H331L375 676Q450 676 502 676T592 677T657 679ZM440 403Q461 408 484 409T531 408Q524 380 518 349T507 279Q503 252 501 222T497 165Q473
166 452 169T411 180Q412 217 401 239T345 261H284L297 336H355Q400 336 417 348T440 403Z" />
<glyph unicode="G" horiz-adv-x="660" d="M452 685Q520 685 577 673T674 634Q664 603 656 561T642 480Q619 470 593 468T542 469Q546 520 538 550T507 594T448 607Q393 607 353 570T288 473T251 347Q241 286 242 236T257 148T294 91T354 71Q371 71 380 73T398
80Q406 85 411 93T421 116T429 155Q436 194 433 214T414 242T370 255Q367 272 367 292T369 333Q406 331 446 331T519 330Q558 330 595 330T676 333Q676 314 673 295T662 255Q644 253 634 247T616 216T598 135Q595 110 596 94T602 54Q553 27 485 9T343 -9Q234 -9
162 38T61 170T51 363Q65 445 103 505T197 606T317 665T452 685Z" />
<glyph unicode="H" horiz-adv-x="810" d="M406 -3Q408 19 412 37T425 75Q450 79 463 86T484 114T499 177L554 501Q561 540 560 560T547 588T505 601Q502 618 502 638T504 679Q541 677 582 677T672 676Q711 676 755 676T844 679Q844 660 841 641T830 601Q803 598
789 590T768 557T751 481L699 180Q692 138 693 117T706 88T742 75Q745 56 745 37T744 -3Q701 -1 666 -1T581 0Q526 0 484 0T406 -3ZM10 -3Q12 19 16 37T29 75Q54 79 67 86T88 114T103 177L158 501Q165 540 164 560T151 588T109 601Q106 618 106 638T108 679Q145
677 186 677T276 676Q315 676 359 676T448 679Q448 660 445 641T434 601Q407 598 393 590T372 557T355 481L303 180Q296 138 297 117T310 88T346 75Q349 56 349 37T348 -3Q305 -1 270 -1T185 0Q130 0 88 0T10 -3ZM247 285L260 377H572L561 296Q522 296 481 296T399
294T319 291T247 285Z" />
<glyph unicode="I" horiz-adv-x="414" d="M158 501Q165 540 164 560T151 588T109 601Q106 618 106 638T108 679Q145 677 186 677T276 676Q315 676 359 676T448 679Q448 660 445 641T434 601Q407 598 393 590T372 557T355 481L303 180Q296 138 297 117T310 88T346
75Q349 56 349 37T348 -3Q305 -1 270 -1T185 0Q130 0 88 0T10 -3Q12 19 16 37T29 75Q54 79 67 86T88 114T103 177L158 501Z" />
<glyph unicode="J" horiz-adv-x="386" d="M108 679Q144 677 189 677T280 676Q310 676 340 676T398 677T448 679Q447 636 436 601Q410 599 396 591T373 558T354 478L292 125Q280 56 261 0T207 -101T115 -181T-32 -246Q-51 -230 -57 -208T-63 -159Q-23 -139 5 -113T52
-42T83 72L157 498Q165 540 164 561T151 590T110 601Q106 620 106 640T108 679Z" />
<glyph unicode="K" horiz-adv-x="784" d="M108 679Q145 677 186 677T276 676Q315 676 359 676T448 679Q448 660 445 641T434 601Q407 598 393 590T372 557T355 481L302 177Q295 136 296 116T307 87T336 75Q339 56 339 37T338 -3Q310 -1 288 -1T242 0T185 0Q130
0 88 0T10 -3Q12 19 16 37T29 75Q59 77 72 88T91 125T106 197L158 501Q165 540 164 560T151 588T109 601Q106 618 106 638T108 679ZM535 679Q564 677 599 677T661 676Q683 676 710 676T762 677T798 679Q798 660 795 641T784 600Q757 598 737 592T692 570T627 519L440
364L451 412Q502 369 541 313T612 182Q626 148 639 135T672 122Q685 122 698 125T721 134Q732 123 741 104T752 67Q718 30 672 11T573 -9Q508 -9 471 18T412 114Q391 182 364 235T294 344L494 516Q530 547 544 563T556 588T536 601Q533 618 533 638T535 679Z" />
<glyph unicode="L" horiz-adv-x="640" d="M10 -3Q12 18 16 36T29 75Q56 78 69 87T90 121T106 197L159 501Q166 540 165 560T151 588T109 601Q105 618 105 638T108 679Q145 677 187 677T281 676Q320 676 372 676T468 679Q468 660 465 641T454 601Q418 597 400 588T373
555T355 481L303 182Q295 136 297 113T314 83T359 75H376Q410 75 436 92T482 142T518 225Q550 218 574 207T620 179Q608 150 594 99T574 -3Q540 -1 495 -1T402 0T314 0Q286 0 242 0T151 0T66 -1T10 -3Z" />
<glyph unicode="M" horiz-adv-x="975" d="M352 -9Q321 126 285 259T208 522H228Q218 473 205 418T178 311T154 218Q141 168 139 139T148 96T190 75Q193 57 193 37T191 -3Q171 -1 144 -1T88 0Q54 0 20 0T-36 -3Q-36 17 -32 37T-21 75Q0 82 14 95T42 137T71 216Q89
273 103 321T129 416T152 514Q160 549 159 566T146 590T107 601Q103 618 103 638T106 679Q124 678 150 677T201 676T240 676Q267 676 305 676T380 679Q415 561 445 442T501 200H452Q524 319 590 438T718 679Q759 677 797 677T857 676Q884 676 911 676T976 679Q976
658 973 638T963 601Q937 596 923 584T903 546T894 475Q890 407 887 338T877 201Q873 153 874 127T886 89T923 75Q927 58 927 38T924 -3Q887 -1 846 -1T751 0Q712 0 665 0T574 -3Q574 16 577 36T588 75Q623 79 639 90T663 130T676 210Q684 287 689 364T699 519H719Q652
387 579 257T428 -3Q406 -7 388 -8T352 -9Z" />
<glyph unicode="N" horiz-adv-x="712" d="M21 75Q50 84 68 97T98 138T119 218L189 615L262 607L195 218Q186 166 186 138T201 97T251 75Q254 57 254 37T252 -3Q218 -1 187 -1T133 0Q105 0 72 0T6 -3Q8 42 21 75ZM108 679Q139 677 172 677T235 676Q263 676 294
676T351 679Q413 582 471 478T580 270L500 -9Q424 140 343 285T175 573Q166 588 154 593T109 601Q105 619 105 638T108 679ZM529 679Q563 677 594 677T648 676Q677 676 710 676T775 679Q774 659 770 638T760 601Q732 592 716 579T691 538T672 458L592 1Q571 -5
550 -7T500 -9L558 225L593 458Q601 510 600 538T582 579T530 601Q527 619 527 639T529 679Z" />
<glyph unicode="O" horiz-adv-x="742" d="M339 -9Q229 -9 158 37T58 165T49 351Q64 431 100 493T188 598T305 663T444 685Q551 685 623 641T726 519T737 334Q718 232 663 155T526 34T339 -9ZM348 69Q392 69 428 104T492 204T535 353Q548 425 541 483T507 575T434
610Q392 610 357 579T295 491T254 355Q242 295 241 243T251 152T286 91T348 69Z" />
<glyph unicode="P" horiz-adv-x="664" d="M12 -3Q14 15 18 36T30 76Q56 78 69 87T90 121T107 197L160 501Q167 541 165 561T150 589T110 601Q103 636 108 679Q139 678 168 677T225 676T281 676Q329 676 380 677T499 679Q610 679 658 613T687 428Q676 366 639 318T541
242T399 215Q385 215 373 217T350 224Q349 238 353 261T363 297Q365 296 368 296T380 295Q415 295 450 330T497 432Q511 507 491 554T415 601Q402 601 392 599T368 590L377 605L305 187Q298 144 301 122T324 91T387 75Q391 56 391 37T389 -3Q348 -1 300 -1T208
0Q151 0 102 0T12 -3Z" />
<glyph unicode="Q" horiz-adv-x="742" d="M339 -9Q229 -9 158 37T58 165T49 351Q64 431 100 493T188 598T305 663T444 685Q551 685 623 641T726 519T737 334Q718 232 663 155T526 34T339 -9ZM348 69Q392 69 428 104T492 204T535 353Q548 425 541 483T507 575T434
610Q392 610 357 579T295 491T254 355Q242 295 241 243T251 152T286 91T348 69ZM573 -219Q515 -219 481 -192T428 -109Q412 -59 387 -36T315 -8L456 17Q484 13 504 5T549 -20T612 -72Q630 -88 642 -93T668 -98Q680 -98 692 -94T715 -79Q726 -90 736 -109T748 -145Q725
-169 698 -185T639 -210T573 -219Z" />
<glyph unicode="R" horiz-adv-x="756" d="M487 681Q576 681 628 653T701 577T712 473Q703 420 671 379T593 311T495 277L345 259Q334 259 324 259T303 260L320 350Q331 348 339 348T354 347Q385 347 415 363T469 411T501 489Q512 546 491 574T426 603Q409 603
395 599T365 587L385 654L302 177Q295 136 295 116T304 87T332 75Q335 56 335 37T334 -3Q306 -1 285 -1T241 0T185 0Q130 0 88 0T10 -3Q12 19 16 37T29 75Q53 77 66 86T89 120T106 197L158 501Q165 540 164 560T151 588T109 601Q106 618 106 638T108 679Q145 677
190 677T283 676Q312 676 369 678T487 681ZM487 293Q510 285 528 269T564 228T596 165Q607 137 619 128T648 118Q661 118 672 122T691 131Q702 120 712 101T724 65Q690 28 641 10T539 -9Q499 -9 472 5T425 51T386 141Q373 181 362 205T339 246T308 283L487 293Z"
/>
<glyph unicode="S" horiz-adv-x="533" d="M213 -9Q159 -9 122 -2T56 21T-7 62Q7 98 16 137T31 218Q60 223 90 224T149 219Q142 145 164 109T240 73Q270 73 295 89T325 131Q331 163 312 185T262 227T195 269T130 324T86 403T85 520Q95 575 132 611T224 666T343
685Q408 685 454 671T526 636Q521 597 518 554T515 481Q465 465 404 471Q403 536 378 570T305 605Q277 605 259 594T235 558Q229 528 243 507T283 467T341 432T405 393T461 344T497 276T499 183Q489 124 449 81T348 15T213 -9Z" />
<glyph unicode="T" horiz-adv-x="641" d="M304 601Q249 601 216 569T157 472Q128 472 105 476T62 493Q72 517 81 550T96 617T106 679Q147 678 186 677T275 676T393 676Q457 676 502 676T590 677T683 679Q679 638 677 585T680 483Q658 476 633 474T580 473Q575
539 556 570T486 601H304ZM298 641H498L419 187Q412 147 414 125T436 93T500 75Q504 56 504 36T503 -3Q470 -1 419 -1T307 0Q240 0 183 0T85 -3Q87 19 92 39T103 75Q147 81 169 90T202 123T221 197L298 641Z" />
<glyph unicode="U" horiz-adv-x="677" d="M337 -9Q191 -9 139 59T110 259L153 501Q160 540 159 560T146 588T104 601Q101 618 101 638T103 679Q140 677 181 677T271 676Q310 676 354 676T443 679Q443 660 440 641T429 601Q402 598 388 590T367 557T350 481L311
266Q292 165 312 119T385 72Q450 72 484 126T534 267L571 477Q580 530 581 554T572 586T534 601Q531 619 531 638T533 679Q565 677 593 677T641 676Q673 676 695 676T745 679Q744 660 741 639T731 601Q710 598 698 594T677 577T663 538T649 466L616 277Q598 174
566 111T479 20T337 -9Z" />
<glyph unicode="V" horiz-adv-x="689" d="M92 679Q118 678 149 677T207 676T249 676Q267 676 297 676T361 677T427 679Q426 655 422 635T413 601Q385 598 373 586T360 551T370 494Q392 414 408 339T439 168L411 187Q471 283 509 356T571 485Q590 529 592 552T583
587T548 601Q541 636 547 679Q572 677 607 677T664 676Q692 676 714 676T767 679Q765 637 753 601Q736 598 723 587T696 551T660 482Q602 364 538 247T394 0Q375 -6 350 -7T303 -9Q282 77 260 163T213 334T165 500Q153 542 144 562T123 589T93 601Q90 615 90 636T92
679Z" />
<glyph unicode="W" horiz-adv-x="977" d="M92 679Q118 678 149 677T207 676T249 676Q267 676 297 676T361 677T427 679Q426 655 422 635T413 601Q380 597 364 581T346 535T350 466Q356 433 362 393T376 304T388 198L344 208Q408 324 468 441T585 676Q625 685 665
682Q690 598 709 520T746 363T778 199L737 208Q770 273 799 338T854 468Q872 514 875 542T869 584T836 601Q829 636 835 679Q860 677 895 677T952 676Q980 676 1002 676T1055 679Q1053 637 1041 601Q1023 598 1008 584T974 539T930 448Q882 336 831 223T724 -3Q708
-7 675 -6T618 3Q602 85 587 157T553 301T512 458L554 449Q500 334 443 221T323 -4Q310 -7 290 -7T252 -3T221 5Q205 136 187 260T149 485Q140 533 134 556T119 588T93 601Q90 615 90 636T92 679Z" />
<glyph unicode="X" horiz-adv-x="684" d="M289 -3Q290 21 294 41T303 75Q332 79 341 90T343 135T309 235Q297 267 278 311T234 407T183 508Q165 544 152 562T127 589T95 601Q92 615 92 636T94 679Q120 678 153 677T216 676T260 676Q278 676 308 676T372 677T438
679Q437 655 433 635T424 601Q381 596 377 576T399 498Q422 448 445 395T487 295T520 215Q543 159 558 131T590 92T632 75Q635 61 635 41T633 -3Q608 -1 574 -1T511 0T467 0Q449 0 419 0T355 0T289 -3ZM-36 -3Q-34 39 -22 75Q11 80 34 89T78 115T122 158Q165 206
205 255T272 344L330 295Q311 268 284 234T226 165Q192 126 190 103T210 75Q214 57 214 38T211 -3Q186 -1 151 -1T94 0Q66 0 31 0T-36 -3ZM449 323L386 369Q412 396 440 431T493 498Q525 538 533 559T534 589T512 601Q505 636 511 679Q536 677 571 677T628 676Q656
676 684 676T744 679Q743 659 740 639T730 601Q707 597 690 590T654 567T612 520Q561 454 523 408T449 323Z" />
<glyph unicode="Y" horiz-adv-x="605" d="M259 166Q238 253 214 338T160 509Q148 546 138 564T118 590T93 601Q90 615 90 636T92 679Q118 678 149 677T207 676T249 676Q267 676 297 676T361 677T427 679Q426 655 422 635T413 601Q370 596 362 577T365 521Q380
472 391 419T412 308L392 326Q420 376 445 425T493 526Q509 561 504 578T464 601Q457 636 463 679Q488 677 523 677T580 676Q608 676 630 676T683 679Q681 637 669 601Q658 599 648 593T624 569T590 515Q537 423 483 337T370 166H259ZM87 -3Q89 19 94 39T105 75Q149
81 171 90T204 123T223 197L239 291H439L421 187Q414 147 416 125T438 93T502 75Q506 56 506 36T505 -3Q472 -1 421 -1T309 0Q242 0 185 0T87 -3Z" />
<glyph unicode="Z" horiz-adv-x="570" d="M6 -3Q-4 12 -9 32T-14 78Q65 178 133 267T266 445T399 636L457 601H328Q296 601 273 588T229 543T186 451Q118 454 80 482Q93 510 104 545T123 615T137 679Q164 678 206 677T292 676T369 676Q405 676 446 676T528 677T599
679Q620 648 617 600Q549 501 484 410T351 227T203 33L168 75H266Q300 75 325 82T371 106T408 151T442 221Q502 212 546 180Q536 155 525 123T505 57T491 -3Q452 -1 406 -1T316 0T234 0Q191 0 151 0T74 0T6 -3Z" />
<glyph unicode="[" horiz-adv-x="309" d="M141 742Q177 741 213 741T286 740T358 742Q364 723 363 702T356 659Q312 656 289 649T255 625T239 575L120 -96Q114 -130 117 -148T140 -174T197 -184Q204 -225 190 -268Q169 -267 140 -267T80 -266T18 -266T-37 -268L141 742Z" />
<glyph unicode="\" horiz-adv-x="305" d="M94 702Q134 724 180 713L260 0Q243 -8 219 -10T172 -9Q163 105 151 226T125 467T94 702Z" />
<glyph unicode="]" horiz-adv-x="308" d="M170 -269Q136 -267 96 -267T16 -266T-58 -269Q-59 -249 -54 -225T-38 -184Q2 -182 23 -175T56 -149T73 -96L192 575Q198 608 194 624T171 648T108 659Q108 682 114 704T130 742Q165 741 199 741T270 740T348 742L170 -269Z" />
<glyph unicode="^" horiz-adv-x="460" d="M283 692Q298 699 321 700T360 696Q375 655 394 604T435 501T474 407Q463 400 438 395T395 394L310 613Q277 574 243 534T178 456T120 383Q74 387 59 428L283 692Z" />
<glyph unicode="_" horiz-adv-x="550" d="M-51 -153Q-51 -130 -48 -110T-37 -72H467Q467 -90 465 -112T453 -152Q395 -151 354 -151T277 -151T195 -151Q156 -151 120 -151T43 -152T-51 -153Z" />
<glyph unicode="`" horiz-adv-x="300" d="M541 705Q548 668 559 624T585 542Q564 536 538 536T491 543Q468 582 443 617T379 696Q415 706 457 709T541 705Z" />
<glyph unicode="a" horiz-adv-x="625" d="M558 467Q572 456 579 444T587 416T584 379L539 184Q527 133 528 119T543 104Q550 104 557 107T574 118Q584 108 594 89T606 52Q573 20 535 6T450 -9Q418 -9 397 0T365 26T350 64T350 110Q352 125 354 137T361 162T373
195L404 389L327 446Q394 446 450 450T558 467ZM459 447L391 381Q380 386 360 389T328 393Q289 393 269 357T236 264Q221 194 227 159T259 124Q276 124 297 142T340 207T377 336L396 416L425 409L382 187H367Q343 118 313 75T247 11T164 -9Q111 -9 81 14T37 75T24
154T31 232Q44 296 78 349T176 434T334 467Q373 467 403 462T459 447Z" />
<glyph unicode="b" horiz-adv-x="623" d="M311 710Q331 692 337 676T337 622Q326 558 317 511T300 429T285 367T270 317T253 271L215 70L288 -9Q201 -9 135 14T26 80Q40 101 51 131T72 217L123 506Q129 542 129 561T115 587T70 594Q70 612 73 632T83 669Q145 671
203 681T311 710ZM163 11L231 77Q242 72 262 69T294 65Q333 65 353 102T386 194Q401 265 395 299T363 334Q346 334 325 316T282 251T245 122L226 42L197 49L240 271H255Q279 340 309 383T376 447T458 467Q511 467 541 444T585 383T598 304T591 226Q579 163 544
110T447 24T288 -9Q249 -9 219 -4T163 11Z" />
<glyph unicode="c" horiz-adv-x="473" d="M227 -9Q159 -9 116 10T52 64T26 142T31 234Q38 271 56 311T109 387T198 445T332 467Q374 467 411 457T471 431Q461 403 456 376T451 322Q410 307 364 316Q366 348 358 369T322 391Q306 391 289 380T259 342T237 271Q230
235 228 204T233 148T258 111T308 98Q341 98 370 108T420 129Q431 110 435 91T437 47Q391 16 344 4T227 -9Z" />
<glyph unicode="d" horiz-adv-x="620" d="M452 -9Q405 -9 382 9T352 54T350 107Q352 121 356 136T366 170T379 208L404 385Q394 408 393 444T396 506Q402 542 402 561T389 587T343 594Q343 612 346 632T356 669Q397 670 437 675T514 688T584 710Q604 692 610 676T610
622L532 182Q526 147 525 131T526 109T536 104Q542 104 549 107T569 118Q579 108 589 89T601 52Q570 21 532 6T452 -9ZM459 447L391 381Q380 386 360 389T328 393Q289 393 269 357T236 264Q221 194 227 159T259 124Q276 124 297 142T340 207T377 336L396 416L425
409L382 187H367Q343 118 313 75T247 11T164 -9Q111 -9 81 14T37 75T24 154T31 232Q44 296 78 349T176 434T334 467Q373 467 403 462T459 447Z" />
<glyph unicode="e" horiz-adv-x="519" d="M227 -9Q159 -9 116 10T52 64T26 142T31 234Q45 304 86 356T190 438T332 467Q394 467 434 450T491 404T502 336Q497 309 475 281T416 228T325 188T203 172L206 249Q275 250 320 273T372 333Q378 364 368 379T330 395Q302
395 276 366T237 271Q227 223 227 184T246 121T308 98Q341 98 370 108T420 129Q431 110 435 91T437 47Q391 16 344 4T227 -9Z" />
<glyph unicode="f" horiz-adv-x="414" d="M424 714Q466 714 500 709T550 696Q544 676 538 646T528 587T524 537Q516 533 498 530T460 526T423 524Q423 547 423 574T417 620T395 639Q377 639 365 623T342 565T317 448Q302 369 291 305T269 167Q257 86 230 12T162
-121T69 -214T-47 -248Q-78 -248 -106 -237T-157 -199Q-157 -176 -151 -146T-134 -95Q-110 -107 -83 -112T-27 -117Q-3 -117 13 -112T40 -90T58 -44T69 35Q75 103 88 214T123 454Q135 516 153 564T203 645T289 696T424 714ZM41 448H128V348Q97 360 71 364T27 369Q27
390 30 412T41 448ZM290 448H409Q409 424 407 401T399 365Q370 365 345 362T290 349V448Z" />
<glyph unicode="g" horiz-adv-x="591" d="M177 -248Q117 -248 80 -234T10 -194Q10 -174 16 -145T33 -95Q60 -105 93 -112T160 -123T220 -127Q247 -127 263 -122T288 -106T301 -73T311 -19Q317 22 329 65T363 167L372 191L404 389L327 446Q419 446 468 451T548
467Q569 451 574 432T575 381L529 119Q515 45 489 -21T422 -138T320 -218T177 -248ZM459 447L391 381Q380 386 360 389T328 393Q289 393 269 357T236 264Q221 194 227 159T259 124Q276 124 297 142T340 207T377 336L396 416L425 409L382 187H367Q343 118 313 75T247
11T164 -9Q111 -9 81 14T37 75T24 154T31 232Q44 296 78 349T176 434T334 467Q373 467 403 462T459 447Z" />
<glyph unicode="h" horiz-adv-x="669" d="M34 0L123 506Q129 542 129 561T115 587T70 594Q70 612 73 632T83 669Q145 671 203 681T311 710Q331 692 337 676T337 622Q324 553 315 503T297 415T283 351T271 304T259 265H274L227 0H34ZM502 467Q535 467 559 456T596
420T612 357T602 267L583 184Q575 148 573 131T574 109T585 104Q591 104 598 107T618 118Q628 108 638 89T650 52Q617 20 575 6T488 -9Q429 -9 403 14T375 79T384 172L399 237Q404 258 404 277T399 308T378 320Q362 320 343 304T304 255T267 171T236 50L237 218L282
311Q299 345 322 373T373 423T434 455T502 467Z" />
<glyph unicode="i" horiz-adv-x="346" d="M164 -9Q107 -9 82 14T54 77T63 172L82 262Q90 298 90 317T76 344T30 351Q30 369 33 389T43 426Q84 427 121 432T193 445T261 467Q283 455 293 434T296 371L260 184Q250 133 251 119T263 104Q269 104 277 107T295 118Q305
108 315 89T327 52Q294 20 251 6T164 -9ZM447 510Q402 510 379 536T361 606Q367 647 399 668T486 690Q529 690 554 663T572 592Q565 552 534 531T447 510Z" />
<glyph unicode="j" horiz-adv-x="309" d="M-67 -246Q-98 -219 -98 -167Q-46 -141 -9 -90T45 52L81 263Q87 299 87 318T73 344T28 351Q28 369 31 389T41 426Q82 427 122 432T199 445T269 467Q282 455 289 445T298 420T295 379L250 125Q235 40 211 -20T149 -122T58
-193T-67 -246ZM199 510Q154 510 131 536T113 606Q119 647 151 668T238 690Q281 690 306 663T324 592Q317 552 286 531T199 510Z" />
<glyph unicode="k" horiz-adv-x="611" d="M34 0L123 506Q129 542 129 561T115 587T70 594Q70 612 73 632T83 669Q145 671 203 681T311 710Q336 689 339 673T337 622Q327 563 320 524T305 453T287 388T260 306H261Q284 351 319 387T399 445T492 467Q544 467 575
439T597 354Q590 307 557 276T464 223T320 175L187 189L243 207Q332 223 373 243T421 302Q425 322 415 335T382 349Q362 349 337 332T291 283T258 206Q260 184 259 168T253 129L227 0H34ZM427 -9Q371 -9 346 13T305 72Q293 100 286 116T270 147T246 181L409 240Q430
220 441 208T461 183T481 150Q492 130 500 120T522 110Q528 110 534 112T545 118Q556 108 566 89T577 52Q544 20 507 6T427 -9Z" />
<glyph unicode="l" horiz-adv-x="348" d="M166 -9Q100 -9 77 20T53 93Q53 104 54 119T59 159T71 228T91 339T123 506Q130 542 130 561T116 587T70 594Q70 612 73 632T83 669Q124 670 164 675T241 688T311 710Q331 692 337 676T337 622Q318 513 298 404T256 184Q250
150 249 133T252 110T263 104Q270 104 277 107T297 118Q307 108 317 89T329 52Q296 20 253 6T166 -9Z" />
<glyph unicode="m" horiz-adv-x="978" d="M797 -9Q738 -9 712 14T683 79T693 172L696 184Q715 259 715 289T692 320Q672 320 646 292T594 205T552 52L543 0H355L391 190Q401 239 403 267T401 308T380 320Q359 320 332 293T280 207T235 50L226 0H33L82 262Q89 298
89 317T75 344T30 351Q30 369 33 389T43 426Q84 427 124 432T201 445T271 467Q291 456 297 442T302 402Q300 377 290 345T258 265H259L281 311Q298 346 322 375T375 424T435 456T499 467Q536 467 557 455T588 419T598 365Q598 346 594 322T579 265H580L597 305Q614
346 639 376T694 426T755 457T817 467Q892 467 911 413T908 258L892 184Q884 148 883 131T884 109T894 104Q900 104 907 107T927 118Q937 108 947 89T959 52Q926 20 884 6T797 -9Z" />
<glyph unicode="n" horiz-adv-x="668" d="M33 0L82 262Q89 298 89 317T75 344T30 351Q30 369 33 389T43 426Q84 427 124 432T201 445T271 467Q291 457 298 440T302 402Q298 370 290 343T264 278L235 50L226 0H33ZM501 467Q534 467 558 456T595 420T611 357T601
267L582 184Q574 148 572 131T573 109T584 104Q590 104 597 107T617 118Q627 108 637 89T649 52Q616 20 574 6T487 -9Q428 -9 402 14T374 79T383 172L398 237Q403 258 403 277T398 308T377 320Q361 320 342 304T303 255T266 171T235 50L236 218L281 311Q298 345
321 373T372 423T433 455T501 467Z" />
<glyph unicode="o" horiz-adv-x="610" d="M271 -9Q181 -9 124 21T44 105T31 230Q42 306 82 358T186 439T338 467Q426 467 483 438T564 355T578 227Q567 152 527 99T423 19T271 -9ZM282 63Q303 63 322 80T356 134T379 224Q390 301 376 348T325 395Q290 395 267
352T232 238Q224 181 227 142T245 83T282 63Z" />
<glyph unicode="p" horiz-adv-x="621" d="M-6 -243L83 263Q89 299 89 318T75 344T30 351Q30 369 33 389T43 426Q84 427 120 432T189 445T256 467Q274 450 280 434T282 392Q280 378 275 355T263 309T251 271L241 235L214 21Q222 -4 218 -51T200 -170L187 -243H-6ZM161
11L229 77Q240 72 260 69T292 65Q331 65 351 102T384 194Q399 265 393 299T361 334Q344 334 323 316T280 251T243 122L224 42L195 49L238 271H253Q277 340 307 383T374 447T456 467Q509 467 539 444T583 383T596 304T589 226Q577 163 542 110T445 24T286 -9Q247
-9 217 -4T161 11Z" />
<glyph unicode="q" horiz-adv-x="608" d="M407 388L323 467Q418 467 486 444T596 378Q583 357 572 327T550 241L465 -242H272L317 17Q325 64 340 105T372 192L380 234L407 388ZM459 447L391 381Q380 386 360 389T328 393Q289 393 269 357T236 264Q221 194 227
159T259 124Q276 124 297 142T340 207T377 336L396 416L425 409L382 187H367Q343 118 313 75T247 11T164 -9Q111 -9 81 14T37 75T24 154T31 232Q44 296 78 349T176 434T334 467Q373 467 403 462T459 447Z" />
<glyph unicode="r" horiz-adv-x="504" d="M251 467Q273 455 278 437T280 392Q276 366 264 324T235 246H236L265 311Q285 355 316 390T385 446T465 467Q497 467 519 455Q503 412 493 355T482 249Q460 239 431 235T374 232Q378 249 369 262T343 275Q332 275 320
267T296 241Q275 210 261 161T235 50L226 0H33L82 262Q89 298 89 317T75 344T30 351Q30 369 33 389T43 426Q84 428 119 432T186 445T251 467Z" />
<glyph unicode="s" horiz-adv-x="478" d="M294 467Q341 467 391 457T473 430Q455 372 454 291Q431 281 405 278T352 278Q350 329 334 362T283 395Q270 395 260 390T246 368Q242 347 255 329T291 294T341 259T389 218T423 168T428 103Q420 58 392 34T313 1T181
-9Q117 -9 69 1T-10 31Q1 60 7 94T14 168Q59 183 119 177Q120 122 137 96T188 69Q205 69 214 76T225 93Q230 113 211 131T163 170T105 216T60 274T51 352Q60 399 92 424T177 458T294 467Z" />
<glyph unicode="t" horiz-adv-x="398" d="M194 -9Q131 -9 99 21T62 106T73 231L128 458Q139 503 144 532T150 582Q191 586 233 596T300 620Q326 614 333 591T336 533T321 458L271 243Q258 185 257 156T264 116T288 106Q299 106 311 111T334 127Q344 113 351 93T360
53Q345 35 317 21T256 -1T194 -9ZM136 348Q105 360 79 364T35 369Q35 390 38 412T49 448H136V348ZM288 349V448H407Q407 424 405 401T397 365Q368 365 343 362T288 349Z" />
<glyph unicode="u" horiz-adv-x="668" d="M152 -9Q123 -9 102 0T68 33T56 98T70 202Q82 255 87 285T88 329T70 347T30 353Q30 370 33 390T43 426Q83 427 122 432T197 445T266 467Q281 458 288 448T297 420T293 370T275 285Q263 228 262 199T268 160T292 149Q313
149 338 174T389 255T431 405L441 458H630L585 205Q577 160 575 138T576 109T588 102Q599 102 618 117Q629 108 638 89T649 52Q617 21 575 6T488 -9Q436 -9 410 8T378 51T377 108Q379 119 383 131T393 156H392Q373 117 347 87T290 35T225 2T152 -9Z" />
<glyph unicode="v" horiz-adv-x="566" d="M503 467Q532 458 545 434T559 366Q559 311 531 255T434 135T246 -9Q223 -9 196 -4T153 11Q137 101 120 172T87 292Q77 327 60 339T4 350Q4 372 7 391T16 426Q43 428 79 435T149 450T203 467Q216 463 224 457T238 441T249
411Q266 352 279 295T302 182T320 70L289 107Q345 160 365 200T385 278Q385 314 364 333T304 350Q304 393 316 426Q343 428 379 435T449 450T503 467Z" />
<glyph unicode="w" horiz-adv-x="834" d="M203 467Q216 463 224 457T238 441T249 411Q266 352 279 295T302 182T320 70L289 107Q333 159 350 203T364 300T338 426Q410 438 463 467Q476 463 484 457T499 441T512 411Q532 352 548 295T577 182T601 70L567 107Q617
156 635 194T654 266Q654 311 632 331T570 350Q570 372 571 391T579 426Q606 428 641 435T709 450T763 467Q792 458 808 433T825 351Q825 304 798 249T710 130T550 -9Q527 -9 502 -4T460 11Q454 52 447 86T430 156T403 233L433 272Q433 231 421 193T385 120T326
52T246 -9Q223 -9 196 -4T153 11Q137 101 120 172T87 292Q77 327 60 339T4 350Q4 372 7 391T16 426Q43 428 79 435T149 450T203 467Z" />
<glyph unicode="x" horiz-adv-x="533" d="M236 467Q253 464 266 454T286 414Q294 377 299 348T302 303L344 274Q349 246 362 211T390 145Q401 124 412 117T439 110Q447 110 452 112T462 118Q476 104 483 88T493 52Q469 24 427 8T349 -9Q309 -9 279 5T233 44Q219
66 211 88T200 126L161 162Q157 194 148 227T127 292Q114 329 96 340T40 350Q39 371 42 390T51 426Q78 428 113 434T182 449T236 467ZM493 467Q508 467 522 464T547 455Q531 412 521 365T510 269Q464 248 412 252Q414 271 405 282T382 294Q375 294 369 290T357
276T346 253T334 217L274 246Q298 308 322 350T374 418T430 455T493 467ZM1 178Q24 189 50 192T105 193Q103 174 111 163T130 152Q140 152 148 159T166 186T184 241L244 212Q220 151 196 109T144 40T88 3T25 -9Q10 -9 -2 -7T-25 3Q-17 27 -12 59T-3 122T1 178Z"
/>
<glyph unicode="y" horiz-adv-x="565" d="M205 467Q218 463 226 457T240 441T251 411Q277 323 291 235T312 62L167 -81Q158 -6 147 56T122 175T89 292Q79 327 62 339T6 350Q6 372 9 391T18 426Q45 428 81 435T151 450T205 467ZM505 467Q534 458 547 436T561 375Q561
353 555 329T529 270T466 180T352 43Q271 -51 217 -108T124 -196T55 -237T-11 -248Q-47 -248 -75 -237T-127 -199Q-127 -176 -121 -146T-104 -95Q-80 -107 -53 -112T3 -117Q40 -117 69 -111T125 -87T185 -36T260 51Q315 119 342 160T378 229T387 281Q387 315 366
333T306 350Q306 393 318 426Q345 428 381 435T451 450T505 467Z" />
<glyph unicode="z" horiz-adv-x="460" d="M2 -9Q-9 8 -14 31T-15 73Q80 138 152 197T279 314L280 307Q258 311 244 312T218 313Q197 313 183 308T156 288T130 241Q104 241 76 248T30 270Q54 317 69 362T91 458Q121 461 170 462T273 464Q326 464 368 463T441 458Q463
427 463 386Q430 345 388 302T296 214T185 123L192 133Q219 145 236 147T265 147T291 145Q315 145 325 158T348 201Q374 201 399 196T444 181Q431 151 424 108T416 28Q409 9 389 0T320 -9Q276 -9 235 -5T134 0Q106 0 75 -2T2 -9Z" />
<glyph unicode="{" horiz-adv-x="410" d="M447 754Q458 744 461 722T461 682Q408 670 384 642T353 577T346 499T346 417T331 342T283 286T181 259Q235 247 261 224T293 168T292 99T273 24T249 -52T236 -121T248 -177T300 -213Q302 -232 296 -250T276 -283Q200
-269 160 -244T103 -186T88 -115T98 -37T116 42T125 116T107 180T44 227Q43 242 47 259T60 289Q109 300 134 323T170 378T182 445T187 519T200 593T237 662T314 717T447 754Z" />
<glyph unicode="|" horiz-adv-x="180" d="M-46 -245L138 710Q184 723 228 717Q177 470 132 232T45 -236Q26 -244 2 -246T-46 -245Z" />
<glyph unicode="}" horiz-adv-x="404" d="M145 754Q212 732 248 706T298 650T311 588T303 524T288 459T282 397T302 340T362 291Q368 276 368 260T362 229Q314 213 289 184T251 116T234 35T224 -51T204 -134T162 -206T82 -259T-52 -283Q-62 -264 -62 -246T-51
-208Q-4 -203 21 -184T55 -134T66 -67T67 9T70 88T91 160T141 219T234 256Q168 271 139 297T107 355T114 425T141 499T164 572T162 638T111 690Q113 708 121 726T145 754Z" />
<glyph unicode="~" horiz-adv-x="550" d="M90 165Q73 172 60 182T38 211Q81 293 120 321T192 349Q218 349 241 338T288 313T333 287T379 276Q400 276 418 290T460 339Q474 334 489 321T512 295Q484 241 459 214T411 177T371 167Q344 167 321 178T275 205T232 232T186
244Q161 244 137 227T90 165Z" />
<glyph unicode="&#xa0;" horiz-adv-x="200" />
<glyph unicode="&#xa1;" horiz-adv-x="427" d="M74 -259Q51 -252 45 -232T53 -165Q66 -125 84 -62T121 73T158 213Q185 215 212 213T259 200Q252 129 248 59T242 -80T240 -217Q199 -222 154 -232T74 -259ZM238 467Q293 467 323 435T341 344Q333 304 305 283T226
261Q197 261 173 275T135 316T130 383Q137 422 163 444T238 467Z" />
<glyph unicode="&#xa2;" horiz-adv-x="473" d="M227 -9Q159 -9 116 10T52 64T26 142T31 234Q38 271 56 311T109 387T198 445T332 467Q374 467 411 457T471 431Q461 403 456 376T451 322Q410 307 364 316Q366 348 358 369T322 391Q306 391 289 380T259 342T237
271Q230 235 228 204T233 148T258 111T308 98Q341 98 370 108T420 129Q431 110 435 91T437 47Q391 16 344 4T227 -9ZM261 -135Q239 -135 216 -131T174 -116L306 607Q330 607 350 604T392 592Q373 501 356 410T322 229T291 47T261 -135Z" />
<glyph unicode="&#xa3;" horiz-adv-x="639" d="M410 -9Q368 -9 340 -2T288 14T238 31T174 38Q134 38 105 28T38 -8Q19 4 8 27T-5 74Q55 109 81 143T117 227Q124 266 120 300T107 368T95 436T98 514Q107 564 145 602T248 663T404 685Q463 685 514 672T594 641Q583
607 576 569T568 496Q549 486 518 483T461 482Q465 547 439 576T374 606Q348 606 331 589T308 540Q302 509 307 486T321 440T335 390T333 324Q328 295 320 274T297 234T257 191T192 136L188 139Q235 168 265 182T318 202T366 207Q386 207 401 202T431 191T460 185Q493
185 507 223Q527 220 548 211T581 190Q572 136 551 91T495 18T410 -9ZM460 375Q462 352 456 329T439 288Q418 288 378 288T289 288T189 288T97 286T29 284Q26 336 51 375H460Z" />
<glyph unicode="&#xa4;" horiz-adv-x="527" d="M278 436Q337 436 378 410T438 341T446 242Q433 169 381 125T254 80Q196 80 157 109T101 186T94 291Q105 356 156 396T278 436ZM270 365Q233 365 207 341T173 277Q164 225 188 188T262 151Q302 151 330 175T366 238Q375
292 348 328T270 365ZM477 76Q467 64 446 57T406 47L313 152L365 195L477 76ZM364 379L458 462Q475 458 491 447T517 422L404 334L364 379ZM60 436Q71 447 92 454T131 461L208 376L154 335L60 436ZM194 146L94 50Q75 51 57 61T27 85L147 189L194 146Z" />
<glyph unicode="&#xa5;" horiz-adv-x="605" d="M259 166Q238 253 214 338T160 509Q148 546 138 564T118 590T93 601Q90 615 90 636T92 679Q118 678 149 677T207 676T249 676Q267 676 297 676T361 677T427 679Q426 655 422 635T413 601Q370 596 362 577T365 521Q380
472 391 419T412 308L392 326Q420 376 445 425T493 526Q509 561 504 578T464 601Q457 636 463 679Q488 677 523 677T580 676Q608 676 630 676T683 679Q681 637 669 601Q658 599 648 593T624 569T590 515Q537 423 483 337T370 166H259ZM87 -3Q89 19 94 39T105 75Q149
81 171 90T204 123T223 197L239 291H439L421 187Q414 147 416 125T438 93T502 75Q506 56 506 36T505 -3Q472 -1 421 -1T309 0Q242 0 185 0T87 -3ZM91 165Q90 188 95 212T114 256H574Q576 234 570 211T551 169Q476 169 406 169T259 168T91 165ZM109 318Q109 342
116 366T137 409H320L356 322Q294 322 251 322T174 321T109 318ZM406 322L469 409H595Q596 386 591 363T573 322H406Z" />
<glyph unicode="&#xa6;" horiz-adv-x="180" d="M-46 -245L34 170Q77 183 123 172Q101 69 82 -33T45 -236Q26 -244 2 -246T-46 -245ZM60 304L138 710Q184 723 228 717Q206 614 186 512T149 309Q108 295 60 304Z" />
<glyph unicode="&#xa7;" horiz-adv-x="533" d="M344 714Q397 714 434 708T509 684Q500 656 495 618T490 550Q474 545 452 542T407 538Q408 573 398 594T369 626T324 637Q302 637 286 626T264 593Q258 566 277 545T330 503T401 460T471 408T519 340T526 247Q517
197 491 164T429 109T358 75L292 129Q311 136 324 144T346 164T357 194Q362 221 344 242T294 284T229 329T166 385T124 460T121 562Q131 612 165 646T248 697T344 714ZM9 219Q18 269 44 302T106 357T177 391L243 337Q224 330 211 322T189 302T178 272Q174 246 192
225T241 182T306 137T369 81T411 6T414 -96Q405 -146 370 -180T288 -231T191 -248Q139 -248 101 -242T26 -218Q35 -190 40 -151T45 -84Q62 -79 84 -76T128 -72Q128 -106 138 -128T167 -160T211 -171Q233 -171 250 -160T271 -127Q277 -100 258 -79T205 -37T134 6T64
58T16 126T9 219Z" />
<glyph unicode="&#xa8;" horiz-adv-x="300" d="M582 497Q533 497 513 524T500 598Q508 640 532 659T596 679Q646 679 666 651T676 576Q659 497 582 497ZM354 497Q306 497 286 527T275 604Q283 642 306 660T366 679Q412 679 435 652T446 574Q437 537 415 517T354 497Z" />
<glyph unicode="&#xa9;" horiz-adv-x="747" d="M351 -117Q234 -117 154 -66T42 75T35 280Q57 379 108 445T235 544T399 577Q486 577 552 547T660 463T716 337T712 179Q693 84 643 18T519 -82T351 -117ZM357 -46Q472 -46 545 14T642 182Q663 274 639 347T552 464T391
507Q272 507 200 444T104 278Q84 188 107 115T194 -2T357 -46ZM334 19Q273 19 235 36T177 85T154 155T158 238Q164 271 181 307T229 375T309 427T429 447Q467 447 500 438T554 415Q545 389 541 365T536 317Q499 303 458 311Q460 340 452 359T420 379Q405 379 390
369T363 335T343 271Q337 238 335 210T339 161T362 127T407 115Q437 115 463 124T508 143Q518 126 521 109T523 69Q482 41 440 30T334 19Z" />
<glyph unicode="&#xaa;" horiz-adv-x="561" d="M517 717Q534 704 538 689T538 651L508 519Q501 484 502 475T511 465Q516 465 521 467T531 473Q539 463 543 442T545 405Q520 381 491 371T428 360Q404 360 388 367T364 386T353 414T353 448H347L393 659L335 701Q385
701 432 704T517 717ZM434 702L382 636Q375 640 363 642T341 644Q325 644 307 622T277 543Q272 518 275 500T288 481Q299 481 312 495T338 539T363 620L377 679L432 673L414 590Q396 517 363 466T290 387T206 360Q170 360 149 378T118 424T108 483T112 540Q121
587 147 627T220 692T339 717Q370 717 392 713T434 702Z" />
<glyph unicode="&#xab;" horiz-adv-x="499" d="M212 413Q234 415 253 406T283 384Q268 367 249 345T212 300T178 255Q184 233 193 208T212 158T232 112Q217 93 203 81T167 59Q140 94 107 133T41 205Q43 230 51 255T72 295Q111 324 144 352T212 413ZM419 403Q441
405 460 396T490 374Q475 357 460 338T429 298T398 255Q403 233 409 210T422 165T439 122Q424 103 410 91T374 69Q347 106 320 139T261 205Q263 230 271 255T292 295Q330 323 361 349T419 403Z" />
<glyph unicode="&#xac;" horiz-adv-x="550" d="M394 120L437 319L475 283Q372 283 274 283T66 279Q66 298 69 322T77 367H520L475 135Q436 109 394 120Z" />
<glyph unicode="&#xad;" horiz-adv-x="367" d="M43 206Q47 241 52 264T68 306H333Q332 277 328 255T312 209Q263 209 196 209T43 206Z" />
<glyph unicode="&#xae;" horiz-adv-x="562" d="M351 359Q288 359 237 388T155 469T124 584Q124 648 154 699T235 780T350 810Q414 810 464 780T545 699T575 584Q575 520 546 469T465 389T351 359ZM368 483Q367 503 361 520T345 551L381 567Q401 559 413 537T434
489Q403 480 368 483ZM350 417Q398 417 436 439T495 499T517 584Q517 632 495 670T436 730T350 752Q303 752 265 730T204 670T182 584Q182 537 204 499T264 439T350 417ZM258 484L290 682Q312 688 333 690T367 692Q412 692 431 676T445 624Q440 591 418 573T358
550L360 543H314L318 587Q329 583 337 581T352 578Q365 578 372 587T383 616Q387 636 382 645T362 655Q358 655 353 654T341 651L314 484Q285 478 258 484Z" />
<glyph unicode="&#xaf;" horiz-adv-x="300" d="M293 566Q293 581 295 599T302 631H664Q664 620 662 604T655 573Q576 573 487 572T293 566Z" />
<glyph unicode="&#xb0;" horiz-adv-x="418" d="M284 699Q361 699 400 655T427 539Q417 478 372 447T256 415Q181 415 144 461T119 580Q129 641 173 670T284 699ZM277 641Q260 641 247 626T230 587Q221 537 230 506T263 475Q283 475 298 492T317 538Q325 585 314
613T277 641Z" />
<glyph unicode="&#xb1;" horiz-adv-x="550" d="M220 162Q235 246 247 315T267 435T278 512Q304 517 328 517T367 513L309 160Q274 146 220 162ZM27 39Q25 56 27 81T36 120H463Q466 98 465 79T453 41Q414 41 390 41T346 42T306 42T254 42Q193 42 142 42T27 39ZM104
287Q103 310 105 332T113 371H482Q488 324 472 289Q439 290 417 290T369 289T299 289Q267 289 220 289T104 287Z" />
<glyph unicode="&#xb2;" horiz-adv-x="369" d="M303 762Q375 762 404 740T426 680Q419 645 390 620T295 559Q268 545 246 533T202 508L183 523H271Q298 523 311 525T331 536T343 559Q360 559 377 558T404 552Q398 521 394 490T390 439Q383 424 370 417T340 409Q318
409 280 409T203 410Q166 410 131 410T76 409Q69 423 69 441T72 479Q95 498 122 516T190 562Q227 588 246 605T274 635T286 665Q289 683 281 694T249 706Q227 706 212 689T183 623Q160 623 145 626T115 634Q120 652 126 680T131 728Q166 745 205 753T303 762Z"
/>
<glyph unicode="&#xb3;" horiz-adv-x="370" d="M168 291Q120 291 90 302T42 338Q44 346 50 356T67 373Q82 357 100 353T132 349Q183 349 214 375T252 442Q256 470 246 484T215 504T168 514Q164 525 166 540T175 569Q204 566 227 580T265 618T284 669Q288 692 280
700T250 709Q217 709 204 690T178 624Q161 623 141 626T108 640Q113 659 119 686T124 741Q157 752 193 757T263 762Q351 762 388 731T411 645Q398 592 354 572T252 551L247 556Q327 556 363 522T385 426Q371 363 316 327T168 291Z" />
<glyph unicode="&#xb4;" horiz-adv-x="300" d="M188 716Q234 723 278 718T346 699Q298 656 260 612T197 530Q148 535 109 558Q125 583 140 612T169 669T188 716Z" />
<glyph unicode="&#xb5;" horiz-adv-x="677" d="M16 -251Q0 -241 -7 -226T-16 -190Q-8 -179 -3 -168T8 -129T24 -46L71 201Q83 254 88 284T89 327T71 345T30 351Q30 369 33 389T43 426Q84 427 124 432T201 445T271 467Q287 457 294 447T302 419T298 370T281 288Q264
208 268 181T294 153Q317 153 343 177T394 258T436 408L445 458H638L594 205Q587 162 585 141T585 112T596 104Q601 104 607 106T626 118Q637 109 647 90T658 52Q625 20 582 6T497 -9Q448 -9 426 8T400 51T402 108Q404 116 407 130T417 156H416Q403 113 386 82T348
30T306 1T264 -9Q237 -9 223 6T205 49T206 117L211 107L181 -47Q173 -90 173 -128T179 -200Q135 -201 96 -215T16 -251Z" />
<glyph unicode="&#xb6;" horiz-adv-x="586" d="M409 681Q447 681 484 679T557 677Q580 677 602 677T648 679Q648 660 645 639T634 601Q609 599 595 591T574 562T559 501Q541 407 528 333T503 194T481 64T458 -78T431 -250Q409 -250 386 -248T343 -238L494 622L508
591Q486 599 463 603T409 607Q336 607 304 582T261 498Q252 446 261 414T292 368T335 354H355L344 287Q325 283 310 281T265 279Q144 279 96 336T63 487Q74 551 117 594T233 659T409 681ZM374 644H461Q432 487 407 344T357 56T307 -250Q285 -250 262 -246T220 -231L374
644Z" />
<glyph unicode="&#xb7;" horiz-adv-x="309" d="M162 176Q107 176 77 208T59 299Q67 339 95 360T174 382Q203 382 227 368T265 327T270 260Q263 221 237 199T162 176Z" />
<glyph unicode="&#xb8;" horiz-adv-x="300" d="M-25 -242Q-29 -231 -28 -217T-24 -191Q9 -192 35 -182T64 -155Q69 -132 53 -121T12 -110Q0 -89 3 -63L83 16H173L114 -46Q151 -58 163 -85T169 -148Q160 -194 111 -219T-25 -242Z" />
<glyph unicode="&#xb9;" horiz-adv-x="301" d="M65 408Q66 424 69 438T78 463Q101 467 112 472T131 494T144 542L161 629Q170 677 163 690T125 704Q123 717 123 730T127 760Q139 759 164 759T214 758T250 758Q266 758 290 758T338 758T374 760Q373 744 369 731T360
704Q340 703 328 698T309 677T296 629L279 543Q273 509 273 492T283 470T313 463Q315 450 315 437T312 408Q298 409 272 409T222 409T188 410Q175 410 151 410T102 409T65 408Z" />
<glyph unicode="&#xba;" horiz-adv-x="515" d="M344 717Q440 717 488 666T521 525Q507 441 448 399T284 357Q189 357 143 413T116 564Q131 638 185 677T344 717ZM329 647Q305 647 291 621T268 553Q263 522 264 495T275 450T302 433Q325 433 340 459T364 528Q374
587 362 617T329 647Z" />
<glyph unicode="&#xbb;" horiz-adv-x="504" d="M338 412Q358 389 390 357T454 297Q461 276 461 252T454 206Q403 168 357 130T267 53Q230 75 216 113Q247 141 278 172T333 232Q324 258 314 283T291 334T264 388Q284 402 301 407T338 412ZM140 402Q159 378 184
352T238 297Q245 276 245 252T238 206Q188 168 150 136T71 63Q34 85 20 123Q50 150 76 177T122 232Q113 266 100 302T66 378Q86 392 103 397T140 402Z" />
<glyph unicode="&#xbc;" horiz-adv-x="949" d="M350 730Q365 726 370 716T370 680L320 423Q313 386 314 370T331 348T377 339Q378 326 377 311T372 279Q351 280 321 280T261 280T209 281Q177 281 133 281T57 279Q59 293 63 309T74 339Q110 343 128 347T156 368T173
423L200 561Q206 591 203 604T181 622T119 626Q123 644 127 661T139 694Q207 695 254 703T350 730ZM248 -9Q225 -9 200 1T166 24L811 717Q834 717 856 706T890 683L248 -9ZM600 -2Q604 17 608 34T620 66Q657 67 674 73T696 102L749 376L795 384L588 158L589 206H879Q897
206 905 201T918 183Q909 173 900 150T885 110Q809 110 746 110T635 108T552 105Q529 141 541 197Q592 246 632 286T710 366T791 451Q806 453 826 453T866 450T897 443L831 102Q828 86 831 79T846 69T876 66Q877 48 875 32T869 -2Q850 -1 824 -1T772 0T730 0Q714
0 691 0T643 0T600 -2Z" />
<glyph unicode="&#xbd;" horiz-adv-x="1045" d="M350 730Q365 726 370 716T370 680L320 423Q313 386 314 370T331 348T377 339Q378 326 377 311T372 279Q351 280 321 280T261 280T209 281Q177 281 133 281T57 279Q59 293 63 309T74 339Q110 343 128 347T156 368T173
423L200 561Q206 591 203 604T181 622T119 626Q123 644 127 661T139 694Q207 695 254 703T350 730ZM248 -9Q225 -9 200 1T166 24L811 717Q834 717 856 706T890 683L248 -9ZM629 -2Q620 18 619 42T623 96Q643 115 663 131T702 161T738 189Q787 225 811 253T844 322Q849
348 844 362T822 377Q806 377 789 356T758 266Q728 265 704 268T655 282Q668 311 678 350T693 423Q726 435 775 442T876 449Q924 449 960 441T1014 410T1023 344Q1013 295 977 259T884 193Q859 180 841 170T807 150T771 123L769 145H835Q866 145 882 148T906 160T922
188Q943 189 967 187T1004 180Q997 146 991 103T985 34Q971 14 956 6T908 -2Q898 -2 875 -2T825 -1T772 0Q746 0 710 0T629 -2Z" />
<glyph unicode="&#xbe;" horiz-adv-x="923" d="M279 730Q365 730 405 698T435 608Q426 563 377 540T247 517L241 521Q330 521 376 489T411 399Q399 339 337 307T172 275Q127 275 93 284T26 316Q33 336 38 359T42 408Q56 413 81 412T128 403Q125 369 133 355T167
341Q191 341 209 355T231 393Q237 422 214 439T143 461Q134 497 155 533Q205 535 232 556T267 618Q272 644 266 654T244 664Q225 664 212 644T190 583Q168 586 144 596T108 622Q115 641 118 663T120 711Q158 722 195 726T279 730ZM222 -9Q199 -9 174 1T140 24L785
717Q808 717 830 706T864 683L222 -9ZM574 -2Q578 17 582 34T594 66Q631 67 648 73T670 102L723 376L769 384L562 158L563 206H853Q871 206 879 201T892 183Q883 173 874 150T859 110Q783 110 720 110T609 108T526 105Q503 141 515 197Q566 246 606 286T684 366T765
451Q780 453 800 453T840 450T871 443L805 102Q802 86 805 79T820 69T850 66Q851 48 849 32T843 -2Q824 -1 798 -1T746 0T704 0Q688 0 665 0T617 0T574 -2Z" />
<glyph unicode="&#xbf;" horiz-adv-x="545" d="M351 -215Q310 -237 264 -248T171 -260Q61 -260 8 -222T-31 -113Q-24 -73 -2 -47T50 0T109 41T162 89T193 157Q195 172 195 185T193 215Q210 225 235 230T283 234Q305 219 315 183T318 106Q311 69 295 44T260 2T221
-32T187 -68T166 -117Q159 -153 170 -168T199 -183Q212 -183 224 -172T251 -133T282 -49Q315 -49 337 -54T379 -72Q366 -113 360 -146T351 -215ZM271 467Q326 467 356 435T374 344Q366 304 338 283T259 261Q230 261 206 275T168 316T163 383Q170 422 196 444T271
467Z" />
<glyph unicode="&#xc0;" horiz-adv-x="710" d="M-36 -3Q-35 20 -32 38T-21 75Q-4 78 9 87T40 117T81 176Q99 205 123 244T182 340T265 480T380 676Q400 681 417 681T457 682Q488 585 514 494T561 326T594 195Q606 144 615 119T634 85T658 75Q661 62 661 41T659
-3Q639 -1 608 -1T546 0T500 0Q488 0 465 0T414 0T363 -1T323 -3Q324 21 327 40T337 75Q379 83 388 100T389 151Q377 201 364 251T336 352Q326 385 320 433T315 528H352Q332 481 309 434T268 354Q241 303 212 253T153 152Q142 134 141 118T150 90T181 75Q183 57
183 38T179 -3Q168 -2 145 -2T98 -1T56 0Q31 0 6 0T-36 -3ZM123 153L151 231H396L406 166Q361 166 315 165T220 162T123 153ZM496 740Q473 734 439 734T380 741Q372 756 356 776T321 819T284 857Q319 866 361 870T446 868Q454 840 467 804T496 740Z" />
<glyph unicode="&#xc1;" horiz-adv-x="710" d="M-36 -3Q-35 20 -32 38T-21 75Q-4 78 9 87T40 117T81 176Q99 205 123 244T182 340T265 480T380 676Q400 681 417 681T457 682Q488 585 514 494T561 326T594 195Q606 144 615 119T634 85T658 75Q661 62 661 41T659
-3Q639 -1 608 -1T546 0T500 0Q488 0 465 0T414 0T363 -1T323 -3Q324 21 327 40T337 75Q379 83 388 100T389 151Q377 201 364 251T336 352Q326 385 320 433T315 528H352Q332 481 309 434T268 354Q241 303 212 253T153 152Q142 134 141 118T150 90T181 75Q183 57
183 38T179 -3Q168 -2 145 -2T98 -1T56 0Q31 0 6 0T-36 -3ZM123 153L151 231H396L406 166Q361 166 315 165T220 162T123 153ZM438 732Q413 735 388 744T342 767Q358 784 373 807T399 851T416 884Q427 885 438 885T461 886Q499 886 532 881T585 867Q539 826 501
791T438 732Z" />
<glyph unicode="&#xc2;" horiz-adv-x="710" d="M-36 -3Q-35 20 -32 38T-21 75Q-4 78 9 87T40 117T81 176Q99 205 123 244T182 340T265 480T380 676Q400 681 417 681T457 682Q488 585 514 494T561 326T594 195Q606 144 615 119T634 85T658 75Q661 62 661 41T659
-3Q639 -1 608 -1T546 0T500 0Q488 0 465 0T414 0T363 -1T323 -3Q324 21 327 40T337 75Q379 83 388 100T389 151Q377 201 364 251T336 352Q326 385 320 433T315 528H352Q332 481 309 434T268 354Q241 303 212 253T153 152Q142 134 141 118T150 90T181 75Q183 57
183 38T179 -3Q168 -2 145 -2T98 -1T56 0Q31 0 6 0T-36 -3ZM123 153L151 231H396L406 166Q361 166 315 165T220 162T123 153ZM299 719Q274 727 258 748T238 785Q269 798 303 817T368 856T422 894Q442 897 465 896T508 888Q536 860 570 829T650 755Q637 743 614
737T563 730Q535 747 503 763T440 787Q418 779 392 766T340 739T299 719Z" />
<glyph unicode="&#xc3;" horiz-adv-x="710" d="M-36 -3Q-35 20 -32 38T-21 75Q-4 78 9 87T40 117T81 176Q99 205 123 244T182 340T265 480T380 676Q400 681 417 681T457 682Q488 585 514 494T561 326T594 195Q606 144 615 119T634 85T658 75Q661 62 661 41T659
-3Q639 -1 608 -1T546 0T500 0Q488 0 465 0T414 0T363 -1T323 -3Q324 21 327 40T337 75Q379 83 388 100T389 151Q377 201 364 251T336 352Q326 385 320 433T315 528H352Q332 481 309 434T268 354Q241 303 212 253T153 152Q142 134 141 118T150 90T181 75Q183 57
183 38T179 -3Q168 -2 145 -2T98 -1T56 0Q31 0 6 0T-36 -3ZM123 153L151 231H396L406 166Q361 166 315 165T220 162T123 153ZM483 735Q454 735 437 742T407 759T383 776T351 784Q326 784 304 769T262 736Q247 758 241 778T238 827Q274 862 316 875T390 888Q425
888 447 877T487 854T527 842Q550 842 568 856T598 887Q617 879 632 866T656 835Q622 786 578 761T483 735Z" />
<glyph unicode="&#xc4;" horiz-adv-x="710" d="M-36 -3Q-35 20 -32 38T-21 75Q-4 78 9 87T40 117T81 176Q99 205 123 244T182 340T265 480T380 676Q400 681 417 681T457 682Q488 585 514 494T561 326T594 195Q606 144 615 119T634 85T658 75Q661 62 661 41T659
-3Q639 -1 608 -1T546 0T500 0Q488 0 465 0T414 0T363 -1T323 -3Q324 21 327 40T337 75Q379 83 388 100T389 151Q377 201 364 251T336 352Q326 385 320 433T315 528H352Q332 481 309 434T268 354Q241 303 212 253T153 152Q142 134 141 118T150 90T181 75Q183 57
183 38T179 -3Q168 -2 145 -2T98 -1T56 0Q31 0 6 0T-36 -3ZM123 153L151 231H396L406 166Q361 166 315 165T220 162T123 153ZM327 719Q281 719 256 746T235 819Q238 854 258 872T319 890Q366 890 391 863T410 789Q401 719 327 719ZM564 718Q518 718 493 744T470
813Q475 890 560 890Q605 890 630 864T650 789Q644 718 564 718Z" />
<glyph unicode="&#xc5;" horiz-adv-x="710" d="M-36 -3Q-35 20 -32 38T-21 75Q-4 78 9 87T40 117T81 176Q99 205 123 244T182 340T265 480T380 676Q400 681 417 681T457 682Q488 585 514 494T561 326T594 195Q606 144 615 119T634 85T658 75Q661 62 661 41T659
-3Q639 -1 608 -1T546 0T500 0Q488 0 465 0T414 0T363 -1T323 -3Q324 21 327 40T337 75Q379 83 388 100T389 151Q377 201 364 251T336 352Q326 385 320 433T315 528H352Q332 481 309 434T268 354Q241 303 212 253T153 152Q142 134 141 118T150 90T181 75Q183 57
183 38T179 -3Q168 -2 145 -2T98 -1T56 0Q31 0 6 0T-36 -3ZM123 153L151 231H396L406 166Q361 166 315 165T220 162T123 153ZM435 713Q361 713 330 743T308 815Q318 857 357 876T453 896Q500 896 530 885T573 851T579 797Q570 755 532 734T435 713ZM439 770Q453
770 463 780T478 805Q480 815 475 829T449 843Q434 843 424 834T411 806Q409 793 415 782T439 770Z" />
<glyph unicode="&#xc6;" horiz-adv-x="917" d="M239 352H520V286Q430 286 372 285T275 280T202 270L239 352ZM705 425Q726 430 749 431T796 430Q789 402 783 371T772 301Q768 274 766 246T762 191Q738 192 717 195T676 206Q676 226 672 244T654 274T610 286H549L562
352H620Q665 352 682 367T705 425ZM937 679Q930 638 927 590T928 497Q882 485 830 485Q828 520 819 546T784 586T709 601H611L655 676Q730 676 782 676T872 677T937 679ZM800 218Q831 214 853 206T897 180Q885 145 873 96T854 -3Q824 -1 778 -1T682 0T589 0L642
75H656Q690 75 716 88T763 133T800 218ZM497 676H665L583 182Q575 136 577 113T596 83T642 75L589 0Q563 0 522 0T437 0T353 -1T289 -3Q290 17 294 36T308 76Q334 78 347 87T369 121T386 197L431 451Q442 513 457 566T497 676ZM342 514Q364 545 357 571T303 601Q299
618 299 640T302 679Q352 678 385 677T448 676T513 676Q489 630 466 590T417 509T358 420T281 310T178 163Q144 116 147 98T181 75Q183 57 183 38T179 -3Q168 -2 145 -2T98 -1T56 0Q31 0 6 0T-36 -3Q-35 20 -32 38T-21 75Q-4 78 10 85T44 111T91 166Q114 196 145
239T224 349T342 514Z" />
<glyph unicode="&#xc7;" horiz-adv-x="613" d="M660 632Q648 597 640 559T627 477Q584 461 532 470Q539 526 529 555T497 596T444 608Q393 608 354 571T290 474T253 347Q240 272 249 213T295 120T400 85Q432 85 468 93T548 123Q560 110 566 93T573 54Q525 23 469
7T343 -9Q234 -9 162 38T61 169T51 362Q65 443 103 503T195 604T314 665T442 685Q503 685 557 674T660 632ZM189 -242Q185 -231 186 -217T190 -191Q223 -192 249 -182T278 -155Q283 -132 267 -121T226 -110Q214 -89 217 -63L297 16H387L328 -46Q365 -58 377 -85T383
-148Q374 -194 325 -219T189 -242Z" />
<glyph unicode="&#xc8;" horiz-adv-x="638" d="M10 -3Q11 17 15 36T29 76Q55 78 68 87T90 121T107 197L160 501Q167 541 165 561T148 589T108 601Q105 620 105 638T108 679Q132 678 167 678T243 677T320 676T386 676L304 182Q296 136 298 113T317 83T363 75L310
0Q284 0 243 0T158 0T74 -1T10 -3ZM575 -3Q545 -1 499 -1T403 0T310 0L363 75H377Q411 75 437 88T484 133T521 218Q552 214 574 206T618 180Q606 145 594 96T575 -3ZM485 215Q461 216 440 219T399 230Q399 250 395 267T377 296T333 307H272L285 382H343Q388 382
405 394T428 449Q449 454 472 455T519 454Q512 426 506 395T495 325Q491 298 489 270T485 215ZM551 485Q549 520 540 546T505 586T430 601H332L376 676Q451 676 503 676T593 677T658 679Q651 638 648 590T649 497Q603 485 551 485ZM460 740Q437 734 403 734T344
741Q336 756 320 776T285 819T248 857Q283 866 325 870T410 868Q418 840 431 804T460 740Z" />
<glyph unicode="&#xc9;" horiz-adv-x="638" d="M10 -3Q11 17 15 36T29 76Q55 78 68 87T90 121T107 197L160 501Q167 541 165 561T148 589T108 601Q105 620 105 638T108 679Q132 678 167 678T243 677T320 676T386 676L304 182Q296 136 298 113T317 83T363 75L310
0Q284 0 243 0T158 0T74 -1T10 -3ZM575 -3Q545 -1 499 -1T403 0T310 0L363 75H377Q411 75 437 88T484 133T521 218Q552 214 574 206T618 180Q606 145 594 96T575 -3ZM485 215Q461 216 440 219T399 230Q399 250 395 267T377 296T333 307H272L285 382H343Q388 382
405 394T428 449Q449 454 472 455T519 454Q512 426 506 395T495 325Q491 298 489 270T485 215ZM551 485Q549 520 540 546T505 586T430 601H332L376 676Q451 676 503 676T593 677T658 679Q651 638 648 590T649 497Q603 485 551 485ZM402 732Q377 735 352 744T306
767Q322 784 337 807T363 851T380 884Q391 885 402 885T425 886Q463 886 496 881T549 867Q503 826 465 791T402 732Z" />
<glyph unicode="&#xca;" horiz-adv-x="638" d="M10 -3Q11 17 15 36T29 76Q55 78 68 87T90 121T107 197L160 501Q167 541 165 561T148 589T108 601Q105 620 105 638T108 679Q132 678 167 678T243 677T320 676T386 676L304 182Q296 136 298 113T317 83T363 75L310
0Q284 0 243 0T158 0T74 -1T10 -3ZM575 -3Q545 -1 499 -1T403 0T310 0L363 75H377Q411 75 437 88T484 133T521 218Q552 214 574 206T618 180Q606 145 594 96T575 -3ZM485 215Q461 216 440 219T399 230Q399 250 395 267T377 296T333 307H272L285 382H343Q388 382
405 394T428 449Q449 454 472 455T519 454Q512 426 506 395T495 325Q491 298 489 270T485 215ZM551 485Q549 520 540 546T505 586T430 601H332L376 676Q451 676 503 676T593 677T658 679Q651 638 648 590T649 497Q603 485 551 485ZM263 719Q238 727 222 748T202
785Q233 798 267 817T332 856T386 894Q406 897 429 896T472 888Q500 860 534 829T614 755Q601 743 578 737T527 730Q499 747 467 763T404 787Q382 779 356 766T304 739T263 719Z" />
<glyph unicode="&#xcb;" horiz-adv-x="638" d="M10 -3Q11 17 15 36T29 76Q55 78 68 87T90 121T107 197L160 501Q167 541 165 561T148 589T108 601Q105 620 105 638T108 679Q132 678 167 678T243 677T320 676T386 676L304 182Q296 136 298 113T317 83T363 75L310
0Q284 0 243 0T158 0T74 -1T10 -3ZM575 -3Q545 -1 499 -1T403 0T310 0L363 75H377Q411 75 437 88T484 133T521 218Q552 214 574 206T618 180Q606 145 594 96T575 -3ZM485 215Q461 216 440 219T399 230Q399 250 395 267T377 296T333 307H272L285 382H343Q388 382
405 394T428 449Q449 454 472 455T519 454Q512 426 506 395T495 325Q491 298 489 270T485 215ZM551 485Q549 520 540 546T505 586T430 601H332L376 676Q451 676 503 676T593 677T658 679Q651 638 648 590T649 497Q603 485 551 485ZM291 719Q245 719 220 746T199
819Q202 854 222 872T283 890Q330 890 355 863T374 789Q365 719 291 719ZM528 718Q482 718 457 744T434 813Q439 890 524 890Q569 890 594 864T614 789Q608 718 528 718Z" />
<glyph unicode="&#xcc;" horiz-adv-x="414" d="M158 501Q165 540 164 560T151 588T109 601Q106 618 106 638T108 679Q145 677 186 677T276 676Q315 676 359 676T448 679Q448 660 445 641T434 601Q407 598 393 590T372 557T355 481L303 180Q296 138 297 117T310
88T346 75Q349 56 349 37T348 -3Q305 -1 270 -1T185 0Q130 0 88 0T10 -3Q12 19 16 37T29 75Q54 79 67 86T88 114T103 177L158 501ZM611 740Q588 734 554 734T495 741Q487 756 471 776T436 819T399 857Q434 866 476 870T561 868Q569 840 582 804T611 740Z" />
<glyph unicode="&#xcd;" horiz-adv-x="414" d="M158 501Q165 540 164 560T151 588T109 601Q106 618 106 638T108 679Q145 677 186 677T276 676Q315 676 359 676T448 679Q448 660 445 641T434 601Q407 598 393 590T372 557T355 481L303 180Q296 138 297 117T310
88T346 75Q349 56 349 37T348 -3Q305 -1 270 -1T185 0Q130 0 88 0T10 -3Q12 19 16 37T29 75Q54 79 67 86T88 114T103 177L158 501ZM297 732Q272 735 247 744T201 767Q217 784 232 807T258 851T275 884Q286 885 297 885T320 886Q358 886 391 881T444 867Q398 826
360 791T297 732Z" />
<glyph unicode="&#xce;" horiz-adv-x="414" d="M158 501Q165 540 164 560T151 588T109 601Q106 618 106 638T108 679Q145 677 186 677T276 676Q315 676 359 676T448 679Q448 660 445 641T434 601Q407 598 393 590T372 557T355 481L303 180Q296 138 297 117T310
88T346 75Q349 56 349 37T348 -3Q305 -1 270 -1T185 0Q130 0 88 0T10 -3Q12 19 16 37T29 75Q54 79 67 86T88 114T103 177L158 501ZM451 704Q426 715 410 730T384 771Q418 791 456 820T530 876Q553 878 579 879T621 875Q644 846 670 815T726 747Q705 730 676 721T620
712Q599 729 580 739T537 762Q514 750 491 735T451 704Z" />
<glyph unicode="&#xcf;" horiz-adv-x="414" d="M158 501Q165 540 164 560T151 588T109 601Q106 618 106 638T108 679Q145 677 186 677T276 676Q315 676 359 676T448 679Q448 660 445 641T434 601Q407 598 393 590T372 557T355 481L303 180Q296 138 297 117T310
88T346 75Q349 56 349 37T348 -3Q305 -1 270 -1T185 0Q130 0 88 0T10 -3Q12 19 16 37T29 75Q54 79 67 86T88 114T103 177L158 501ZM436 710Q391 710 369 737T353 801Q358 828 382 849T453 871Q506 871 525 843T535 772Q530 747 502 729T436 710ZM660 710Q608 710
587 738T575 810Q581 840 608 855T675 871Q719 871 742 845T758 780Q753 753 730 732T660 710Z" />
<glyph unicode="&#xd0;" horiz-adv-x="733" d="M421 678Q481 678 534 669T629 638T699 578T735 480T729 335Q712 241 674 180T586 82T484 28T385 5T309 0H164L178 75H358Q369 75 391 84T439 121T490 206T531 357Q544 433 540 481T520 556T478 593T424 603Q410
603 397 601T369 591L300 676Q324 676 354 677T421 678ZM109 679Q133 678 168 678T242 677T319 676T384 676L302 182Q294 136 296 113T313 83T359 75L309 0Q283 0 241 0T154 0T70 -1T11 -3Q12 17 16 36T29 75Q55 77 68 86T90 120T106 197L158 501Q165 541 163 561T148
590T109 601Q105 621 105 642T109 679ZM302 550Q302 579 305 602T313 641H666Q666 615 663 593T654 552Q615 553 567 553T478 553Q436 553 405 553T350 551T302 550Z" />
<glyph unicode="&#xd1;" horiz-adv-x="712" d="M21 75Q50 84 68 97T98 138T119 218L189 615L262 607L195 218Q186 166 186 138T201 97T251 75Q254 57 254 37T252 -3Q218 -1 187 -1T133 0Q105 0 72 0T6 -3Q8 42 21 75ZM108 679Q139 677 172 677T235 676Q263 676
294 676T351 679Q413 582 471 478T580 270L500 -9Q424 140 343 285T175 573Q166 588 154 593T109 601Q105 619 105 638T108 679ZM529 679Q563 677 594 677T648 676Q677 676 710 676T775 679Q774 659 770 638T760 601Q732 592 716 579T691 538T672 458L592 1Q571
-5 550 -7T500 -9L558 225L593 458Q601 510 600 538T582 579T530 601Q527 619 527 639T529 679ZM519 735Q490 735 473 742T443 759T419 776T387 784Q362 784 340 769T298 736Q283 758 277 778T274 827Q310 862 352 875T426 888Q461 888 483 877T523 854T563 842Q586
842 604 856T634 887Q653 879 668 866T692 835Q658 786 614 761T519 735Z" />
<glyph unicode="&#xd2;" horiz-adv-x="742" d="M339 -9Q229 -9 158 37T58 165T49 351Q64 431 100 493T188 598T305 663T444 685Q551 685 623 641T726 519T737 334Q718 232 663 155T526 34T339 -9ZM348 69Q392 69 428 104T492 204T535 353Q548 425 541 483T507
575T434 610Q392 610 357 579T295 491T254 355Q242 295 241 243T251 152T286 91T348 69ZM531 740Q508 734 474 734T415 741Q407 756 391 776T356 819T319 857Q354 866 396 870T481 868Q489 840 502 804T531 740Z" />
<glyph unicode="&#xd3;" horiz-adv-x="742" d="M339 -9Q229 -9 158 37T58 165T49 351Q64 431 100 493T188 598T305 663T444 685Q551 685 623 641T726 519T737 334Q718 232 663 155T526 34T339 -9ZM348 69Q392 69 428 104T492 204T535 353Q548 425 541 483T507
575T434 610Q392 610 357 579T295 491T254 355Q242 295 241 243T251 152T286 91T348 69ZM473 732Q448 735 423 744T377 767Q393 784 408 807T434 851T451 884Q462 885 473 885T496 886Q534 886 567 881T620 867Q574 826 536 791T473 732Z" />
<glyph unicode="&#xd4;" horiz-adv-x="742" d="M339 -9Q229 -9 158 37T58 165T49 351Q64 431 100 493T188 598T305 663T444 685Q551 685 623 641T726 519T737 334Q718 232 663 155T526 34T339 -9ZM348 69Q392 69 428 104T492 204T535 353Q548 425 541 483T507
575T434 610Q392 610 357 579T295 491T254 355Q242 295 241 243T251 152T286 91T348 69ZM334 719Q309 727 293 748T273 785Q304 798 338 817T403 856T457 894Q477 897 500 896T543 888Q571 860 605 829T685 755Q672 743 649 737T598 730Q570 747 538 763T475 787Q453
779 427 766T375 739T334 719Z" />
<glyph unicode="&#xd5;" horiz-adv-x="742" d="M339 -9Q229 -9 158 37T58 165T49 351Q64 431 100 493T188 598T305 663T444 685Q551 685 623 641T726 519T737 334Q718 232 663 155T526 34T339 -9ZM348 69Q392 69 428 104T492 204T535 353Q548 425 541 483T507
575T434 610Q392 610 357 579T295 491T254 355Q242 295 241 243T251 152T286 91T348 69ZM518 735Q489 735 472 742T442 759T418 776T386 784Q361 784 339 769T297 736Q282 758 276 778T273 827Q309 862 351 875T425 888Q460 888 482 877T522 854T562 842Q585 842
603 856T633 887Q652 879 667 866T691 835Q657 786 613 761T518 735Z" />
<glyph unicode="&#xd6;" horiz-adv-x="742" d="M339 -9Q229 -9 158 37T58 165T49 351Q64 431 100 493T188 598T305 663T444 685Q551 685 623 641T726 519T737 334Q718 232 663 155T526 34T339 -9ZM348 69Q392 69 428 104T492 204T535 353Q548 425 541 483T507
575T434 610Q392 610 357 579T295 491T254 355Q242 295 241 243T251 152T286 91T348 69ZM362 719Q316 719 291 746T270 819Q273 854 293 872T354 890Q401 890 426 863T445 789Q436 719 362 719ZM599 718Q553 718 528 744T505 813Q510 890 595 890Q640 890 665 864T685
789Q679 718 599 718Z" />
<glyph unicode="&#xd7;" horiz-adv-x="550" d="M86 18Q61 17 36 26T2 52L468 494Q493 494 521 485T556 463Q514 425 465 380T363 286T261 189T166 97T86 18ZM404 18Q374 60 332 116T242 235T149 354T69 456Q87 472 110 482T153 493L488 56Q473 40 449 29T404 18Z" />
<glyph unicode="&#xd8;" horiz-adv-x="742" d="M339 -9Q229 -9 158 37T58 165T49 351Q64 431 100 493T188 598T305 663T444 685Q551 685 623 641T726 519T737 334Q718 232 663 155T526 34T339 -9ZM348 69Q392 69 428 104T492 204T535 353Q548 425 541 483T507
575T434 610Q392 610 357 579T295 491T254 355Q242 295 241 243T251 152T286 91T348 69ZM124 -9Q98 -9 75 3T43 35L660 685Q721 685 743 648Q655 563 576 484T424 325T276 164T124 -9Z" />
<glyph unicode="&#xd9;" horiz-adv-x="677" d="M337 -9Q191 -9 139 59T110 259L153 501Q160 540 159 560T146 588T104 601Q101 618 101 638T103 679Q140 677 181 677T271 676Q310 676 354 676T443 679Q443 660 440 641T429 601Q402 598 388 590T367 557T350 481L311
266Q292 165 312 119T385 72Q450 72 484 126T534 267L571 477Q580 530 581 554T572 586T534 601Q531 619 531 638T533 679Q565 677 593 677T641 676Q673 676 695 676T745 679Q744 660 741 639T731 601Q710 598 698 594T677 577T663 538T649 466L616 277Q598 174
566 111T479 20T337 -9ZM555 740Q532 734 498 734T439 741Q431 756 415 776T380 819T343 857Q378 866 420 870T505 868Q513 840 526 804T555 740Z" />
<glyph unicode="&#xda;" horiz-adv-x="677" d="M337 -9Q191 -9 139 59T110 259L153 501Q160 540 159 560T146 588T104 601Q101 618 101 638T103 679Q140 677 181 677T271 676Q310 676 354 676T443 679Q443 660 440 641T429 601Q402 598 388 590T367 557T350 481L311
266Q292 165 312 119T385 72Q450 72 484 126T534 267L571 477Q580 530 581 554T572 586T534 601Q531 619 531 638T533 679Q565 677 593 677T641 676Q673 676 695 676T745 679Q744 660 741 639T731 601Q710 598 698 594T677 577T663 538T649 466L616 277Q598 174
566 111T479 20T337 -9ZM497 732Q472 735 447 744T401 767Q417 784 432 807T458 851T475 884Q486 885 497 885T520 886Q558 886 591 881T644 867Q598 826 560 791T497 732Z" />
<glyph unicode="&#xdb;" horiz-adv-x="677" d="M337 -9Q191 -9 139 59T110 259L153 501Q160 540 159 560T146 588T104 601Q101 618 101 638T103 679Q140 677 181 677T271 676Q310 676 354 676T443 679Q443 660 440 641T429 601Q402 598 388 590T367 557T350 481L311
266Q292 165 312 119T385 72Q450 72 484 126T534 267L571 477Q580 530 581 554T572 586T534 601Q531 619 531 638T533 679Q565 677 593 677T641 676Q673 676 695 676T745 679Q744 660 741 639T731 601Q710 598 698 594T677 577T663 538T649 466L616 277Q598 174
566 111T479 20T337 -9ZM358 719Q333 727 317 748T297 785Q328 798 362 817T427 856T481 894Q501 897 524 896T567 888Q595 860 629 829T709 755Q696 743 673 737T622 730Q594 747 562 763T499 787Q477 779 451 766T399 739T358 719Z" />
<glyph unicode="&#xdc;" horiz-adv-x="677" d="M337 -9Q191 -9 139 59T110 259L153 501Q160 540 159 560T146 588T104 601Q101 618 101 638T103 679Q140 677 181 677T271 676Q310 676 354 676T443 679Q443 660 440 641T429 601Q402 598 388 590T367 557T350 481L311
266Q292 165 312 119T385 72Q450 72 484 126T534 267L571 477Q580 530 581 554T572 586T534 601Q531 619 531 638T533 679Q565 677 593 677T641 676Q673 676 695 676T745 679Q744 660 741 639T731 601Q710 598 698 594T677 577T663 538T649 466L616 277Q598 174
566 111T479 20T337 -9ZM386 719Q340 719 315 746T294 819Q297 854 317 872T378 890Q425 890 450 863T469 789Q460 719 386 719ZM623 718Q577 718 552 744T529 813Q534 890 619 890Q664 890 689 864T709 789Q703 718 623 718Z" />
<glyph unicode="&#xdd;" horiz-adv-x="605" d="M259 166Q238 253 214 338T160 509Q148 546 138 564T118 590T93 601Q90 615 90 636T92 679Q118 678 149 677T207 676T249 676Q267 676 297 676T361 677T427 679Q426 655 422 635T413 601Q370 596 362 577T365 521Q380
472 391 419T412 308L392 326Q420 376 445 425T493 526Q509 561 504 578T464 601Q457 636 463 679Q488 677 523 677T580 676Q608 676 630 676T683 679Q681 637 669 601Q658 599 648 593T624 569T590 515Q537 423 483 337T370 166H259ZM87 -3Q89 19 94 39T105 75Q149
81 171 90T204 123T223 197L239 291H439L421 187Q414 147 416 125T438 93T502 75Q506 56 506 36T505 -3Q472 -1 421 -1T309 0Q242 0 185 0T87 -3ZM425 732Q400 735 375 744T329 767Q345 784 360 807T386 851T403 884Q414 885 425 885T448 886Q486 886 519 881T572
867Q526 826 488 791T425 732Z" />
<glyph unicode="&#xde;" horiz-adv-x="673" d="M10 -3Q12 19 16 37T29 75Q54 79 67 86T88 114T103 177L158 501Q165 540 164 560T151 588T109 601Q106 618 106 638T108 679Q145 677 186 677T276 676Q315 676 359 676T448 679Q448 660 445 641T434 601Q407 598
393 590T372 557T355 481L303 180Q297 142 302 121T327 89T386 75Q389 56 389 37T388 -3Q338 -1 296 -1T195 0Q137 0 92 0T10 -3ZM404 149Q382 149 366 152T338 162Q337 180 341 199T351 232Q355 231 359 231T370 230Q397 230 419 245T457 286T480 346Q492 403
472 434T403 466Q390 466 376 463T346 453L327 544Q345 544 370 544T419 545T453 545Q528 545 574 529T644 485T672 422T671 349Q659 284 623 240T531 172T404 149Z" />
<glyph unicode="&#xdf;" horiz-adv-x="757" d="M41 448H128V348Q97 360 71 364T27 369Q27 390 30 412T41 448ZM454 714Q544 714 601 695T682 641T697 556Q691 523 676 504T641 473T602 451T568 426T548 388Q543 365 561 345T607 304T662 258T704 200T711 123Q698
56 642 24T466 -9Q402 -9 359 1T285 31Q296 60 302 94T309 168Q354 183 414 177Q415 122 426 96T466 69Q483 69 495 79T510 103Q515 126 498 146T454 188T401 233T359 289T351 362Q356 390 374 407T415 436T462 460T504 490T528 538Q535 573 525 595T491 628T435
639Q401 639 380 623T345 566T317 448Q307 396 299 350T284 260T269 167Q257 86 230 12T162 -121T69 -214T-47 -248Q-78 -248 -106 -237T-157 -199Q-157 -176 -151 -146T-134 -95Q-110 -107 -83 -112T-27 -117Q-3 -117 13 -112T40 -90T58 -44T69 35Q73 80 80 145T98
289T123 454Q135 516 153 564T207 645T301 696T454 714Z" />
<glyph unicode="&#xe0;" horiz-adv-x="625" d="M558 467Q572 456 579 444T587 416T584 379L539 184Q527 133 528 119T543 104Q550 104 557 107T574 118Q584 108 594 89T606 52Q573 20 535 6T450 -9Q418 -9 397 0T365 26T350 64T350 110Q352 125 354 137T361 162T373
195L404 389L327 446Q394 446 450 450T558 467ZM459 447L391 381Q380 386 360 389T328 393Q289 393 269 357T236 264Q221 194 227 159T259 124Q276 124 297 142T340 207T377 336L396 416L425 409L382 187H367Q343 118 313 75T247 11T164 -9Q111 -9 81 14T37 75T24
154T31 232Q44 296 78 349T176 434T334 467Q373 467 403 462T459 447ZM389 705Q396 668 407 624T433 542Q412 536 386 536T339 543Q316 582 291 617T227 696Q263 706 305 709T389 705Z" />
<glyph unicode="&#xe1;" horiz-adv-x="625" d="M558 467Q572 456 579 444T587 416T584 379L539 184Q527 133 528 119T543 104Q550 104 557 107T574 118Q584 108 594 89T606 52Q573 20 535 6T450 -9Q418 -9 397 0T365 26T350 64T350 110Q352 125 354 137T361 162T373
195L404 389L327 446Q394 446 450 450T558 467ZM459 447L391 381Q380 386 360 389T328 393Q289 393 269 357T236 264Q221 194 227 159T259 124Q276 124 297 142T340 207T377 336L396 416L425 409L382 187H367Q343 118 313 75T247 11T164 -9Q111 -9 81 14T37 75T24
154T31 232Q44 296 78 349T176 434T334 467Q373 467 403 462T459 447ZM386 716Q432 723 476 718T544 699Q496 656 458 612T395 530Q346 535 307 558Q323 583 338 612T367 669T386 716Z" />
<glyph unicode="&#xe2;" horiz-adv-x="625" d="M558 467Q572 456 579 444T587 416T584 379L539 184Q527 133 528 119T543 104Q550 104 557 107T574 118Q584 108 594 89T606 52Q573 20 535 6T450 -9Q418 -9 397 0T365 26T350 64T350 110Q352 125 354 137T361 162T373
195L404 389L327 446Q394 446 450 450T558 467ZM459 447L391 381Q380 386 360 389T328 393Q289 393 269 357T236 264Q221 194 227 159T259 124Q276 124 297 142T340 207T377 336L396 416L425 409L382 187H367Q343 118 313 75T247 11T164 -9Q111 -9 81 14T37 75T24
154T31 232Q44 296 78 349T176 434T334 467Q373 467 403 462T459 447ZM241 511Q216 521 202 542T184 581Q216 599 251 622T318 671T375 719Q395 722 418 721T460 712Q486 675 518 637T594 552Q580 539 557 531T506 521Q478 544 447 564T386 598Q364 587 337 571T284
539T241 511Z" />
<glyph unicode="&#xe3;" horiz-adv-x="625" d="M558 467Q572 456 579 444T587 416T584 379L539 184Q527 133 528 119T543 104Q550 104 557 107T574 118Q584 108 594 89T606 52Q573 20 535 6T450 -9Q418 -9 397 0T365 26T350 64T350 110Q352 125 354 137T361 162T373
195L404 389L327 446Q394 446 450 450T558 467ZM459 447L391 381Q380 386 360 389T328 393Q289 393 269 357T236 264Q221 194 227 159T259 124Q276 124 297 142T340 207T377 336L396 416L425 409L382 187H367Q343 118 313 75T247 11T164 -9Q111 -9 81 14T37 75T24
154T31 232Q44 296 78 349T176 434T334 467Q373 467 403 462T459 447ZM441 537Q414 537 396 545T365 564T337 583T303 591Q276 591 250 576T201 539Q187 559 181 578T177 626Q229 672 269 684T333 697Q360 697 378 690T410 672T438 654T470 646Q495 646 516 660T553
694Q572 687 587 675T611 644Q568 591 528 564T441 537Z" />
<glyph unicode="&#xe4;" horiz-adv-x="625" d="M558 467Q572 456 579 444T587 416T584 379L539 184Q527 133 528 119T543 104Q550 104 557 107T574 118Q584 108 594 89T606 52Q573 20 535 6T450 -9Q418 -9 397 0T365 26T350 64T350 110Q352 125 354 137T361 162T373
195L404 389L327 446Q394 446 450 450T558 467ZM459 447L391 381Q380 386 360 389T328 393Q289 393 269 357T236 264Q221 194 227 159T259 124Q276 124 297 142T340 207T377 336L396 416L425 409L382 187H367Q343 118 313 75T247 11T164 -9Q111 -9 81 14T37 75T24
154T31 232Q44 296 78 349T176 434T334 467Q373 467 403 462T459 447ZM495 497Q446 497 426 524T413 598Q421 640 445 659T509 679Q559 679 579 651T589 576Q572 497 495 497ZM267 497Q219 497 199 527T188 604Q196 642 219 660T279 679Q325 679 348 652T359 574Q350
537 328 517T267 497Z" />
<glyph unicode="&#xe5;" horiz-adv-x="625" d="M558 467Q572 456 579 444T587 416T584 379L539 184Q527 133 528 119T543 104Q550 104 557 107T574 118Q584 108 594 89T606 52Q573 20 535 6T450 -9Q418 -9 397 0T365 26T350 64T350 110Q352 125 354 137T361 162T373
195L404 389L327 446Q394 446 450 450T558 467ZM459 447L391 381Q380 386 360 389T328 393Q289 393 269 357T236 264Q221 194 227 159T259 124Q276 124 297 142T340 207T377 336L396 416L425 409L382 187H367Q343 118 313 75T247 11T164 -9Q111 -9 81 14T37 75T24
154T31 232Q44 296 78 349T176 434T334 467Q373 467 403 462T459 447ZM382 516Q308 516 278 551T260 634Q272 681 312 705T409 729Q456 729 485 714T526 672T530 612Q519 566 480 541T382 516ZM389 576Q403 576 414 587T429 619Q432 636 427 655T402 674Q387 674
377 661T363 625Q360 605 366 591T389 576Z" />
<glyph unicode="&#xe6;" horiz-adv-x="809" d="M182 -9Q124 -9 91 14T42 75T26 153T31 232Q43 294 77 347T175 434T334 467Q373 467 411 461T489 437L414 373Q393 384 375 388T341 393Q295 393 270 359T232 264Q218 197 229 161T282 124Q296 124 312 128T345 141L371
66Q332 35 285 13T182 -9ZM532 -9Q457 -9 413 11T350 66T330 144T340 234Q357 305 391 357T482 438T620 467Q683 467 723 450T781 404T792 336Q784 293 747 253T647 179T501 124L496 194Q554 212 588 231T639 275T662 333Q667 359 660 377T623 395Q597 395 580
381T553 347T536 306T527 271Q520 236 518 205T522 150T548 112T601 98Q631 98 660 108T710 129Q721 110 725 91T727 47Q683 16 633 4T532 -9Z" />
<glyph unicode="&#xe7;" horiz-adv-x="473" d="M227 -9Q159 -9 116 10T52 64T26 142T31 234Q38 271 56 311T109 387T198 445T332 467Q374 467 411 457T471 431Q461 403 456 376T451 322Q410 307 364 316Q366 348 358 369T322 391Q306 391 289 380T259 342T237
271Q230 235 228 204T233 148T258 111T308 98Q341 98 370 108T420 129Q431 110 435 91T437 47Q391 16 344 4T227 -9ZM120 -242Q116 -231 117 -217T121 -191Q154 -192 180 -182T209 -155Q214 -132 198 -121T157 -110Q145 -89 148 -63L228 16H318L259 -46Q296 -58
308 -85T314 -148Q305 -194 256 -219T120 -242Z" />
<glyph unicode="&#xe8;" horiz-adv-x="519" d="M227 -9Q159 -9 116 10T52 64T26 142T31 234Q45 304 86 356T190 438T332 467Q394 467 434 450T491 404T502 336Q497 309 475 281T416 228T325 188T203 172L206 249Q275 250 320 273T372 333Q378 364 368 379T330
395Q302 395 276 366T237 271Q227 223 227 184T246 121T308 98Q341 98 370 108T420 129Q431 110 435 91T437 47Q391 16 344 4T227 -9ZM345 705Q352 668 363 624T389 542Q368 536 342 536T295 543Q272 582 247 617T183 696Q219 706 261 709T345 705Z" />
<glyph unicode="&#xe9;" horiz-adv-x="519" d="M227 -9Q159 -9 116 10T52 64T26 142T31 234Q45 304 86 356T190 438T332 467Q394 467 434 450T491 404T502 336Q497 309 475 281T416 228T325 188T203 172L206 249Q275 250 320 273T372 333Q378 364 368 379T330
395Q302 395 276 366T237 271Q227 223 227 184T246 121T308 98Q341 98 370 108T420 129Q431 110 435 91T437 47Q391 16 344 4T227 -9ZM342 716Q388 723 432 718T500 699Q452 656 414 612T351 530Q302 535 263 558Q279 583 294 612T323 669T342 716Z" />
<glyph unicode="&#xea;" horiz-adv-x="519" d="M227 -9Q159 -9 116 10T52 64T26 142T31 234Q45 304 86 356T190 438T332 467Q394 467 434 450T491 404T502 336Q497 309 475 281T416 228T325 188T203 172L206 249Q275 250 320 273T372 333Q378 364 368 379T330
395Q302 395 276 366T237 271Q227 223 227 184T246 121T308 98Q341 98 370 108T420 129Q431 110 435 91T437 47Q391 16 344 4T227 -9ZM197 511Q172 521 158 542T140 581Q172 599 207 622T274 671T331 719Q351 722 374 721T416 712Q442 675 474 637T550 552Q536
539 513 531T462 521Q434 544 403 564T342 598Q320 587 293 571T240 539T197 511Z" />
<glyph unicode="&#xeb;" horiz-adv-x="519" d="M227 -9Q159 -9 116 10T52 64T26 142T31 234Q45 304 86 356T190 438T332 467Q394 467 434 450T491 404T502 336Q497 309 475 281T416 228T325 188T203 172L206 249Q275 250 320 273T372 333Q378 364 368 379T330
395Q302 395 276 366T237 271Q227 223 227 184T246 121T308 98Q341 98 370 108T420 129Q431 110 435 91T437 47Q391 16 344 4T227 -9ZM451 497Q402 497 382 524T369 598Q377 640 401 659T465 679Q515 679 535 651T545 576Q528 497 451 497ZM223 497Q175 497 155
527T144 604Q152 642 175 660T235 679Q281 679 304 652T315 574Q306 537 284 517T223 497Z" />
<glyph unicode="&#xec;" horiz-adv-x="346" d="M164 -9Q107 -9 82 14T54 77T63 172L82 262Q90 298 90 317T76 344T30 351Q30 369 33 389T43 426Q84 427 121 432T193 445T261 467Q283 455 293 434T296 371L260 184Q250 133 251 119T263 104Q269 104 277 107T295
118Q305 108 315 89T327 52Q294 20 251 6T164 -9ZM466 705Q473 668 484 624T510 542Q489 536 463 536T416 543Q393 582 368 617T304 696Q340 706 382 709T466 705Z" />
<glyph unicode="&#xed;" horiz-adv-x="346" d="M164 -9Q107 -9 82 14T54 77T63 172L82 262Q90 298 90 317T76 344T30 351Q30 369 33 389T43 426Q84 427 121 432T193 445T261 467Q283 455 293 434T296 371L260 184Q250 133 251 119T263 104Q269 104 277 107T295
118Q305 108 315 89T327 52Q294 20 251 6T164 -9ZM207 716Q253 723 297 718T365 699Q317 656 279 612T216 530Q167 535 128 558Q144 583 159 612T188 669T207 716Z" />
<glyph unicode="&#xee;" horiz-adv-x="346" d="M164 -9Q107 -9 82 14T54 77T63 172L82 262Q90 298 90 317T76 344T30 351Q30 369 33 389T43 426Q84 427 121 432T193 445T261 467Q283 455 293 434T296 371L260 184Q250 133 251 119T263 104Q269 104 277 107T295
118Q305 108 315 89T327 52Q294 20 251 6T164 -9ZM366 511Q342 523 326 540T300 582Q335 608 375 645T452 716Q474 718 500 718T543 713Q565 676 589 637T641 552Q621 538 591 530T536 522Q516 543 498 560T456 593Q432 574 409 553T366 511Z" />
<glyph unicode="&#xef;" horiz-adv-x="346" d="M164 -9Q107 -9 82 14T54 77T63 172L82 262Q90 298 90 317T76 344T30 351Q30 369 33 389T43 426Q84 427 121 432T193 445T261 467Q283 455 293 434T296 371L260 184Q250 133 251 119T263 104Q269 104 277 107T295
118Q305 108 315 89T327 52Q294 20 251 6T164 -9ZM344 506Q299 506 276 534T260 601Q266 630 291 653T363 676Q416 676 435 647T446 573Q440 545 412 526T344 506ZM571 506Q519 506 498 535T485 611Q492 643 520 659T588 676Q632 676 656 649T672 581Q667 552 644
529T571 506Z" />
<glyph unicode="&#xf0;" horiz-adv-x="560" d="M228 -8Q104 -8 55 52T30 230Q54 343 120 400T281 458Q319 458 334 451T363 432L362 359Q343 377 335 380T321 384Q284 384 261 349T220 221Q205 139 212 105T244 71Q276 71 301 120T345 269Q364 371 358 438T313
548T200 619Q202 636 208 655T224 691Q260 686 304 696T379 716Q453 666 494 600T546 451T537 271Q508 130 434 61T228 -8ZM225 465Q218 483 217 507T220 550L547 680Q552 663 552 640T550 595Q504 582 445 561T327 514T225 465Z" />
<glyph unicode="&#xf1;" horiz-adv-x="668" d="M33 0L82 262Q89 298 89 317T75 344T30 351Q30 369 33 389T43 426Q84 427 124 432T201 445T271 467Q291 457 298 440T302 402Q298 370 290 343T264 278L235 50L226 0H33ZM501 467Q534 467 558 456T595 420T611 357T601
267L582 184Q574 148 572 131T573 109T584 104Q590 104 597 107T617 118Q627 108 637 89T649 52Q616 20 574 6T487 -9Q428 -9 402 14T374 79T383 172L398 237Q403 258 403 277T398 308T377 320Q361 320 342 304T303 255T266 171T235 50L236 218L281 311Q298 345
321 373T372 423T433 455T501 467ZM426 537Q399 537 381 545T350 564T322 583T288 591Q261 591 235 576T186 539Q172 559 166 578T162 626Q214 672 254 684T318 697Q345 697 363 690T395 672T423 654T455 646Q480 646 501 660T538 694Q557 687 572 675T596 644Q553
591 513 564T426 537Z" />
<glyph unicode="&#xf2;" horiz-adv-x="610" d="M271 -9Q181 -9 124 21T44 105T31 230Q42 306 82 358T186 439T338 467Q426 467 483 438T564 355T578 227Q567 152 527 99T423 19T271 -9ZM282 63Q303 63 322 80T356 134T379 224Q390 301 376 348T325 395Q290 395
267 352T232 238Q224 181 227 142T245 83T282 63ZM366 705Q373 668 384 624T410 542Q389 536 363 536T316 543Q293 582 268 617T204 696Q240 706 282 709T366 705Z" />
<glyph unicode="&#xf3;" horiz-adv-x="610" d="M271 -9Q181 -9 124 21T44 105T31 230Q42 306 82 358T186 439T338 467Q426 467 483 438T564 355T578 227Q567 152 527 99T423 19T271 -9ZM282 63Q303 63 322 80T356 134T379 224Q390 301 376 348T325 395Q290 395
267 352T232 238Q224 181 227 142T245 83T282 63ZM363 716Q409 723 453 718T521 699Q473 656 435 612T372 530Q323 535 284 558Q300 583 315 612T344 669T363 716Z" />
<glyph unicode="&#xf4;" horiz-adv-x="610" d="M271 -9Q181 -9 124 21T44 105T31 230Q42 306 82 358T186 439T338 467Q426 467 483 438T564 355T578 227Q567 152 527 99T423 19T271 -9ZM282 63Q303 63 322 80T356 134T379 224Q390 301 376 348T325 395Q290 395
267 352T232 238Q224 181 227 142T245 83T282 63ZM218 511Q193 521 179 542T161 581Q193 599 228 622T295 671T352 719Q372 722 395 721T437 712Q463 675 495 637T571 552Q557 539 534 531T483 521Q455 544 424 564T363 598Q341 587 314 571T261 539T218 511Z"
/>
<glyph unicode="&#xf5;" horiz-adv-x="610" d="M271 -9Q181 -9 124 21T44 105T31 230Q42 306 82 358T186 439T338 467Q426 467 483 438T564 355T578 227Q567 152 527 99T423 19T271 -9ZM282 63Q303 63 322 80T356 134T379 224Q390 301 376 348T325 395Q290 395
267 352T232 238Q224 181 227 142T245 83T282 63ZM418 537Q391 537 373 545T342 564T314 583T280 591Q253 591 227 576T178 539Q164 559 158 578T154 626Q206 672 246 684T310 697Q337 697 355 690T387 672T415 654T447 646Q472 646 493 660T530 694Q549 687 564
675T588 644Q545 591 505 564T418 537Z" />
<glyph unicode="&#xf6;" horiz-adv-x="610" d="M271 -9Q181 -9 124 21T44 105T31 230Q42 306 82 358T186 439T338 467Q426 467 483 438T564 355T578 227Q567 152 527 99T423 19T271 -9ZM282 63Q303 63 322 80T356 134T379 224Q390 301 376 348T325 395Q290 395
267 352T232 238Q224 181 227 142T245 83T282 63ZM472 497Q423 497 403 524T390 598Q398 640 422 659T486 679Q536 679 556 651T566 576Q549 497 472 497ZM244 497Q196 497 176 527T165 604Q173 642 196 660T256 679Q302 679 325 652T336 574Q327 537 305 517T244
497Z" />
<glyph unicode="&#xf7;" horiz-adv-x="550" d="M27 220Q27 239 30 263T39 307H523Q523 282 521 261T511 221Q469 222 440 222T389 223T342 224T285 224Q218 224 157 223T27 220ZM246 -2Q210 -2 186 22T162 80Q162 115 180 139T244 163Q289 163 309 141T329 80Q329
43 305 21T246 -2ZM311 359Q265 359 243 381T220 442Q220 485 247 505T307 526Q341 526 365 507T390 453Q390 413 369 386T311 359Z" />
<glyph unicode="&#xf8;" horiz-adv-x="610" d="M271 -9Q181 -9 124 21T44 105T31 230Q42 306 82 358T186 439T338 467Q426 467 483 438T564 355T578 227Q567 152 527 99T423 19T271 -9ZM282 63Q303 63 322 80T356 134T379 224Q390 301 376 348T325 395Q290 395
267 352T232 238Q224 181 227 142T245 83T282 63ZM97 -26Q73 -26 51 -16T15 10L536 481Q562 480 582 468T611 439Q573 411 522 369T413 275T298 170T188 66T97 -26Z" />
<glyph unicode="&#xf9;" horiz-adv-x="668" d="M152 -9Q123 -9 102 0T68 33T56 98T70 202Q82 255 87 285T88 329T70 347T30 353Q30 370 33 390T43 426Q83 427 122 432T197 445T266 467Q281 458 288 448T297 420T293 370T275 285Q263 228 262 199T268 160T292 149Q313
149 338 174T389 255T431 405L441 458H630L585 205Q577 160 575 138T576 109T588 102Q599 102 618 117Q629 108 638 89T649 52Q617 21 575 6T488 -9Q436 -9 410 8T378 51T377 108Q379 119 383 131T393 156H392Q373 117 347 87T290 35T225 2T152 -9ZM374 705Q381
668 392 624T418 542Q397 536 371 536T324 543Q301 582 276 617T212 696Q248 706 290 709T374 705Z" />
<glyph unicode="&#xfa;" horiz-adv-x="668" d="M152 -9Q123 -9 102 0T68 33T56 98T70 202Q82 255 87 285T88 329T70 347T30 353Q30 370 33 390T43 426Q83 427 122 432T197 445T266 467Q281 458 288 448T297 420T293 370T275 285Q263 228 262 199T268 160T292 149Q313
149 338 174T389 255T431 405L441 458H630L585 205Q577 160 575 138T576 109T588 102Q599 102 618 117Q629 108 638 89T649 52Q617 21 575 6T488 -9Q436 -9 410 8T378 51T377 108Q379 119 383 131T393 156H392Q373 117 347 87T290 35T225 2T152 -9ZM371 716Q417
723 461 718T529 699Q481 656 443 612T380 530Q331 535 292 558Q308 583 323 612T352 669T371 716Z" />
<glyph unicode="&#xfb;" horiz-adv-x="668" d="M152 -9Q123 -9 102 0T68 33T56 98T70 202Q82 255 87 285T88 329T70 347T30 353Q30 370 33 390T43 426Q83 427 122 432T197 445T266 467Q281 458 288 448T297 420T293 370T275 285Q263 228 262 199T268 160T292 149Q313
149 338 174T389 255T431 405L441 458H630L585 205Q577 160 575 138T576 109T588 102Q599 102 618 117Q629 108 638 89T649 52Q617 21 575 6T488 -9Q436 -9 410 8T378 51T377 108Q379 119 383 131T393 156H392Q373 117 347 87T290 35T225 2T152 -9ZM226 511Q201
521 187 542T169 581Q201 599 236 622T303 671T360 719Q380 722 403 721T445 712Q471 675 503 637T579 552Q565 539 542 531T491 521Q463 544 432 564T371 598Q349 587 322 571T269 539T226 511Z" />
<glyph unicode="&#xfc;" horiz-adv-x="668" d="M152 -9Q123 -9 102 0T68 33T56 98T70 202Q82 255 87 285T88 329T70 347T30 353Q30 370 33 390T43 426Q83 427 122 432T197 445T266 467Q281 458 288 448T297 420T293 370T275 285Q263 228 262 199T268 160T292 149Q313
149 338 174T389 255T431 405L441 458H630L585 205Q577 160 575 138T576 109T588 102Q599 102 618 117Q629 108 638 89T649 52Q617 21 575 6T488 -9Q436 -9 410 8T378 51T377 108Q379 119 383 131T393 156H392Q373 117 347 87T290 35T225 2T152 -9ZM480 497Q431
497 411 524T398 598Q406 640 430 659T494 679Q544 679 564 651T574 576Q557 497 480 497ZM252 497Q204 497 184 527T173 604Q181 642 204 660T264 679Q310 679 333 652T344 574Q335 537 313 517T252 497Z" />
<glyph unicode="&#xfd;" horiz-adv-x="565" d="M205 467Q218 463 226 457T240 441T251 411Q277 323 291 235T312 62L167 -81Q158 -6 147 56T122 175T89 292Q79 327 62 339T6 350Q6 372 9 391T18 426Q45 428 81 435T151 450T205 467ZM505 467Q534 458 547 436T561
375Q561 353 555 329T529 270T466 180T352 43Q271 -51 217 -108T124 -196T55 -237T-11 -248Q-47 -248 -75 -237T-127 -199Q-127 -176 -121 -146T-104 -95Q-80 -107 -53 -112T3 -117Q40 -117 69 -111T125 -87T185 -36T260 51Q315 119 342 160T378 229T387 281Q387
315 366 333T306 350Q306 393 318 426Q345 428 381 435T451 450T505 467ZM335 716Q381 723 425 718T493 699Q445 656 407 612T344 530Q295 535 256 558Q272 583 287 612T316 669T335 716Z" />
<glyph unicode="&#xfe;" horiz-adv-x="623" d="M311 710Q331 692 337 676T337 622L316 507Q305 445 295 404T275 333T253 271L211 73Q220 27 219 -12T213 -81L184 -243H-9L123 506Q129 542 129 561T115 587T70 594Q70 612 73 632T83 669Q124 670 164 675T241 688T311
710ZM163 11L231 77Q242 72 262 69T294 65Q333 65 353 102T386 194Q401 265 395 299T363 334Q346 334 325 316T282 251T245 122L226 42L197 49L240 271H255Q279 340 309 383T376 447T458 467Q511 467 541 444T585 383T598 304T591 226Q579 163 544 110T447 24T288
-9Q249 -9 219 -4T163 11Z" />
<glyph unicode="&#xff;" horiz-adv-x="565" d="M205 467Q218 463 226 457T240 441T251 411Q277 323 291 235T312 62L167 -81Q158 -6 147 56T122 175T89 292Q79 327 62 339T6 350Q6 372 9 391T18 426Q45 428 81 435T151 450T205 467ZM505 467Q534 458 547 436T561
375Q561 353 555 329T529 270T466 180T352 43Q271 -51 217 -108T124 -196T55 -237T-11 -248Q-47 -248 -75 -237T-127 -199Q-127 -176 -121 -146T-104 -95Q-80 -107 -53 -112T3 -117Q40 -117 69 -111T125 -87T185 -36T260 51Q315 119 342 160T378 229T387 281Q387
315 366 333T306 350Q306 393 318 426Q345 428 381 435T451 450T505 467ZM444 497Q395 497 375 524T362 598Q370 640 394 659T458 679Q508 679 528 651T538 576Q521 497 444 497ZM216 497Q168 497 148 527T137 604Q145 642 168 660T228 679Q274 679 297 652T308
574Q299 537 277 517T216 497Z" />
<glyph unicode="&#x2013;" horiz-adv-x="565" d="M44 212Q45 236 52 260T72 303H532Q531 280 525 257T505 216Q430 216 359 216T212 215T44 212Z" />
<glyph unicode="&#x2014;" horiz-adv-x="1024" d="M45 214Q47 267 72 303H991Q990 279 984 257T965 218Q819 218 672 218T371 217T45 214Z" />
<glyph unicode="&#x2018;" horiz-adv-x="296" d="M135 387Q116 395 105 421T105 507Q116 566 149 621T237 717Q260 714 275 705T299 680Q240 624 239 583T300 534Q300 503 293 476T269 424Q229 422 195 412T135 387Z" />
<glyph unicode="&#x2019;" horiz-adv-x="296" d="M287 717Q306 709 317 683T317 597Q306 538 273 483T185 387Q162 390 147 399T123 424Q182 480 183 521T122 570Q122 601 129 628T153 680Q193 682 227 692T287 717Z" />
<glyph unicode="&#x201a;" horiz-adv-x="264" d="M167 185Q186 177 197 151T197 65Q186 6 153 -49T65 -145Q42 -142 27 -133T3 -108Q62 -52 63 -11T2 38Q2 69 9 96T33 148Q73 150 107 160T167 185Z" />
<glyph unicode="&#x201c;" horiz-adv-x="505" d="M133 378Q114 386 103 412T103 498Q114 557 147 612T235 708Q258 705 273 696T297 671Q242 618 239 577T293 525Q293 494 286 467T262 415Q222 413 190 403T133 378ZM348 378Q321 390 314 422T323 517Q336 572
366 622T436 701Q459 698 474 689T498 664Q441 610 444 571T507 525Q507 494 500 467T476 415Q436 413 405 403T348 378Z" />
<glyph unicode="&#x201d;" horiz-adv-x="505" d="M496 717Q515 709 526 683T526 597Q515 538 482 483T394 387Q371 390 356 399T332 424Q387 477 390 518T336 570Q336 601 343 628T367 680Q407 682 439 692T496 717ZM281 717Q308 705 315 673T306 578Q293 523
263 473T193 394Q170 397 155 406T131 431Q188 485 185 524T122 570Q122 601 129 628T153 680Q193 682 224 692T281 717Z" />
<glyph unicode="&#x201e;" horiz-adv-x="473" d="M376 185Q395 177 406 151T406 65Q395 6 362 -49T274 -145Q251 -142 236 -133T212 -108Q267 -55 270 -14T216 38Q216 69 223 96T247 148Q287 150 319 160T376 185ZM161 185Q188 173 195 141T186 46Q173 -9 143
-59T73 -138Q50 -135 35 -126T11 -101Q68 -47 65 -8T2 38Q2 69 9 96T33 148Q73 150 104 160T161 185Z" />
<glyph unicode="&#x2022;" horiz-adv-x="410" d="M207 102Q152 102 115 126T62 192T56 288Q68 346 114 378T225 410Q276 410 311 388T361 326T366 236Q354 176 311 139T207 102Z" />
<glyph unicode="&#x2039;" horiz-adv-x="292" d="M212 413Q178 380 145 352T72 295Q60 280 52 255T41 205Q73 172 106 133T167 59Q188 69 202 81T232 112Q222 133 212 157T193 207T178 255Q193 276 211 299T249 345T283 384Q272 397 253 406T212 413Z" />
<glyph unicode="&#x203a;" horiz-adv-x="308" d="M142 412Q162 389 194 357T258 297Q265 276 265 252T258 206Q207 168 161 130T71 53Q34 75 20 113Q51 141 82 172T137 232Q128 258 118 283T95 334T68 388Q88 402 105 407T142 412Z" />
</font>
</defs>
</svg>
